<ttFont>
<head>
    <!-- Most of this table will be recalculated by the compiler -->
    <tableVersion value="1.0"/>
    <fontRevision value="1.002"/>
    <checkSumAdjustment value="0x752a220b"/>
    <magicNumber value="0x5f0f3cf5"/>
    <flags value="00000000 00000011"/>
    <unitsPerEm value="1000"/>
    <created value="Thu Jan 14 20:43:20 2016"/>
    <modified value="Thu Jan 14 20:43:23 2016"/>
    <xMin value="-82"/>
    <yMin value="-356"/>
    <xMax value="771"/>
    <yMax value="1145"/>
    <macStyle value="00000000 00000010"/>
    <lowestRecPPEM value="6"/>
    <fontDirectionHint value="2"/>
    <indexToLocFormat value="0"/>
    <glyphDataFormat value="0"/>
  </head>
    <TTGlyph name=".notdef" xMin="-7" yMin="-200" xMax="548" yMax="800">
      <contour>
        <pt x="8" y="-200" on="1"/>
        <pt x="-7" y="800" on="1"/>
        <pt x="533" y="800" on="1"/>
        <pt x="548" y="-200" on="1"/>
      </contour>
      <contour>
        <pt x="70" y="750" on="1"/>
        <pt x="269" y="360" on="1"/>
        <pt x="457" y="750" on="1"/>
      </contour>
      <contour>
        <pt x="480" y="676" on="1"/>
        <pt x="301" y="300" on="1"/>
        <pt x="492" y="-76" on="1"/>
      </contour>
      <contour>
        <pt x="60" y="-76" on="1"/>
        <pt x="240" y="300" on="1"/>
        <pt x="48" y="676" on="1"/>
      </contour>
      <contour>
        <pt x="271" y="240" on="1"/>
        <pt x="84" y="-150" on="1"/>
        <pt x="471" y="-150" on="1"/>
      </contour>
    </TTGlyph>
    <TTGlyph name="A" xMin="-20" yMin="-5" xMax="487" yMax="620">
      <contour>
        <pt x="344" y="-5" on="1"/>
        <pt x="343" y="33" on="0"/>
        <pt x="341" y="111" on="0"/>
        <pt x="340" y="150" on="1"/>
        <pt x="182" y="150" on="1"/>
        <pt x="168" y="113" on="0"/>
        <pt x="138" y="37" on="0"/>
        <pt x="125" y="0" on="1"/>
        <pt x="-20" y="0" on="1"/>
        <pt x="43" y="154" on="0"/>
        <pt x="182" y="466" on="0"/>
        <pt x="253" y="620" on="1"/>
        <pt x="450" y="620" on="1"/>
        <pt x="460" y="469" on="0"/>
        <pt x="480" y="160" on="0"/>
        <pt x="487" y="5" on="1"/>
      </contour>
      <contour>
        <pt x="323" y="498" on="1"/>
        <pt x="299" y="438" on="0"/>
        <pt x="249" y="317" on="0"/>
        <pt x="225" y="257" on="1"/>
        <pt x="338" y="257" on="1"/>
        <pt x="337" y="317" on="0"/>
        <pt x="333" y="438" on="0"/>
        <pt x="331" y="498" on="1"/>
      </contour>
    </TTGlyph>
    <TTGlyph name="AE" xMin="-41" yMin="0" xMax="605" yMax="620">
      <contour>
        <pt x="310" y="504" on="1"/>
        <pt x="284" y="442" on="0"/>
        <pt x="231" y="314" on="0"/>
        <pt x="204" y="251" on="1"/>
        <pt x="272" y="251" on="1"/>
        <pt x="321" y="504" on="1"/>
      </contour>
      <contour>
        <pt x="223" y="0" on="1"/>
        <pt x="252" y="150" on="1"/>
        <pt x="162" y="150" on="1"/>
        <pt x="146" y="113" on="0"/>
        <pt x="113" y="37" on="0"/>
        <pt x="97" y="0" on="1"/>
        <pt x="-41" y="0" on="1"/>
        <pt x="30" y="154" on="0"/>
        <pt x="179" y="466" on="0"/>
        <pt x="252" y="620" on="1"/>
        <pt x="605" y="620" on="1"/>
        <pt x="582" y="504" on="1"/>
        <pt x="439" y="504" on="1"/>
        <pt x="410" y="359" on="1"/>
        <pt x="523" y="359" on="1"/>
        <pt x="504" y="263" on="1"/>
        <pt x="392" y="263" on="1"/>
        <pt x="363" y="116" on="1"/>
        <pt x="512" y="116" on="1"/>
        <pt x="483" y="0" on="1"/>
      </contour>
    </TTGlyph>
    <TTGlyph name="AEacute" xMin="-41" yMin="0" xMax="605" yMax="900">
      <contour>
        <pt x="267" y="733" on="1"/>
        <pt x="291" y="746" on="0"/>
        <pt x="354" y="785" on="0"/>
        <pt x="419" y="830" on="0"/>
        <pt x="482" y="878" on="0"/>
        <pt x="507" y="900" on="1"/>
        <pt x="594" y="794" on="1"/>
        <pt x="565" y="775" on="0"/>
        <pt x="485" y="738" on="0"/>
        <pt x="401" y="706" on="0"/>
        <pt x="321" y="681" on="0"/>
        <pt x="291" y="674" on="1"/>
      </contour>
      <contour>
        <pt x="310" y="504" on="1"/>
        <pt x="284" y="442" on="0"/>
        <pt x="231" y="314" on="0"/>
        <pt x="204" y="251" on="1"/>
        <pt x="272" y="251" on="1"/>
        <pt x="321" y="504" on="1"/>
      </contour>
      <contour>
        <pt x="223" y="0" on="1"/>
        <pt x="252" y="150" on="1"/>
        <pt x="162" y="150" on="1"/>
        <pt x="146" y="113" on="0"/>
        <pt x="113" y="37" on="0"/>
        <pt x="97" y="0" on="1"/>
        <pt x="-41" y="0" on="1"/>
        <pt x="30" y="154" on="0"/>
        <pt x="179" y="466" on="0"/>
        <pt x="252" y="620" on="1"/>
        <pt x="605" y="620" on="1"/>
        <pt x="582" y="504" on="1"/>
        <pt x="439" y="504" on="1"/>
        <pt x="410" y="359" on="1"/>
        <pt x="523" y="359" on="1"/>
        <pt x="504" y="263" on="1"/>
        <pt x="392" y="263" on="1"/>
        <pt x="363" y="116" on="1"/>
        <pt x="512" y="116" on="1"/>
        <pt x="483" y="0" on="1"/>
      </contour>
    </TTGlyph>
    <TTGlyph name="Aacute" xMin="-20" yMin="-5" xMax="545" yMax="900">
      <contour>
        <pt x="218" y="733" on="1"/>
        <pt x="242" y="746" on="0"/>
        <pt x="305" y="785" on="0"/>
        <pt x="370" y="830" on="0"/>
        <pt x="433" y="878" on="0"/>
        <pt x="458" y="900" on="1"/>
        <pt x="545" y="794" on="1"/>
        <pt x="516" y="775" on="0"/>
        <pt x="436" y="738" on="0"/>
        <pt x="352" y="706" on="0"/>
        <pt x="272" y="681" on="0"/>
        <pt x="242" y="674" on="1"/>
      </contour>
      <contour>
        <pt x="344" y="-5" on="1"/>
        <pt x="343" y="33" on="0"/>
        <pt x="341" y="111" on="0"/>
        <pt x="340" y="150" on="1"/>
        <pt x="182" y="150" on="1"/>
        <pt x="168" y="113" on="0"/>
        <pt x="138" y="37" on="0"/>
        <pt x="125" y="0" on="1"/>
        <pt x="-20" y="0" on="1"/>
        <pt x="43" y="154" on="0"/>
        <pt x="182" y="466" on="0"/>
        <pt x="253" y="620" on="1"/>
        <pt x="450" y="620" on="1"/>
        <pt x="460" y="469" on="0"/>
        <pt x="480" y="160" on="0"/>
        <pt x="487" y="5" on="1"/>
      </contour>
      <contour>
        <pt x="323" y="498" on="1"/>
        <pt x="299" y="438" on="0"/>
        <pt x="249" y="317" on="0"/>
        <pt x="225" y="257" on="1"/>
        <pt x="338" y="257" on="1"/>
        <pt x="337" y="317" on="0"/>
        <pt x="333" y="438" on="0"/>
        <pt x="331" y="498" on="1"/>
      </contour>
    </TTGlyph>
    <TTGlyph name="Abreve" xMin="-20" yMin="-5" xMax="601" yMax="880">
      <contour>
        <pt x="522" y="873" on="1"/>
        <pt x="601" y="826" on="1"/>
        <pt x="545" y="756" on="0"/>
        <pt x="422" y="677" on="0"/>
        <pt x="364" y="677" on="1"/>
        <pt x="307" y="677" on="0"/>
        <pt x="214" y="753" on="0"/>
        <pt x="186" y="825" on="1"/>
        <pt x="288" y="880" on="1"/>
        <pt x="310" y="831" on="0"/>
        <pt x="359" y="784" on="0"/>
        <pt x="393" y="784" on="1"/>
        <pt x="424" y="784" on="0"/>
        <pt x="485" y="831" on="0"/>
      </contour>
      <contour>
        <pt x="344" y="-5" on="1"/>
        <pt x="343" y="33" on="0"/>
        <pt x="341" y="111" on="0"/>
        <pt x="340" y="150" on="1"/>
        <pt x="182" y="150" on="1"/>
        <pt x="168" y="113" on="0"/>
        <pt x="138" y="37" on="0"/>
        <pt x="125" y="0" on="1"/>
        <pt x="-20" y="0" on="1"/>
        <pt x="43" y="154" on="0"/>
        <pt x="182" y="466" on="0"/>
        <pt x="253" y="620" on="1"/>
        <pt x="450" y="620" on="1"/>
        <pt x="460" y="469" on="0"/>
        <pt x="480" y="160" on="0"/>
        <pt x="487" y="5" on="1"/>
      </contour>
      <contour>
        <pt x="323" y="498" on="1"/>
        <pt x="299" y="438" on="0"/>
        <pt x="249" y="317" on="0"/>
        <pt x="225" y="257" on="1"/>
        <pt x="338" y="257" on="1"/>
        <pt x="337" y="317" on="0"/>
        <pt x="333" y="438" on="0"/>
        <pt x="331" y="498" on="1"/>
      </contour>
    </TTGlyph>
    <TTGlyph name="Acircumflex" xMin="-20" yMin="-5" xMax="573" yMax="889">
      <contour>
        <pt x="479" y="670" on="1"/>
        <pt x="384" y="766" on="1"/>
        <pt x="242" y="674" on="1"/>
        <pt x="181" y="743" on="1"/>
        <pt x="404" y="889" on="1"/>
        <pt x="413" y="889" on="1"/>
        <pt x="573" y="741" on="1"/>
      </contour>
      <contour>
        <pt x="344" y="-5" on="1"/>
        <pt x="343" y="33" on="0"/>
        <pt x="341" y="111" on="0"/>
        <pt x="340" y="150" on="1"/>
        <pt x="182" y="150" on="1"/>
        <pt x="168" y="113" on="0"/>
        <pt x="138" y="37" on="0"/>
        <pt x="125" y="0" on="1"/>
        <pt x="-20" y="0" on="1"/>
        <pt x="43" y="154" on="0"/>
        <pt x="182" y="466" on="0"/>
        <pt x="253" y="620" on="1"/>
        <pt x="450" y="620" on="1"/>
        <pt x="460" y="469" on="0"/>
        <pt x="480" y="160" on="0"/>
        <pt x="487" y="5" on="1"/>
      </contour>
      <contour>
        <pt x="323" y="498" on="1"/>
        <pt x="299" y="438" on="0"/>
        <pt x="249" y="317" on="0"/>
        <pt x="225" y="257" on="1"/>
        <pt x="338" y="257" on="1"/>
        <pt x="337" y="317" on="0"/>
        <pt x="333" y="438" on="0"/>
        <pt x="331" y="498" on="1"/>
      </contour>
    </TTGlyph>
    <TTGlyph name="Adieresis" xMin="-20" yMin="-5" xMax="591" yMax="833">
      <contour>
        <pt x="546" y="694" on="1"/>
        <pt x="397" y="693" on="1"/>
        <pt x="431" y="830" on="1"/>
        <pt x="591" y="833" on="1"/>
      </contour>
      <contour>
        <pt x="321" y="693" on="1"/>
        <pt x="171" y="691" on="1"/>
        <pt x="206" y="829" on="1"/>
        <pt x="365" y="831" on="1"/>
      </contour>
      <contour>
        <pt x="344" y="-5" on="1"/>
        <pt x="343" y="33" on="0"/>
        <pt x="341" y="111" on="0"/>
        <pt x="340" y="150" on="1"/>
        <pt x="182" y="150" on="1"/>
        <pt x="168" y="113" on="0"/>
        <pt x="138" y="37" on="0"/>
        <pt x="125" y="0" on="1"/>
        <pt x="-20" y="0" on="1"/>
        <pt x="43" y="154" on="0"/>
        <pt x="182" y="466" on="0"/>
        <pt x="253" y="620" on="1"/>
        <pt x="450" y="620" on="1"/>
        <pt x="460" y="469" on="0"/>
        <pt x="480" y="160" on="0"/>
        <pt x="487" y="5" on="1"/>
      </contour>
      <contour>
        <pt x="323" y="498" on="1"/>
        <pt x="299" y="438" on="0"/>
        <pt x="249" y="317" on="0"/>
        <pt x="225" y="257" on="1"/>
        <pt x="338" y="257" on="1"/>
        <pt x="337" y="317" on="0"/>
        <pt x="333" y="438" on="0"/>
        <pt x="331" y="498" on="1"/>
      </contour>
    </TTGlyph>
    <TTGlyph name="Agrave" xMin="-20" yMin="-5" xMax="537" yMax="903">
      <contour>
        <pt x="537" y="728" on="1"/>
        <pt x="509" y="671" on="1"/>
        <pt x="480" y="679" on="0"/>
        <pt x="406" y="707" on="0"/>
        <pt x="329" y="741" on="0"/>
        <pt x="254" y="778" on="0"/>
        <pt x="225" y="794" on="1"/>
        <pt x="304" y="903" on="1"/>
        <pt x="329" y="881" on="0"/>
        <pt x="390" y="832" on="0"/>
        <pt x="452" y="785" on="0"/>
        <pt x="512" y="743" on="0"/>
      </contour>
      <contour>
        <pt x="344" y="-5" on="1"/>
        <pt x="343" y="33" on="0"/>
        <pt x="341" y="111" on="0"/>
        <pt x="340" y="150" on="1"/>
        <pt x="182" y="150" on="1"/>
        <pt x="168" y="113" on="0"/>
        <pt x="138" y="37" on="0"/>
        <pt x="125" y="0" on="1"/>
        <pt x="-20" y="0" on="1"/>
        <pt x="43" y="154" on="0"/>
        <pt x="182" y="466" on="0"/>
        <pt x="253" y="620" on="1"/>
        <pt x="450" y="620" on="1"/>
        <pt x="460" y="469" on="0"/>
        <pt x="480" y="160" on="0"/>
        <pt x="487" y="5" on="1"/>
      </contour>
      <contour>
        <pt x="323" y="498" on="1"/>
        <pt x="299" y="438" on="0"/>
        <pt x="249" y="317" on="0"/>
        <pt x="225" y="257" on="1"/>
        <pt x="338" y="257" on="1"/>
        <pt x="337" y="317" on="0"/>
        <pt x="333" y="438" on="0"/>
        <pt x="331" y="498" on="1"/>
      </contour>
    </TTGlyph>
    <TTGlyph name="Amacron" xMin="-20" yMin="-5" xMax="573" yMax="820">
      <contour>
        <pt x="573" y="820" on="1"/>
        <pt x="551" y="705" on="1"/>
        <pt x="189" y="705" on="1"/>
        <pt x="212" y="820" on="1"/>
      </contour>
      <contour>
        <pt x="344" y="-5" on="1"/>
        <pt x="343" y="33" on="0"/>
        <pt x="341" y="111" on="0"/>
        <pt x="340" y="150" on="1"/>
        <pt x="182" y="150" on="1"/>
        <pt x="168" y="113" on="0"/>
        <pt x="138" y="37" on="0"/>
        <pt x="125" y="0" on="1"/>
        <pt x="-20" y="0" on="1"/>
        <pt x="43" y="154" on="0"/>
        <pt x="182" y="466" on="0"/>
        <pt x="253" y="620" on="1"/>
        <pt x="450" y="620" on="1"/>
        <pt x="460" y="469" on="0"/>
        <pt x="480" y="160" on="0"/>
        <pt x="487" y="5" on="1"/>
      </contour>
      <contour>
        <pt x="323" y="498" on="1"/>
        <pt x="299" y="438" on="0"/>
        <pt x="249" y="317" on="0"/>
        <pt x="225" y="257" on="1"/>
        <pt x="338" y="257" on="1"/>
        <pt x="337" y="317" on="0"/>
        <pt x="333" y="438" on="0"/>
        <pt x="331" y="498" on="1"/>
      </contour>
    </TTGlyph>
    <TTGlyph name="Aogonek" xMin="-20" yMin="-213" xMax="487" yMax="620">
      <contour>
        <pt x="291" y="-213" on="1"/>
        <pt x="240" y="-213" on="0"/>
        <pt x="187" y="-167" on="0"/>
        <pt x="186" y="-133" on="1"/>
        <pt x="186" y="-132" on="1"/>
        <pt x="186" y="-95" on="0"/>
        <pt x="259" y="-15" on="0"/>
        <pt x="343" y="21" on="1"/>
        <pt x="342" y="53" on="0"/>
        <pt x="341" y="118" on="0"/>
        <pt x="340" y="150" on="1"/>
        <pt x="182" y="150" on="1"/>
        <pt x="168" y="113" on="0"/>
        <pt x="138" y="37" on="0"/>
        <pt x="125" y="0" on="1"/>
        <pt x="-20" y="0" on="1"/>
        <pt x="43" y="154" on="0"/>
        <pt x="182" y="466" on="0"/>
        <pt x="253" y="620" on="1"/>
        <pt x="450" y="620" on="1"/>
        <pt x="460" y="469" on="0"/>
        <pt x="480" y="160" on="0"/>
        <pt x="487" y="5" on="1"/>
        <pt x="486" y="5" on="1"/>
        <pt x="390" y="-16" on="0"/>
        <pt x="311" y="-69" on="0"/>
        <pt x="311" y="-91" on="1"/>
        <pt x="311" y="-104" on="0"/>
        <pt x="333" y="-121" on="0"/>
        <pt x="358" y="-121" on="1"/>
        <pt x="373" y="-121" on="0"/>
        <pt x="414" y="-114" on="0"/>
        <pt x="439" y="-107" on="1"/>
        <pt x="452" y="-169" on="1"/>
        <pt x="403" y="-192" on="0"/>
        <pt x="322" y="-213" on="0"/>
      </contour>
      <contour>
        <pt x="323" y="498" on="1"/>
        <pt x="299" y="438" on="0"/>
        <pt x="249" y="317" on="0"/>
        <pt x="225" y="257" on="1"/>
        <pt x="338" y="257" on="1"/>
        <pt x="337" y="317" on="0"/>
        <pt x="333" y="438" on="0"/>
        <pt x="331" y="498" on="1"/>
      </contour>
    </TTGlyph>
    <TTGlyph name="Aring" xMin="-20" yMin="-5" xMax="520" yMax="887">
      <contour>
        <pt x="395" y="887" on="1"/>
        <pt x="452" y="887" on="0"/>
        <pt x="520" y="827" on="0"/>
        <pt x="520" y="786" on="1"/>
        <pt x="520" y="739" on="0"/>
        <pt x="437" y="668" on="0"/>
        <pt x="372" y="668" on="1"/>
        <pt x="315" y="668" on="0"/>
        <pt x="248" y="728" on="0"/>
        <pt x="248" y="770" on="1"/>
        <pt x="248" y="817" on="0"/>
        <pt x="330" y="887" on="0"/>
      </contour>
      <contour>
        <pt x="344" y="-5" on="1"/>
        <pt x="343" y="33" on="0"/>
        <pt x="341" y="111" on="0"/>
        <pt x="340" y="150" on="1"/>
        <pt x="182" y="150" on="1"/>
        <pt x="168" y="113" on="0"/>
        <pt x="138" y="37" on="0"/>
        <pt x="125" y="0" on="1"/>
        <pt x="-20" y="0" on="1"/>
        <pt x="43" y="154" on="0"/>
        <pt x="182" y="466" on="0"/>
        <pt x="253" y="620" on="1"/>
        <pt x="450" y="620" on="1"/>
        <pt x="460" y="469" on="0"/>
        <pt x="480" y="160" on="0"/>
        <pt x="487" y="5" on="1"/>
      </contour>
      <contour>
        <pt x="323" y="498" on="1"/>
        <pt x="299" y="438" on="0"/>
        <pt x="249" y="317" on="0"/>
        <pt x="225" y="257" on="1"/>
        <pt x="338" y="257" on="1"/>
        <pt x="337" y="317" on="0"/>
        <pt x="333" y="438" on="0"/>
        <pt x="331" y="498" on="1"/>
      </contour>
    </TTGlyph>
    <TTGlyph name="Aringacute" xMin="-20" yMin="-5" xMax="593" yMax="1145">
      <contour>
        <pt x="266" y="978" on="1"/>
        <pt x="290" y="991" on="0"/>
        <pt x="353" y="1030" on="0"/>
        <pt x="418" y="1075" on="0"/>
        <pt x="481" y="1123" on="0"/>
        <pt x="506" y="1145" on="1"/>
        <pt x="593" y="1039" on="1"/>
        <pt x="564" y="1020" on="0"/>
        <pt x="484" y="983" on="0"/>
        <pt x="400" y="951" on="0"/>
        <pt x="320" y="926" on="0"/>
        <pt x="290" y="919" on="1"/>
      </contour>
      <contour>
        <pt x="395" y="887" on="1"/>
        <pt x="452" y="887" on="0"/>
        <pt x="520" y="827" on="0"/>
        <pt x="520" y="786" on="1"/>
        <pt x="520" y="739" on="0"/>
        <pt x="437" y="668" on="0"/>
        <pt x="372" y="668" on="1"/>
        <pt x="315" y="668" on="0"/>
        <pt x="248" y="728" on="0"/>
        <pt x="248" y="770" on="1"/>
        <pt x="248" y="817" on="0"/>
        <pt x="330" y="887" on="0"/>
      </contour>
      <contour>
        <pt x="344" y="-5" on="1"/>
        <pt x="343" y="33" on="0"/>
        <pt x="341" y="111" on="0"/>
        <pt x="340" y="150" on="1"/>
        <pt x="182" y="150" on="1"/>
        <pt x="168" y="113" on="0"/>
        <pt x="138" y="37" on="0"/>
        <pt x="125" y="0" on="1"/>
        <pt x="-20" y="0" on="1"/>
        <pt x="43" y="154" on="0"/>
        <pt x="182" y="466" on="0"/>
        <pt x="253" y="620" on="1"/>
        <pt x="450" y="620" on="1"/>
        <pt x="460" y="469" on="0"/>
        <pt x="480" y="160" on="0"/>
        <pt x="487" y="5" on="1"/>
      </contour>
      <contour>
        <pt x="323" y="498" on="1"/>
        <pt x="299" y="438" on="0"/>
        <pt x="249" y="317" on="0"/>
        <pt x="225" y="257" on="1"/>
        <pt x="338" y="257" on="1"/>
        <pt x="337" y="317" on="0"/>
        <pt x="333" y="438" on="0"/>
        <pt x="331" y="498" on="1"/>
      </contour>
    </TTGlyph>
    <TTGlyph name="Atilde" xMin="-20" yMin="-5" xMax="605" yMax="867">
      <contour>
        <pt x="466" y="786" on="1"/>
        <pt x="478" y="786" on="0"/>
        <pt x="514" y="822" on="0"/>
        <pt x="539" y="859" on="1"/>
        <pt x="605" y="821" on="1"/>
        <pt x="569" y="762" on="0"/>
        <pt x="482" y="682" on="0"/>
        <pt x="440" y="682" on="1"/>
        <pt x="416" y="682" on="0"/>
        <pt x="374" y="707" on="0"/>
        <pt x="340" y="738" on="0"/>
        <pt x="312" y="763" on="0"/>
        <pt x="301" y="763" on="1"/>
        <pt x="289" y="763" on="0"/>
        <pt x="254" y="726" on="0"/>
        <pt x="229" y="690" on="1"/>
        <pt x="162" y="728" on="1"/>
        <pt x="198" y="787" on="0"/>
        <pt x="286" y="867" on="0"/>
        <pt x="328" y="867" on="1"/>
        <pt x="352" y="867" on="0"/>
        <pt x="393" y="842" on="0"/>
        <pt x="427" y="811" on="0"/>
        <pt x="455" y="786" on="0"/>
      </contour>
      <contour>
        <pt x="344" y="-5" on="1"/>
        <pt x="343" y="33" on="0"/>
        <pt x="341" y="111" on="0"/>
        <pt x="340" y="150" on="1"/>
        <pt x="182" y="150" on="1"/>
        <pt x="168" y="113" on="0"/>
        <pt x="138" y="37" on="0"/>
        <pt x="125" y="0" on="1"/>
        <pt x="-20" y="0" on="1"/>
        <pt x="43" y="154" on="0"/>
        <pt x="182" y="466" on="0"/>
        <pt x="253" y="620" on="1"/>
        <pt x="450" y="620" on="1"/>
        <pt x="460" y="469" on="0"/>
        <pt x="480" y="160" on="0"/>
        <pt x="487" y="5" on="1"/>
      </contour>
      <contour>
        <pt x="323" y="498" on="1"/>
        <pt x="299" y="438" on="0"/>
        <pt x="249" y="317" on="0"/>
        <pt x="225" y="257" on="1"/>
        <pt x="338" y="257" on="1"/>
        <pt x="337" y="317" on="0"/>
        <pt x="333" y="438" on="0"/>
        <pt x="331" y="498" on="1"/>
      </contour>
    </TTGlyph>
    <TTGlyph name="B" xMin="27" yMin="-8" xMax="532" yMax="628">
      <contour>
        <pt x="165" y="-8" on="1"/>
        <pt x="134" y="-8" on="0"/>
        <pt x="64" y="-3" on="0"/>
        <pt x="27" y="1" on="1"/>
        <pt x="146" y="615" on="1"/>
        <pt x="188" y="622" on="0"/>
        <pt x="262" y="628" on="0"/>
        <pt x="294" y="628" on="1"/>
        <pt x="420" y="628" on="0"/>
        <pt x="532" y="544" on="0"/>
        <pt x="532" y="483" on="1"/>
        <pt x="532" y="433" on="0"/>
        <pt x="467" y="349" on="0"/>
        <pt x="409" y="322" on="1"/>
        <pt x="452" y="306" on="0"/>
        <pt x="499" y="240" on="0"/>
        <pt x="499" y="197" on="1"/>
        <pt x="499" y="158" on="0"/>
        <pt x="462" y="84" on="0"/>
        <pt x="382" y="27" on="0"/>
        <pt x="255" y="-8" on="0"/>
      </contour>
      <contour>
        <pt x="298" y="514" on="1"/>
        <pt x="291" y="514" on="0"/>
        <pt x="277" y="514" on="0"/>
        <pt x="269" y="513" on="1"/>
        <pt x="237" y="344" on="1"/>
        <pt x="318" y="353" on="0"/>
        <pt x="392" y="414" on="0"/>
        <pt x="392" y="451" on="1"/>
        <pt x="392" y="481" on="0"/>
        <pt x="344" y="514" on="0"/>
      </contour>
      <contour>
        <pt x="240" y="107" on="1"/>
        <pt x="299" y="107" on="0"/>
        <pt x="360" y="155" on="0"/>
        <pt x="360" y="192" on="1"/>
        <pt x="360" y="226" on="0"/>
        <pt x="310" y="267" on="0"/>
        <pt x="257" y="267" on="1"/>
        <pt x="249" y="267" on="0"/>
        <pt x="231" y="266" on="0"/>
        <pt x="222" y="265" on="1"/>
        <pt x="192" y="111" on="1"/>
        <pt x="205" y="109" on="0"/>
        <pt x="229" y="107" on="0"/>
      </contour>
    </TTGlyph>
    <TTGlyph name="C" xMin="50" yMin="-14" xMax="534" yMax="633">
      <contour>
        <pt x="374" y="633" on="1"/>
        <pt x="459" y="633" on="0"/>
        <pt x="534" y="527" on="0"/>
        <pt x="534" y="419" on="1"/>
        <pt x="534" y="410" on="0"/>
        <pt x="534" y="392" on="0"/>
        <pt x="533" y="382" on="1"/>
        <pt x="398" y="380" on="1"/>
        <pt x="398" y="401" on="1"/>
        <pt x="398" y="458" on="0"/>
        <pt x="375" y="506" on="0"/>
        <pt x="344" y="506" on="1"/>
        <pt x="310" y="506" on="0"/>
        <pt x="255" y="458" on="0"/>
        <pt x="216" y="384" on="0"/>
        <pt x="194" y="293" on="0"/>
        <pt x="194" y="250" on="1"/>
        <pt x="194" y="184" on="0"/>
        <pt x="253" y="116" on="0"/>
        <pt x="318" y="116" on="1"/>
        <pt x="349" y="116" on="0"/>
        <pt x="428" y="131" on="0"/>
        <pt x="477" y="147" on="1"/>
        <pt x="462" y="21" on="1"/>
        <pt x="409" y="4" on="0"/>
        <pt x="317" y="-14" on="0"/>
        <pt x="277" y="-14" on="1"/>
        <pt x="166" y="-14" on="0"/>
        <pt x="50" y="114" on="0"/>
        <pt x="50" y="229" on="1"/>
        <pt x="50" y="308" on="0"/>
        <pt x="101" y="455" on="0"/>
        <pt x="189" y="566" on="0"/>
        <pt x="308" y="633" on="0"/>
      </contour>
    </TTGlyph>
    <TTGlyph name="Cacute" xMin="50" yMin="-14" xMax="561" yMax="913">
      <contour>
        <pt x="234" y="746" on="1"/>
        <pt x="258" y="759" on="0"/>
        <pt x="321" y="798" on="0"/>
        <pt x="386" y="843" on="0"/>
        <pt x="449" y="891" on="0"/>
        <pt x="474" y="913" on="1"/>
        <pt x="561" y="807" on="1"/>
        <pt x="532" y="788" on="0"/>
        <pt x="452" y="751" on="0"/>
        <pt x="368" y="719" on="0"/>
        <pt x="288" y="694" on="0"/>
        <pt x="258" y="687" on="1"/>
      </contour>
      <contour>
        <pt x="374" y="633" on="1"/>
        <pt x="459" y="633" on="0"/>
        <pt x="534" y="527" on="0"/>
        <pt x="534" y="419" on="1"/>
        <pt x="534" y="410" on="0"/>
        <pt x="534" y="392" on="0"/>
        <pt x="533" y="382" on="1"/>
        <pt x="398" y="380" on="1"/>
        <pt x="398" y="401" on="1"/>
        <pt x="398" y="458" on="0"/>
        <pt x="375" y="506" on="0"/>
        <pt x="344" y="506" on="1"/>
        <pt x="310" y="506" on="0"/>
        <pt x="255" y="458" on="0"/>
        <pt x="216" y="384" on="0"/>
        <pt x="194" y="293" on="0"/>
        <pt x="194" y="250" on="1"/>
        <pt x="194" y="184" on="0"/>
        <pt x="253" y="116" on="0"/>
        <pt x="318" y="116" on="1"/>
        <pt x="349" y="116" on="0"/>
        <pt x="428" y="131" on="0"/>
        <pt x="477" y="147" on="1"/>
        <pt x="462" y="21" on="1"/>
        <pt x="409" y="4" on="0"/>
        <pt x="317" y="-14" on="0"/>
        <pt x="277" y="-14" on="1"/>
        <pt x="166" y="-14" on="0"/>
        <pt x="50" y="114" on="0"/>
        <pt x="50" y="229" on="1"/>
        <pt x="50" y="308" on="0"/>
        <pt x="101" y="455" on="0"/>
        <pt x="189" y="566" on="0"/>
        <pt x="308" y="633" on="0"/>
      </contour>
    </TTGlyph>
    <TTGlyph name="Ccaron" xMin="50" yMin="-14" xMax="603" yMax="899">
      <contour>
        <pt x="380" y="680" on="1"/>
        <pt x="371" y="680" on="1"/>
        <pt x="211" y="828" on="1"/>
        <pt x="305" y="899" on="1"/>
        <pt x="400" y="804" on="1"/>
        <pt x="542" y="895" on="1"/>
        <pt x="603" y="826" on="1"/>
      </contour>
      <contour>
        <pt x="374" y="633" on="1"/>
        <pt x="459" y="633" on="0"/>
        <pt x="534" y="527" on="0"/>
        <pt x="534" y="419" on="1"/>
        <pt x="534" y="410" on="0"/>
        <pt x="534" y="392" on="0"/>
        <pt x="533" y="382" on="1"/>
        <pt x="398" y="380" on="1"/>
        <pt x="398" y="401" on="1"/>
        <pt x="398" y="458" on="0"/>
        <pt x="375" y="506" on="0"/>
        <pt x="344" y="506" on="1"/>
        <pt x="310" y="506" on="0"/>
        <pt x="255" y="458" on="0"/>
        <pt x="216" y="384" on="0"/>
        <pt x="194" y="293" on="0"/>
        <pt x="194" y="250" on="1"/>
        <pt x="194" y="184" on="0"/>
        <pt x="253" y="116" on="0"/>
        <pt x="318" y="116" on="1"/>
        <pt x="349" y="116" on="0"/>
        <pt x="428" y="131" on="0"/>
        <pt x="477" y="147" on="1"/>
        <pt x="462" y="21" on="1"/>
        <pt x="409" y="4" on="0"/>
        <pt x="317" y="-14" on="0"/>
        <pt x="277" y="-14" on="1"/>
        <pt x="166" y="-14" on="0"/>
        <pt x="50" y="114" on="0"/>
        <pt x="50" y="229" on="1"/>
        <pt x="50" y="308" on="0"/>
        <pt x="101" y="455" on="0"/>
        <pt x="189" y="566" on="0"/>
        <pt x="308" y="633" on="0"/>
      </contour>
    </TTGlyph>
    <TTGlyph name="Ccedilla" xMin="50" yMin="-193" xMax="534" yMax="633">
      <contour>
        <pt x="381" y="-191" on="1"/>
        <pt x="263" y="-193" on="1"/>
        <pt x="264" y="-184" on="0"/>
        <pt x="264" y="-168" on="0"/>
        <pt x="264" y="-161" on="1"/>
        <pt x="264" y="-118" on="0"/>
        <pt x="249" y="-83" on="0"/>
        <pt x="235" y="-83" on="1"/>
        <pt x="217" y="-83" on="0"/>
        <pt x="178" y="-130" on="0"/>
        <pt x="157" y="-171" on="1"/>
        <pt x="88" y="-149" on="1"/>
        <pt x="111" y="-92" on="0"/>
        <pt x="164" y="-19" on="0"/>
        <pt x="193" y="-3" on="1"/>
        <pt x="123" y="19" on="0"/>
        <pt x="50" y="138" on="0"/>
        <pt x="50" y="229" on="1"/>
        <pt x="50" y="308" on="0"/>
        <pt x="101" y="455" on="0"/>
        <pt x="189" y="566" on="0"/>
        <pt x="308" y="633" on="0"/>
        <pt x="374" y="633" on="1"/>
        <pt x="459" y="633" on="0"/>
        <pt x="534" y="527" on="0"/>
        <pt x="534" y="419" on="1"/>
        <pt x="534" y="410" on="0"/>
        <pt x="534" y="392" on="0"/>
        <pt x="533" y="382" on="1"/>
        <pt x="398" y="380" on="1"/>
        <pt x="398" y="401" on="1"/>
        <pt x="398" y="458" on="0"/>
        <pt x="375" y="506" on="0"/>
        <pt x="344" y="506" on="1"/>
        <pt x="310" y="506" on="0"/>
        <pt x="255" y="458" on="0"/>
        <pt x="216" y="384" on="0"/>
        <pt x="194" y="293" on="0"/>
        <pt x="194" y="250" on="1"/>
        <pt x="194" y="184" on="0"/>
        <pt x="253" y="116" on="0"/>
        <pt x="318" y="116" on="1"/>
        <pt x="349" y="116" on="0"/>
        <pt x="428" y="131" on="0"/>
        <pt x="477" y="147" on="1"/>
        <pt x="462" y="21" on="1"/>
        <pt x="424" y="8" on="0"/>
        <pt x="354" y="-7" on="0"/>
        <pt x="323" y="-11" on="1"/>
        <pt x="349" y="-32" on="0"/>
        <pt x="382" y="-111" on="0"/>
        <pt x="382" y="-168" on="1"/>
        <pt x="382" y="-173" on="0"/>
        <pt x="381" y="-185" on="0"/>
      </contour>
    </TTGlyph>
    <TTGlyph name="Cdotaccent" xMin="50" yMin="-14" xMax="534" yMax="844">
      <contour>
        <pt x="451" y="706" on="1"/>
        <pt x="298" y="705" on="1"/>
        <pt x="332" y="843" on="1"/>
        <pt x="496" y="844" on="1"/>
      </contour>
      <contour>
        <pt x="374" y="633" on="1"/>
        <pt x="459" y="633" on="0"/>
        <pt x="534" y="527" on="0"/>
        <pt x="534" y="419" on="1"/>
        <pt x="534" y="410" on="0"/>
        <pt x="534" y="392" on="0"/>
        <pt x="533" y="382" on="1"/>
        <pt x="398" y="380" on="1"/>
        <pt x="398" y="401" on="1"/>
        <pt x="398" y="458" on="0"/>
        <pt x="375" y="506" on="0"/>
        <pt x="344" y="506" on="1"/>
        <pt x="310" y="506" on="0"/>
        <pt x="255" y="458" on="0"/>
        <pt x="216" y="384" on="0"/>
        <pt x="194" y="293" on="0"/>
        <pt x="194" y="250" on="1"/>
        <pt x="194" y="184" on="0"/>
        <pt x="253" y="116" on="0"/>
        <pt x="318" y="116" on="1"/>
        <pt x="349" y="116" on="0"/>
        <pt x="428" y="131" on="0"/>
        <pt x="477" y="147" on="1"/>
        <pt x="462" y="21" on="1"/>
        <pt x="409" y="4" on="0"/>
        <pt x="317" y="-14" on="0"/>
        <pt x="277" y="-14" on="1"/>
        <pt x="166" y="-14" on="0"/>
        <pt x="50" y="114" on="0"/>
        <pt x="50" y="229" on="1"/>
        <pt x="50" y="308" on="0"/>
        <pt x="101" y="455" on="0"/>
        <pt x="189" y="566" on="0"/>
        <pt x="308" y="633" on="0"/>
      </contour>
    </TTGlyph>
    <TTGlyph name="D" xMin="23" yMin="-6" xMax="534" yMax="627">
      <contour>
        <pt x="534" y="390" on="1"/>
        <pt x="534" y="314" on="0"/>
        <pt x="490" y="171" on="0"/>
        <pt x="394" y="61" on="0"/>
        <pt x="238" y="-6" on="0"/>
        <pt x="126" y="-6" on="1"/>
        <pt x="102" y="-6" on="0"/>
        <pt x="50" y="-3" on="0"/>
        <pt x="23" y="1" on="1"/>
        <pt x="142" y="616" on="1"/>
        <pt x="178" y="622" on="0"/>
        <pt x="243" y="627" on="0"/>
        <pt x="271" y="627" on="1"/>
        <pt x="405" y="627" on="0"/>
        <pt x="534" y="506" on="0"/>
      </contour>
      <contour>
        <pt x="196" y="113" on="1"/>
        <pt x="244" y="113" on="0"/>
        <pt x="318" y="157" on="0"/>
        <pt x="366" y="229" on="0"/>
        <pt x="391" y="325" on="0"/>
        <pt x="391" y="376" on="1"/>
        <pt x="391" y="440" on="0"/>
        <pt x="337" y="509" on="0"/>
        <pt x="279" y="509" on="1"/>
        <pt x="275" y="509" on="0"/>
        <pt x="268" y="509" on="0"/>
        <pt x="264" y="508" on="1"/>
        <pt x="188" y="113" on="1"/>
        <pt x="190" y="113" on="0"/>
        <pt x="194" y="113" on="0"/>
      </contour>
    </TTGlyph>
    <TTGlyph name="Dcaron" xMin="23" yMin="-6" xMax="574" yMax="893">
      <contour>
        <pt x="351" y="674" on="1"/>
        <pt x="342" y="674" on="1"/>
        <pt x="182" y="822" on="1"/>
        <pt x="276" y="893" on="1"/>
        <pt x="371" y="798" on="1"/>
        <pt x="513" y="889" on="1"/>
        <pt x="574" y="820" on="1"/>
      </contour>
      <contour>
        <pt x="534" y="390" on="1"/>
        <pt x="534" y="314" on="0"/>
        <pt x="490" y="171" on="0"/>
        <pt x="394" y="61" on="0"/>
        <pt x="238" y="-6" on="0"/>
        <pt x="126" y="-6" on="1"/>
        <pt x="102" y="-6" on="0"/>
        <pt x="50" y="-3" on="0"/>
        <pt x="23" y="1" on="1"/>
        <pt x="142" y="616" on="1"/>
        <pt x="178" y="622" on="0"/>
        <pt x="243" y="627" on="0"/>
        <pt x="271" y="627" on="1"/>
        <pt x="405" y="627" on="0"/>
        <pt x="534" y="506" on="0"/>
      </contour>
      <contour>
        <pt x="196" y="113" on="1"/>
        <pt x="244" y="113" on="0"/>
        <pt x="318" y="157" on="0"/>
        <pt x="366" y="229" on="0"/>
        <pt x="391" y="325" on="0"/>
        <pt x="391" y="376" on="1"/>
        <pt x="391" y="440" on="0"/>
        <pt x="337" y="509" on="0"/>
        <pt x="279" y="509" on="1"/>
        <pt x="275" y="509" on="0"/>
        <pt x="268" y="509" on="0"/>
        <pt x="264" y="508" on="1"/>
        <pt x="188" y="113" on="1"/>
        <pt x="190" y="113" on="0"/>
        <pt x="194" y="113" on="0"/>
      </contour>
    </TTGlyph>
    <TTGlyph name="Dcroat" xMin="19" yMin="-6" xMax="534" yMax="627">
      <contour>
        <pt x="126" y="-6" on="1"/>
        <pt x="102" y="-6" on="0"/>
        <pt x="50" y="-3" on="0"/>
        <pt x="23" y="1" on="1"/>
        <pt x="74" y="263" on="1"/>
        <pt x="19" y="263" on="1"/>
        <pt x="38" y="361" on="1"/>
        <pt x="93" y="361" on="1"/>
        <pt x="142" y="616" on="1"/>
        <pt x="178" y="622" on="0"/>
        <pt x="243" y="627" on="0"/>
        <pt x="271" y="627" on="1"/>
        <pt x="405" y="627" on="0"/>
        <pt x="534" y="506" on="0"/>
        <pt x="534" y="390" on="1"/>
        <pt x="534" y="314" on="0"/>
        <pt x="490" y="171" on="0"/>
        <pt x="394" y="61" on="0"/>
        <pt x="238" y="-6" on="0"/>
      </contour>
      <contour>
        <pt x="196" y="113" on="1"/>
        <pt x="244" y="113" on="0"/>
        <pt x="318" y="157" on="0"/>
        <pt x="366" y="229" on="0"/>
        <pt x="391" y="325" on="0"/>
        <pt x="391" y="376" on="1"/>
        <pt x="391" y="440" on="0"/>
        <pt x="337" y="509" on="0"/>
        <pt x="279" y="509" on="1"/>
        <pt x="275" y="509" on="0"/>
        <pt x="268" y="509" on="0"/>
        <pt x="264" y="508" on="1"/>
        <pt x="236" y="361" on="1"/>
        <pt x="325" y="361" on="1"/>
        <pt x="300" y="263" on="1"/>
        <pt x="217" y="263" on="1"/>
        <pt x="188" y="113" on="1"/>
        <pt x="190" y="113" on="0"/>
        <pt x="194" y="113" on="0"/>
      </contour>
    </TTGlyph>
    <TTGlyph name="E" xMin="36" yMin="0" xMax="549" yMax="620">
      <contour>
        <pt x="458" y="120" on="1"/>
        <pt x="425" y="0" on="1"/>
        <pt x="36" y="0" on="1"/>
        <pt x="156" y="620" on="1"/>
        <pt x="549" y="620" on="1"/>
        <pt x="526" y="500" on="1"/>
        <pt x="277" y="500" on="1"/>
        <pt x="250" y="362" on="1"/>
        <pt x="460" y="362" on="1"/>
        <pt x="439" y="258" on="1"/>
        <pt x="229" y="258" on="1"/>
        <pt x="202" y="120" on="1"/>
      </contour>
    </TTGlyph>
    <TTGlyph name="Eacute" xMin="36" yMin="0" xMax="549" yMax="900">
      <contour>
        <pt x="220" y="733" on="1"/>
        <pt x="244" y="746" on="0"/>
        <pt x="307" y="785" on="0"/>
        <pt x="372" y="830" on="0"/>
        <pt x="435" y="878" on="0"/>
        <pt x="460" y="900" on="1"/>
        <pt x="547" y="794" on="1"/>
        <pt x="518" y="775" on="0"/>
        <pt x="438" y="738" on="0"/>
        <pt x="354" y="706" on="0"/>
        <pt x="274" y="681" on="0"/>
        <pt x="244" y="674" on="1"/>
      </contour>
      <contour>
        <pt x="458" y="120" on="1"/>
        <pt x="425" y="0" on="1"/>
        <pt x="36" y="0" on="1"/>
        <pt x="156" y="620" on="1"/>
        <pt x="549" y="620" on="1"/>
        <pt x="526" y="500" on="1"/>
        <pt x="277" y="500" on="1"/>
        <pt x="250" y="362" on="1"/>
        <pt x="460" y="362" on="1"/>
        <pt x="439" y="258" on="1"/>
        <pt x="229" y="258" on="1"/>
        <pt x="202" y="120" on="1"/>
      </contour>
    </TTGlyph>
    <TTGlyph name="Ebreve" xMin="36" yMin="0" xMax="603" yMax="880">
      <contour>
        <pt x="524" y="873" on="1"/>
        <pt x="603" y="826" on="1"/>
        <pt x="547" y="756" on="0"/>
        <pt x="424" y="677" on="0"/>
        <pt x="366" y="677" on="1"/>
        <pt x="309" y="677" on="0"/>
        <pt x="216" y="753" on="0"/>
        <pt x="188" y="825" on="1"/>
        <pt x="290" y="880" on="1"/>
        <pt x="312" y="831" on="0"/>
        <pt x="361" y="784" on="0"/>
        <pt x="395" y="784" on="1"/>
        <pt x="426" y="784" on="0"/>
        <pt x="487" y="831" on="0"/>
      </contour>
      <contour>
        <pt x="458" y="120" on="1"/>
        <pt x="425" y="0" on="1"/>
        <pt x="36" y="0" on="1"/>
        <pt x="156" y="620" on="1"/>
        <pt x="549" y="620" on="1"/>
        <pt x="526" y="500" on="1"/>
        <pt x="277" y="500" on="1"/>
        <pt x="250" y="362" on="1"/>
        <pt x="460" y="362" on="1"/>
        <pt x="439" y="258" on="1"/>
        <pt x="229" y="258" on="1"/>
        <pt x="202" y="120" on="1"/>
      </contour>
    </TTGlyph>
    <TTGlyph name="Ecaron" xMin="36" yMin="0" xMax="589" yMax="886">
      <contour>
        <pt x="366" y="667" on="1"/>
        <pt x="357" y="667" on="1"/>
        <pt x="197" y="815" on="1"/>
        <pt x="291" y="886" on="1"/>
        <pt x="386" y="791" on="1"/>
        <pt x="528" y="882" on="1"/>
        <pt x="589" y="813" on="1"/>
      </contour>
      <contour>
        <pt x="458" y="120" on="1"/>
        <pt x="425" y="0" on="1"/>
        <pt x="36" y="0" on="1"/>
        <pt x="156" y="620" on="1"/>
        <pt x="549" y="620" on="1"/>
        <pt x="526" y="500" on="1"/>
        <pt x="277" y="500" on="1"/>
        <pt x="250" y="362" on="1"/>
        <pt x="460" y="362" on="1"/>
        <pt x="439" y="258" on="1"/>
        <pt x="229" y="258" on="1"/>
        <pt x="202" y="120" on="1"/>
      </contour>
    </TTGlyph>
    <TTGlyph name="Ecircumflex" xMin="36" yMin="0" xMax="575" yMax="889">
      <contour>
        <pt x="481" y="670" on="1"/>
        <pt x="386" y="766" on="1"/>
        <pt x="244" y="674" on="1"/>
        <pt x="183" y="743" on="1"/>
        <pt x="406" y="889" on="1"/>
        <pt x="415" y="889" on="1"/>
        <pt x="575" y="741" on="1"/>
      </contour>
      <contour>
        <pt x="458" y="120" on="1"/>
        <pt x="425" y="0" on="1"/>
        <pt x="36" y="0" on="1"/>
        <pt x="156" y="620" on="1"/>
        <pt x="549" y="620" on="1"/>
        <pt x="526" y="500" on="1"/>
        <pt x="277" y="500" on="1"/>
        <pt x="250" y="362" on="1"/>
        <pt x="460" y="362" on="1"/>
        <pt x="439" y="258" on="1"/>
        <pt x="229" y="258" on="1"/>
        <pt x="202" y="120" on="1"/>
      </contour>
    </TTGlyph>
    <TTGlyph name="Edieresis" xMin="36" yMin="0" xMax="593" yMax="833">
      <contour>
        <pt x="548" y="694" on="1"/>
        <pt x="399" y="693" on="1"/>
        <pt x="433" y="830" on="1"/>
        <pt x="593" y="833" on="1"/>
      </contour>
      <contour>
        <pt x="323" y="693" on="1"/>
        <pt x="173" y="691" on="1"/>
        <pt x="208" y="829" on="1"/>
        <pt x="367" y="831" on="1"/>
      </contour>
      <contour>
        <pt x="458" y="120" on="1"/>
        <pt x="425" y="0" on="1"/>
        <pt x="36" y="0" on="1"/>
        <pt x="156" y="620" on="1"/>
        <pt x="549" y="620" on="1"/>
        <pt x="526" y="500" on="1"/>
        <pt x="277" y="500" on="1"/>
        <pt x="250" y="362" on="1"/>
        <pt x="460" y="362" on="1"/>
        <pt x="439" y="258" on="1"/>
        <pt x="229" y="258" on="1"/>
        <pt x="202" y="120" on="1"/>
      </contour>
    </TTGlyph>
    <TTGlyph name="Edotaccent" xMin="36" yMin="0" xMax="549" yMax="831">
      <contour>
        <pt x="437" y="693" on="1"/>
        <pt x="284" y="692" on="1"/>
        <pt x="318" y="830" on="1"/>
        <pt x="482" y="831" on="1"/>
      </contour>
      <contour>
        <pt x="458" y="120" on="1"/>
        <pt x="425" y="0" on="1"/>
        <pt x="36" y="0" on="1"/>
        <pt x="156" y="620" on="1"/>
        <pt x="549" y="620" on="1"/>
        <pt x="526" y="500" on="1"/>
        <pt x="277" y="500" on="1"/>
        <pt x="250" y="362" on="1"/>
        <pt x="460" y="362" on="1"/>
        <pt x="439" y="258" on="1"/>
        <pt x="229" y="258" on="1"/>
        <pt x="202" y="120" on="1"/>
      </contour>
    </TTGlyph>
    <TTGlyph name="Egrave" xMin="36" yMin="0" xMax="549" yMax="903">
      <contour>
        <pt x="539" y="728" on="1"/>
        <pt x="511" y="671" on="1"/>
        <pt x="482" y="679" on="0"/>
        <pt x="408" y="707" on="0"/>
        <pt x="331" y="741" on="0"/>
        <pt x="256" y="778" on="0"/>
        <pt x="227" y="794" on="1"/>
        <pt x="306" y="903" on="1"/>
        <pt x="331" y="881" on="0"/>
        <pt x="392" y="832" on="0"/>
        <pt x="454" y="785" on="0"/>
        <pt x="514" y="743" on="0"/>
      </contour>
      <contour>
        <pt x="458" y="120" on="1"/>
        <pt x="425" y="0" on="1"/>
        <pt x="36" y="0" on="1"/>
        <pt x="156" y="620" on="1"/>
        <pt x="549" y="620" on="1"/>
        <pt x="526" y="500" on="1"/>
        <pt x="277" y="500" on="1"/>
        <pt x="250" y="362" on="1"/>
        <pt x="460" y="362" on="1"/>
        <pt x="439" y="258" on="1"/>
        <pt x="229" y="258" on="1"/>
        <pt x="202" y="120" on="1"/>
      </contour>
    </TTGlyph>
    <TTGlyph name="Emacron" xMin="36" yMin="0" xMax="575" yMax="820">
      <contour>
        <pt x="575" y="820" on="1"/>
        <pt x="553" y="705" on="1"/>
        <pt x="191" y="705" on="1"/>
        <pt x="214" y="820" on="1"/>
      </contour>
      <contour>
        <pt x="458" y="120" on="1"/>
        <pt x="425" y="0" on="1"/>
        <pt x="36" y="0" on="1"/>
        <pt x="156" y="620" on="1"/>
        <pt x="549" y="620" on="1"/>
        <pt x="526" y="500" on="1"/>
        <pt x="277" y="500" on="1"/>
        <pt x="250" y="362" on="1"/>
        <pt x="460" y="362" on="1"/>
        <pt x="439" y="258" on="1"/>
        <pt x="229" y="258" on="1"/>
        <pt x="202" y="120" on="1"/>
      </contour>
    </TTGlyph>
    <TTGlyph name="Eogonek" xMin="36" yMin="-214" xMax="549" yMax="620">
      <contour>
        <pt x="391" y="-170" on="1"/>
        <pt x="342" y="-193" on="0"/>
        <pt x="261" y="-214" on="0"/>
        <pt x="230" y="-214" on="1"/>
        <pt x="179" y="-214" on="0"/>
        <pt x="125" y="-167" on="0"/>
        <pt x="125" y="-133" on="1"/>
        <pt x="125" y="-101" on="0"/>
        <pt x="181" y="-32" on="0"/>
        <pt x="246" y="0" on="1"/>
        <pt x="36" y="0" on="1"/>
        <pt x="156" y="620" on="1"/>
        <pt x="549" y="620" on="1"/>
        <pt x="526" y="500" on="1"/>
        <pt x="277" y="500" on="1"/>
        <pt x="250" y="362" on="1"/>
        <pt x="460" y="362" on="1"/>
        <pt x="439" y="258" on="1"/>
        <pt x="229" y="258" on="1"/>
        <pt x="202" y="120" on="1"/>
        <pt x="458" y="120" on="1"/>
        <pt x="425" y="0" on="1"/>
        <pt x="329" y="-20" on="0"/>
        <pt x="250" y="-70" on="0"/>
        <pt x="250" y="-92" on="1"/>
        <pt x="250" y="-105" on="0"/>
        <pt x="272" y="-122" on="0"/>
        <pt x="297" y="-122" on="1"/>
        <pt x="312" y="-122" on="0"/>
        <pt x="353" y="-115" on="0"/>
        <pt x="378" y="-108" on="1"/>
      </contour>
    </TTGlyph>
    <TTGlyph name="Eth" xMin="19" yMin="-6" xMax="534" yMax="627">
      <contour>
        <pt x="126" y="-6" on="1"/>
        <pt x="102" y="-6" on="0"/>
        <pt x="50" y="-3" on="0"/>
        <pt x="23" y="1" on="1"/>
        <pt x="74" y="263" on="1"/>
        <pt x="19" y="263" on="1"/>
        <pt x="38" y="361" on="1"/>
        <pt x="93" y="361" on="1"/>
        <pt x="142" y="616" on="1"/>
        <pt x="178" y="622" on="0"/>
        <pt x="243" y="627" on="0"/>
        <pt x="271" y="627" on="1"/>
        <pt x="405" y="627" on="0"/>
        <pt x="534" y="506" on="0"/>
        <pt x="534" y="390" on="1"/>
        <pt x="534" y="314" on="0"/>
        <pt x="490" y="171" on="0"/>
        <pt x="394" y="61" on="0"/>
        <pt x="238" y="-6" on="0"/>
      </contour>
      <contour>
        <pt x="196" y="113" on="1"/>
        <pt x="244" y="113" on="0"/>
        <pt x="318" y="157" on="0"/>
        <pt x="366" y="229" on="0"/>
        <pt x="391" y="325" on="0"/>
        <pt x="391" y="376" on="1"/>
        <pt x="391" y="440" on="0"/>
        <pt x="337" y="509" on="0"/>
        <pt x="279" y="509" on="1"/>
        <pt x="275" y="509" on="0"/>
        <pt x="268" y="509" on="0"/>
        <pt x="264" y="508" on="1"/>
        <pt x="236" y="361" on="1"/>
        <pt x="325" y="361" on="1"/>
        <pt x="300" y="263" on="1"/>
        <pt x="217" y="263" on="1"/>
        <pt x="188" y="113" on="1"/>
        <pt x="190" y="113" on="0"/>
        <pt x="194" y="113" on="0"/>
      </contour>
    </TTGlyph>
    <TTGlyph name="Euro" xMin="28" yMin="-13" xMax="571" yMax="634">
      <contour>
        <pt x="493" y="40" on="1"/>
        <pt x="434" y="13" on="0"/>
        <pt x="336" y="-13" on="0"/>
        <pt x="296" y="-13" on="1"/>
        <pt x="209" y="-13" on="0"/>
        <pt x="116" y="91" on="0"/>
        <pt x="106" y="170" on="1"/>
        <pt x="28" y="170" on="1"/>
        <pt x="48" y="268" on="1"/>
        <pt x="105" y="268" on="1"/>
        <pt x="106" y="282" on="0"/>
        <pt x="111" y="311" on="0"/>
        <pt x="114" y="325" on="1"/>
        <pt x="56" y="325" on="1"/>
        <pt x="76" y="423" on="1"/>
        <pt x="145" y="423" on="1"/>
        <pt x="187" y="515" on="0"/>
        <pt x="334" y="634" on="0"/>
        <pt x="421" y="634" on="1"/>
        <pt x="487" y="634" on="0"/>
        <pt x="562" y="559" on="0"/>
        <pt x="571" y="476" on="1"/>
        <pt x="448" y="455" on="1"/>
        <pt x="441" y="488" on="0"/>
        <pt x="414" y="518" on="0"/>
        <pt x="388" y="518" on="1"/>
        <pt x="351" y="518" on="0"/>
        <pt x="290" y="458" on="0"/>
        <pt x="269" y="412" on="1"/>
        <pt x="480" y="412" on="1"/>
        <pt x="458" y="325" on="1"/>
        <pt x="242" y="325" on="1"/>
        <pt x="239" y="312" on="0"/>
        <pt x="235" y="284" on="0"/>
        <pt x="234" y="271" on="1"/>
        <pt x="444" y="271" on="1"/>
        <pt x="423" y="184" on="1"/>
        <pt x="238" y="184" on="1"/>
        <pt x="246" y="143" on="0"/>
        <pt x="299" y="102" on="0"/>
        <pt x="350" y="102" on="1"/>
        <pt x="375" y="102" on="0"/>
        <pt x="442" y="111" on="0"/>
        <pt x="482" y="121" on="1"/>
      </contour>
    </TTGlyph>
    <TTGlyph name="F" xMin="40" yMin="0" xMax="561" yMax="620">
      <contour>
        <pt x="448" y="241" on="1"/>
        <pt x="232" y="241" on="1"/>
        <pt x="185" y="0" on="1"/>
        <pt x="40" y="0" on="1"/>
        <pt x="160" y="620" on="1"/>
        <pt x="561" y="620" on="1"/>
        <pt x="539" y="498" on="1"/>
        <pt x="282" y="498" on="1"/>
        <pt x="253" y="351" on="1"/>
        <pt x="470" y="351" on="1"/>
      </contour>
    </TTGlyph>
    <TTGlyph name="G" xMin="49" yMin="-108" xMax="526" yMax="633">
      <contour>
        <pt x="421" y="-106" on="1"/>
        <pt x="291" y="-108" on="1"/>
        <pt x="315" y="-3" on="1"/>
        <pt x="297" y="-7" on="0"/>
        <pt x="264" y="-10" on="0"/>
        <pt x="248" y="-10" on="1"/>
        <pt x="152" y="-10" on="0"/>
        <pt x="49" y="112" on="0"/>
        <pt x="49" y="219" on="1"/>
        <pt x="49" y="300" on="0"/>
        <pt x="99" y="451" on="0"/>
        <pt x="185" y="565" on="0"/>
        <pt x="302" y="633" on="0"/>
        <pt x="368" y="633" on="1"/>
        <pt x="450" y="633" on="0"/>
        <pt x="526" y="530" on="0"/>
        <pt x="526" y="425" on="1"/>
        <pt x="526" y="415" on="0"/>
        <pt x="526" y="393" on="0"/>
        <pt x="525" y="382" on="1"/>
        <pt x="390" y="380" on="1"/>
        <pt x="390" y="399" on="1"/>
        <pt x="390" y="454" on="0"/>
        <pt x="368" y="505" on="0"/>
        <pt x="339" y="505" on="1"/>
        <pt x="307" y="505" on="0"/>
        <pt x="253" y="456" on="0"/>
        <pt x="215" y="380" on="0"/>
        <pt x="194" y="284" on="0"/>
        <pt x="194" y="238" on="1"/>
        <pt x="194" y="178" on="0"/>
        <pt x="240" y="114" on="0"/>
        <pt x="288" y="114" on="1"/>
        <pt x="300" y="114" on="0"/>
        <pt x="327" y="118" on="0"/>
        <pt x="343" y="122" on="1"/>
        <pt x="371" y="246" on="1"/>
        <pt x="506" y="250" on="1"/>
      </contour>
    </TTGlyph>
    <TTGlyph name="Gbreve" xMin="49" yMin="-108" xMax="612" yMax="893">
      <contour>
        <pt x="533" y="886" on="1"/>
        <pt x="612" y="839" on="1"/>
        <pt x="556" y="769" on="0"/>
        <pt x="433" y="690" on="0"/>
        <pt x="375" y="690" on="1"/>
        <pt x="318" y="690" on="0"/>
        <pt x="225" y="766" on="0"/>
        <pt x="197" y="838" on="1"/>
        <pt x="299" y="893" on="1"/>
        <pt x="321" y="844" on="0"/>
        <pt x="370" y="797" on="0"/>
        <pt x="404" y="797" on="1"/>
        <pt x="435" y="797" on="0"/>
        <pt x="496" y="844" on="0"/>
      </contour>
      <contour>
        <pt x="421" y="-106" on="1"/>
        <pt x="291" y="-108" on="1"/>
        <pt x="315" y="-3" on="1"/>
        <pt x="297" y="-7" on="0"/>
        <pt x="264" y="-10" on="0"/>
        <pt x="248" y="-10" on="1"/>
        <pt x="152" y="-10" on="0"/>
        <pt x="49" y="112" on="0"/>
        <pt x="49" y="219" on="1"/>
        <pt x="49" y="300" on="0"/>
        <pt x="99" y="451" on="0"/>
        <pt x="185" y="565" on="0"/>
        <pt x="302" y="633" on="0"/>
        <pt x="368" y="633" on="1"/>
        <pt x="450" y="633" on="0"/>
        <pt x="526" y="530" on="0"/>
        <pt x="526" y="425" on="1"/>
        <pt x="526" y="415" on="0"/>
        <pt x="526" y="393" on="0"/>
        <pt x="525" y="382" on="1"/>
        <pt x="390" y="380" on="1"/>
        <pt x="390" y="399" on="1"/>
        <pt x="390" y="454" on="0"/>
        <pt x="368" y="505" on="0"/>
        <pt x="339" y="505" on="1"/>
        <pt x="307" y="505" on="0"/>
        <pt x="253" y="456" on="0"/>
        <pt x="215" y="380" on="0"/>
        <pt x="194" y="284" on="0"/>
        <pt x="194" y="238" on="1"/>
        <pt x="194" y="178" on="0"/>
        <pt x="240" y="114" on="0"/>
        <pt x="288" y="114" on="1"/>
        <pt x="300" y="114" on="0"/>
        <pt x="327" y="118" on="0"/>
        <pt x="343" y="122" on="1"/>
        <pt x="371" y="246" on="1"/>
        <pt x="506" y="250" on="1"/>
      </contour>
    </TTGlyph>
    <TTGlyph name="Gcommaaccent" xMin="49" yMin="-356" xMax="526" yMax="633">
      <contour>
        <pt x="421" y="-106" on="1"/>
        <pt x="291" y="-108" on="1"/>
        <pt x="315" y="-3" on="1"/>
        <pt x="297" y="-7" on="0"/>
        <pt x="264" y="-10" on="0"/>
        <pt x="248" y="-10" on="1"/>
        <pt x="152" y="-10" on="0"/>
        <pt x="49" y="112" on="0"/>
        <pt x="49" y="219" on="1"/>
        <pt x="49" y="300" on="0"/>
        <pt x="99" y="451" on="0"/>
        <pt x="185" y="565" on="0"/>
        <pt x="302" y="633" on="0"/>
        <pt x="368" y="633" on="1"/>
        <pt x="450" y="633" on="0"/>
        <pt x="526" y="530" on="0"/>
        <pt x="526" y="425" on="1"/>
        <pt x="526" y="415" on="0"/>
        <pt x="526" y="393" on="0"/>
        <pt x="525" y="382" on="1"/>
        <pt x="390" y="380" on="1"/>
        <pt x="390" y="399" on="1"/>
        <pt x="390" y="454" on="0"/>
        <pt x="368" y="505" on="0"/>
        <pt x="339" y="505" on="1"/>
        <pt x="307" y="505" on="0"/>
        <pt x="253" y="456" on="0"/>
        <pt x="215" y="380" on="0"/>
        <pt x="194" y="284" on="0"/>
        <pt x="194" y="238" on="1"/>
        <pt x="194" y="178" on="0"/>
        <pt x="240" y="114" on="0"/>
        <pt x="288" y="114" on="1"/>
        <pt x="300" y="114" on="0"/>
        <pt x="327" y="118" on="0"/>
        <pt x="343" y="122" on="1"/>
        <pt x="371" y="246" on="1"/>
        <pt x="506" y="250" on="1"/>
      </contour>
      <contour>
        <pt x="98" y="-332" on="1"/>
        <pt x="114" y="-295" on="0"/>
        <pt x="130" y="-207" on="0"/>
        <pt x="130" y="-167" on="1"/>
        <pt x="130" y="-160" on="0"/>
        <pt x="130" y="-144" on="0"/>
        <pt x="129" y="-137" on="1"/>
        <pt x="301" y="-135" on="1"/>
        <pt x="290" y="-201" on="0"/>
        <pt x="211" y="-319" on="0"/>
        <pt x="155" y="-356" on="1"/>
      </contour>
    </TTGlyph>
    <TTGlyph name="Gdotaccent" xMin="49" yMin="-108" xMax="526" yMax="844">
      <contour>
        <pt x="446" y="706" on="1"/>
        <pt x="293" y="705" on="1"/>
        <pt x="327" y="843" on="1"/>
        <pt x="491" y="844" on="1"/>
      </contour>
      <contour>
        <pt x="421" y="-106" on="1"/>
        <pt x="291" y="-108" on="1"/>
        <pt x="315" y="-3" on="1"/>
        <pt x="297" y="-7" on="0"/>
        <pt x="264" y="-10" on="0"/>
        <pt x="248" y="-10" on="1"/>
        <pt x="152" y="-10" on="0"/>
        <pt x="49" y="112" on="0"/>
        <pt x="49" y="219" on="1"/>
        <pt x="49" y="300" on="0"/>
        <pt x="99" y="451" on="0"/>
        <pt x="185" y="565" on="0"/>
        <pt x="302" y="633" on="0"/>
        <pt x="368" y="633" on="1"/>
        <pt x="450" y="633" on="0"/>
        <pt x="526" y="530" on="0"/>
        <pt x="526" y="425" on="1"/>
        <pt x="526" y="415" on="0"/>
        <pt x="526" y="393" on="0"/>
        <pt x="525" y="382" on="1"/>
        <pt x="390" y="380" on="1"/>
        <pt x="390" y="399" on="1"/>
        <pt x="390" y="454" on="0"/>
        <pt x="368" y="505" on="0"/>
        <pt x="339" y="505" on="1"/>
        <pt x="307" y="505" on="0"/>
        <pt x="253" y="456" on="0"/>
        <pt x="215" y="380" on="0"/>
        <pt x="194" y="284" on="0"/>
        <pt x="194" y="238" on="1"/>
        <pt x="194" y="178" on="0"/>
        <pt x="240" y="114" on="0"/>
        <pt x="288" y="114" on="1"/>
        <pt x="300" y="114" on="0"/>
        <pt x="327" y="118" on="0"/>
        <pt x="343" y="122" on="1"/>
        <pt x="371" y="246" on="1"/>
        <pt x="506" y="250" on="1"/>
      </contour>
    </TTGlyph>
    <TTGlyph name="H" xMin="18" yMin="0" xMax="570" yMax="620">
      <contour>
        <pt x="304" y="0" on="1"/>
        <pt x="354" y="256" on="1"/>
        <pt x="214" y="256" on="1"/>
        <pt x="164" y="0" on="1"/>
        <pt x="18" y="0" on="1"/>
        <pt x="138" y="620" on="1"/>
        <pt x="284" y="620" on="1"/>
        <pt x="235" y="368" on="1"/>
        <pt x="375" y="368" on="1"/>
        <pt x="424" y="620" on="1"/>
        <pt x="570" y="620" on="1"/>
        <pt x="450" y="0" on="1"/>
      </contour>
    </TTGlyph>
    <TTGlyph name="Hbar" xMin="18" yMin="0" xMax="608" yMax="620">
      <contour>
        <pt x="371" y="348" on="1"/>
        <pt x="388" y="433" on="1"/>
        <pt x="248" y="433" on="1"/>
        <pt x="231" y="348" on="1"/>
      </contour>
      <contour>
        <pt x="304" y="0" on="1"/>
        <pt x="350" y="236" on="1"/>
        <pt x="210" y="236" on="1"/>
        <pt x="164" y="0" on="1"/>
        <pt x="18" y="0" on="1"/>
        <pt x="101" y="428" on="1"/>
        <pt x="44" y="428" on="1"/>
        <pt x="63" y="526" on="1"/>
        <pt x="120" y="526" on="1"/>
        <pt x="138" y="620" on="1"/>
        <pt x="284" y="620" on="1"/>
        <pt x="265" y="521" on="1"/>
        <pt x="405" y="521" on="1"/>
        <pt x="424" y="620" on="1"/>
        <pt x="570" y="620" on="1"/>
        <pt x="552" y="526" on="1"/>
        <pt x="608" y="526" on="1"/>
        <pt x="589" y="428" on="1"/>
        <pt x="533" y="428" on="1"/>
        <pt x="450" y="0" on="1"/>
      </contour>
    </TTGlyph>
    <TTGlyph name="I" xMin="19" yMin="0" xMax="544" yMax="620">
      <contour>
        <pt x="316" y="113" on="1"/>
        <pt x="453" y="113" on="1"/>
        <pt x="425" y="0" on="1"/>
        <pt x="19" y="0" on="1"/>
        <pt x="41" y="113" on="1"/>
        <pt x="172" y="113" on="1"/>
        <pt x="248" y="507" on="1"/>
        <pt x="116" y="507" on="1"/>
        <pt x="138" y="620" on="1"/>
        <pt x="544" y="620" on="1"/>
        <pt x="523" y="507" on="1"/>
        <pt x="392" y="507" on="1"/>
      </contour>
    </TTGlyph>
    <TTGlyph name="Iacute" xMin="19" yMin="0" xMax="544" yMax="900">
      <contour>
        <pt x="209" y="733" on="1"/>
        <pt x="233" y="746" on="0"/>
        <pt x="296" y="785" on="0"/>
        <pt x="361" y="830" on="0"/>
        <pt x="424" y="878" on="0"/>
        <pt x="449" y="900" on="1"/>
        <pt x="536" y="794" on="1"/>
        <pt x="507" y="775" on="0"/>
        <pt x="427" y="738" on="0"/>
        <pt x="343" y="706" on="0"/>
        <pt x="263" y="681" on="0"/>
        <pt x="233" y="674" on="1"/>
      </contour>
      <contour>
        <pt x="316" y="113" on="1"/>
        <pt x="453" y="113" on="1"/>
        <pt x="425" y="0" on="1"/>
        <pt x="19" y="0" on="1"/>
        <pt x="41" y="113" on="1"/>
        <pt x="172" y="113" on="1"/>
        <pt x="248" y="507" on="1"/>
        <pt x="116" y="507" on="1"/>
        <pt x="138" y="620" on="1"/>
        <pt x="544" y="620" on="1"/>
        <pt x="523" y="507" on="1"/>
        <pt x="392" y="507" on="1"/>
      </contour>
    </TTGlyph>
    <TTGlyph name="Ibreve" xMin="19" yMin="0" xMax="592" yMax="880">
      <contour>
        <pt x="513" y="873" on="1"/>
        <pt x="592" y="826" on="1"/>
        <pt x="536" y="756" on="0"/>
        <pt x="413" y="677" on="0"/>
        <pt x="355" y="677" on="1"/>
        <pt x="298" y="677" on="0"/>
        <pt x="205" y="753" on="0"/>
        <pt x="177" y="825" on="1"/>
        <pt x="279" y="880" on="1"/>
        <pt x="301" y="831" on="0"/>
        <pt x="350" y="784" on="0"/>
        <pt x="384" y="784" on="1"/>
        <pt x="415" y="784" on="0"/>
        <pt x="476" y="831" on="0"/>
      </contour>
      <contour>
        <pt x="316" y="113" on="1"/>
        <pt x="453" y="113" on="1"/>
        <pt x="425" y="0" on="1"/>
        <pt x="19" y="0" on="1"/>
        <pt x="41" y="113" on="1"/>
        <pt x="172" y="113" on="1"/>
        <pt x="248" y="507" on="1"/>
        <pt x="116" y="507" on="1"/>
        <pt x="138" y="620" on="1"/>
        <pt x="544" y="620" on="1"/>
        <pt x="523" y="507" on="1"/>
        <pt x="392" y="507" on="1"/>
      </contour>
    </TTGlyph>
    <TTGlyph name="Icircumflex" xMin="19" yMin="0" xMax="564" yMax="889">
      <contour>
        <pt x="470" y="670" on="1"/>
        <pt x="375" y="766" on="1"/>
        <pt x="233" y="674" on="1"/>
        <pt x="172" y="743" on="1"/>
        <pt x="395" y="889" on="1"/>
        <pt x="404" y="889" on="1"/>
        <pt x="564" y="741" on="1"/>
      </contour>
      <contour>
        <pt x="316" y="113" on="1"/>
        <pt x="453" y="113" on="1"/>
        <pt x="425" y="0" on="1"/>
        <pt x="19" y="0" on="1"/>
        <pt x="41" y="113" on="1"/>
        <pt x="172" y="113" on="1"/>
        <pt x="248" y="507" on="1"/>
        <pt x="116" y="507" on="1"/>
        <pt x="138" y="620" on="1"/>
        <pt x="544" y="620" on="1"/>
        <pt x="523" y="507" on="1"/>
        <pt x="392" y="507" on="1"/>
      </contour>
    </TTGlyph>
    <TTGlyph name="Idieresis" xMin="19" yMin="0" xMax="582" yMax="833">
      <contour>
        <pt x="537" y="694" on="1"/>
        <pt x="388" y="693" on="1"/>
        <pt x="422" y="830" on="1"/>
        <pt x="582" y="833" on="1"/>
      </contour>
      <contour>
        <pt x="312" y="693" on="1"/>
        <pt x="162" y="691" on="1"/>
        <pt x="197" y="829" on="1"/>
        <pt x="356" y="831" on="1"/>
      </contour>
      <contour>
        <pt x="316" y="113" on="1"/>
        <pt x="453" y="113" on="1"/>
        <pt x="425" y="0" on="1"/>
        <pt x="19" y="0" on="1"/>
        <pt x="41" y="113" on="1"/>
        <pt x="172" y="113" on="1"/>
        <pt x="248" y="507" on="1"/>
        <pt x="116" y="507" on="1"/>
        <pt x="138" y="620" on="1"/>
        <pt x="544" y="620" on="1"/>
        <pt x="523" y="507" on="1"/>
        <pt x="392" y="507" on="1"/>
      </contour>
    </TTGlyph>
    <TTGlyph name="Idotaccent" xMin="19" yMin="0" xMax="544" yMax="831">
      <contour>
        <pt x="426" y="693" on="1"/>
        <pt x="273" y="692" on="1"/>
        <pt x="307" y="830" on="1"/>
        <pt x="471" y="831" on="1"/>
      </contour>
      <contour>
        <pt x="316" y="113" on="1"/>
        <pt x="453" y="113" on="1"/>
        <pt x="425" y="0" on="1"/>
        <pt x="19" y="0" on="1"/>
        <pt x="41" y="113" on="1"/>
        <pt x="172" y="113" on="1"/>
        <pt x="248" y="507" on="1"/>
        <pt x="116" y="507" on="1"/>
        <pt x="138" y="620" on="1"/>
        <pt x="544" y="620" on="1"/>
        <pt x="523" y="507" on="1"/>
        <pt x="392" y="507" on="1"/>
      </contour>
    </TTGlyph>
    <TTGlyph name="Igrave" xMin="19" yMin="0" xMax="544" yMax="903">
      <contour>
        <pt x="528" y="728" on="1"/>
        <pt x="500" y="671" on="1"/>
        <pt x="471" y="679" on="0"/>
        <pt x="397" y="707" on="0"/>
        <pt x="320" y="741" on="0"/>
        <pt x="245" y="778" on="0"/>
        <pt x="216" y="794" on="1"/>
        <pt x="295" y="903" on="1"/>
        <pt x="320" y="881" on="0"/>
        <pt x="381" y="832" on="0"/>
        <pt x="443" y="785" on="0"/>
        <pt x="503" y="743" on="0"/>
      </contour>
      <contour>
        <pt x="316" y="113" on="1"/>
        <pt x="453" y="113" on="1"/>
        <pt x="425" y="0" on="1"/>
        <pt x="19" y="0" on="1"/>
        <pt x="41" y="113" on="1"/>
        <pt x="172" y="113" on="1"/>
        <pt x="248" y="507" on="1"/>
        <pt x="116" y="507" on="1"/>
        <pt x="138" y="620" on="1"/>
        <pt x="544" y="620" on="1"/>
        <pt x="523" y="507" on="1"/>
        <pt x="392" y="507" on="1"/>
      </contour>
    </TTGlyph>
    <TTGlyph name="Imacron" xMin="19" yMin="0" xMax="564" yMax="820">
      <contour>
        <pt x="564" y="820" on="1"/>
        <pt x="542" y="705" on="1"/>
        <pt x="180" y="705" on="1"/>
        <pt x="203" y="820" on="1"/>
      </contour>
      <contour>
        <pt x="316" y="113" on="1"/>
        <pt x="453" y="113" on="1"/>
        <pt x="425" y="0" on="1"/>
        <pt x="19" y="0" on="1"/>
        <pt x="41" y="113" on="1"/>
        <pt x="172" y="113" on="1"/>
        <pt x="248" y="507" on="1"/>
        <pt x="116" y="507" on="1"/>
        <pt x="138" y="620" on="1"/>
        <pt x="544" y="620" on="1"/>
        <pt x="523" y="507" on="1"/>
        <pt x="392" y="507" on="1"/>
      </contour>
    </TTGlyph>
    <TTGlyph name="Iogonek" xMin="19" yMin="-213" xMax="544" yMax="620">
      <contour>
        <pt x="327" y="-169" on="1"/>
        <pt x="278" y="-192" on="0"/>
        <pt x="197" y="-213" on="0"/>
        <pt x="166" y="-213" on="1"/>
        <pt x="115" y="-213" on="0"/>
        <pt x="61" y="-165" on="0"/>
        <pt x="61" y="-131" on="1"/>
        <pt x="61" y="-100" on="0"/>
        <pt x="107" y="-32" on="0"/>
        <pt x="158" y="0" on="1"/>
        <pt x="19" y="0" on="1"/>
        <pt x="41" y="113" on="1"/>
        <pt x="172" y="113" on="1"/>
        <pt x="248" y="507" on="1"/>
        <pt x="116" y="507" on="1"/>
        <pt x="138" y="620" on="1"/>
        <pt x="544" y="620" on="1"/>
        <pt x="523" y="507" on="1"/>
        <pt x="392" y="507" on="1"/>
        <pt x="316" y="113" on="1"/>
        <pt x="453" y="113" on="1"/>
        <pt x="425" y="0" on="1"/>
        <pt x="300" y="0" on="1"/>
        <pt x="239" y="-22" on="0"/>
        <pt x="186" y="-70" on="0"/>
        <pt x="186" y="-91" on="1"/>
        <pt x="186" y="-104" on="0"/>
        <pt x="208" y="-121" on="0"/>
        <pt x="233" y="-121" on="1"/>
        <pt x="248" y="-121" on="0"/>
        <pt x="289" y="-114" on="0"/>
        <pt x="314" y="-107" on="1"/>
      </contour>
    </TTGlyph>
    <TTGlyph name="J" xMin="19" yMin="-10" xMax="519" yMax="620">
      <contour>
        <pt x="53" y="-10" on="1"/>
        <pt x="19" y="-10" on="1"/>
        <pt x="40" y="120" on="1"/>
        <pt x="68" y="119" on="0"/>
        <pt x="116" y="119" on="0"/>
        <pt x="135" y="119" on="1"/>
        <pt x="205" y="119" on="0"/>
        <pt x="255" y="128" on="0"/>
        <pt x="265" y="138" on="1"/>
        <pt x="270" y="143" on="0"/>
        <pt x="278" y="159" on="0"/>
        <pt x="288" y="191" on="0"/>
        <pt x="300" y="247" on="0"/>
        <pt x="309" y="291" on="1"/>
        <pt x="352" y="507" on="1"/>
        <pt x="166" y="507" on="1"/>
        <pt x="189" y="620" on="1"/>
        <pt x="519" y="620" on="1"/>
        <pt x="457" y="305" on="1"/>
        <pt x="443" y="233" on="0"/>
        <pt x="422" y="145" on="0"/>
        <pt x="405" y="92" on="0"/>
        <pt x="387" y="65" on="0"/>
        <pt x="377" y="55" on="1"/>
        <pt x="347" y="25" on="0"/>
        <pt x="202" y="-10" on="0"/>
      </contour>
    </TTGlyph>
    <TTGlyph name="K" xMin="22" yMin="-9" xMax="601" yMax="620">
      <contour>
        <pt x="349" y="-9" on="1"/>
        <pt x="231" y="309" on="1"/>
        <pt x="449" y="620" on="1"/>
        <pt x="601" y="620" on="1"/>
        <pt x="379" y="307" on="1"/>
        <pt x="500" y="9" on="1"/>
      </contour>
      <contour>
        <pt x="142" y="620" on="1"/>
        <pt x="285" y="620" on="1"/>
        <pt x="165" y="0" on="1"/>
        <pt x="22" y="0" on="1"/>
      </contour>
    </TTGlyph>
    <TTGlyph name="Kcommaaccent" xMin="22" yMin="-295" xMax="601" yMax="620">
      <contour>
        <pt x="349" y="-9" on="1"/>
        <pt x="231" y="309" on="1"/>
        <pt x="449" y="620" on="1"/>
        <pt x="601" y="620" on="1"/>
        <pt x="379" y="307" on="1"/>
        <pt x="500" y="9" on="1"/>
      </contour>
      <contour>
        <pt x="142" y="620" on="1"/>
        <pt x="285" y="620" on="1"/>
        <pt x="165" y="0" on="1"/>
        <pt x="22" y="0" on="1"/>
      </contour>
      <contour>
        <pt x="128" y="-271" on="1"/>
        <pt x="144" y="-234" on="0"/>
        <pt x="160" y="-146" on="0"/>
        <pt x="160" y="-106" on="1"/>
        <pt x="160" y="-99" on="0"/>
        <pt x="160" y="-83" on="0"/>
        <pt x="159" y="-76" on="1"/>
        <pt x="331" y="-74" on="1"/>
        <pt x="320" y="-140" on="0"/>
        <pt x="241" y="-258" on="0"/>
        <pt x="185" y="-295" on="1"/>
      </contour>
    </TTGlyph>
    <TTGlyph name="L" xMin="43" yMin="0" xMax="476" yMax="620">
      <contour>
        <pt x="452" y="0" on="1"/>
        <pt x="43" y="0" on="1"/>
        <pt x="163" y="620" on="1"/>
        <pt x="309" y="620" on="1"/>
        <pt x="213" y="122" on="1"/>
        <pt x="476" y="122" on="1"/>
      </contour>
    </TTGlyph>
    <TTGlyph name="Lacute" xMin="43" yMin="0" xMax="559" yMax="900">
      <contour>
        <pt x="232" y="733" on="1"/>
        <pt x="256" y="746" on="0"/>
        <pt x="319" y="785" on="0"/>
        <pt x="384" y="830" on="0"/>
        <pt x="447" y="878" on="0"/>
        <pt x="472" y="900" on="1"/>
        <pt x="559" y="794" on="1"/>
        <pt x="530" y="775" on="0"/>
        <pt x="450" y="738" on="0"/>
        <pt x="366" y="706" on="0"/>
        <pt x="286" y="681" on="0"/>
        <pt x="256" y="674" on="1"/>
      </contour>
      <contour>
        <pt x="452" y="0" on="1"/>
        <pt x="43" y="0" on="1"/>
        <pt x="163" y="620" on="1"/>
        <pt x="309" y="620" on="1"/>
        <pt x="213" y="122" on="1"/>
        <pt x="476" y="122" on="1"/>
      </contour>
    </TTGlyph>
    <TTGlyph name="Lcaron" xMin="43" yMin="0" xMax="599" yMax="702">
      <contour>
        <pt x="451" y="697" on="1"/>
        <pt x="599" y="702" on="1"/>
        <pt x="586" y="623" on="0"/>
        <pt x="522" y="498" on="0"/>
        <pt x="473" y="440" on="1"/>
        <pt x="415" y="461" on="1"/>
        <pt x="433" y="521" on="0"/>
        <pt x="450" y="637" on="0"/>
      </contour>
      <contour>
        <pt x="452" y="0" on="1"/>
        <pt x="43" y="0" on="1"/>
        <pt x="163" y="620" on="1"/>
        <pt x="309" y="620" on="1"/>
        <pt x="213" y="122" on="1"/>
        <pt x="476" y="122" on="1"/>
      </contour>
    </TTGlyph>
    <TTGlyph name="Lcommaaccent" xMin="43" yMin="-286" xMax="476" yMax="620">
      <contour>
        <pt x="452" y="0" on="1"/>
        <pt x="43" y="0" on="1"/>
        <pt x="163" y="620" on="1"/>
        <pt x="309" y="620" on="1"/>
        <pt x="213" y="122" on="1"/>
        <pt x="476" y="122" on="1"/>
      </contour>
      <contour>
        <pt x="117" y="-262" on="1"/>
        <pt x="133" y="-225" on="0"/>
        <pt x="149" y="-137" on="0"/>
        <pt x="149" y="-97" on="1"/>
        <pt x="149" y="-90" on="0"/>
        <pt x="149" y="-74" on="0"/>
        <pt x="148" y="-67" on="1"/>
        <pt x="320" y="-65" on="1"/>
        <pt x="309" y="-131" on="0"/>
        <pt x="230" y="-249" on="0"/>
        <pt x="174" y="-286" on="1"/>
      </contour>
    </TTGlyph>
    <TTGlyph name="Ldot" xMin="43" yMin="0" xMax="538" yMax="620">
      <contour>
        <pt x="452" y="0" on="1"/>
        <pt x="43" y="0" on="1"/>
        <pt x="163" y="620" on="1"/>
        <pt x="309" y="620" on="1"/>
        <pt x="213" y="122" on="1"/>
        <pt x="476" y="122" on="1"/>
      </contour>
      <contour>
        <pt x="502" y="255" on="1"/>
        <pt x="370" y="255" on="1"/>
        <pt x="407" y="403" on="1"/>
        <pt x="538" y="403" on="1"/>
      </contour>
    </TTGlyph>
    <TTGlyph name="Lslash" xMin="54" yMin="0" xMax="496" yMax="620">
      <contour>
        <pt x="472" y="0" on="1"/>
        <pt x="63" y="0" on="1"/>
        <pt x="114" y="262" on="1"/>
        <pt x="57" y="236" on="1"/>
        <pt x="54" y="330" on="1"/>
        <pt x="134" y="366" on="1"/>
        <pt x="183" y="620" on="1"/>
        <pt x="329" y="620" on="1"/>
        <pt x="294" y="439" on="1"/>
        <pt x="395" y="485" on="1"/>
        <pt x="398" y="391" on="1"/>
        <pt x="274" y="335" on="1"/>
        <pt x="233" y="122" on="1"/>
        <pt x="496" y="122" on="1"/>
      </contour>
    </TTGlyph>
    <TTGlyph name="M" xMin="16" yMin="0" xMax="580" yMax="623">
      <contour>
        <pt x="270" y="623" on="1"/>
        <pt x="294" y="309" on="1"/>
        <pt x="297" y="309" on="1"/>
        <pt x="437" y="620" on="1"/>
        <pt x="580" y="620" on="1"/>
        <pt x="461" y="0" on="1"/>
        <pt x="326" y="0" on="1"/>
        <pt x="398" y="356" on="1"/>
        <pt x="395" y="356" on="1"/>
        <pt x="297" y="139" on="1"/>
        <pt x="228" y="139" on="1"/>
        <pt x="211" y="356" on="1"/>
        <pt x="208" y="356" on="1"/>
        <pt x="148" y="0" on="1"/>
        <pt x="16" y="0" on="1"/>
        <pt x="135" y="617" on="1"/>
      </contour>
    </TTGlyph>
    <TTGlyph name="N" xMin="19" yMin="0" xMax="573" yMax="622">
      <contour>
        <pt x="333" y="0" on="1"/>
        <pt x="223" y="355" on="1"/>
        <pt x="218" y="355" on="1"/>
        <pt x="154" y="0" on="1"/>
        <pt x="19" y="0" on="1"/>
        <pt x="140" y="618" on="1"/>
        <pt x="269" y="622" on="1"/>
        <pt x="369" y="265" on="1"/>
        <pt x="373" y="265" on="1"/>
        <pt x="438" y="620" on="1"/>
        <pt x="573" y="620" on="1"/>
        <pt x="452" y="0" on="1"/>
      </contour>
    </TTGlyph>
    <TTGlyph name="Nacute" xMin="19" yMin="0" xMax="573" yMax="902">
      <contour>
        <pt x="221" y="735" on="1"/>
        <pt x="245" y="748" on="0"/>
        <pt x="308" y="787" on="0"/>
        <pt x="373" y="832" on="0"/>
        <pt x="436" y="880" on="0"/>
        <pt x="461" y="902" on="1"/>
        <pt x="548" y="796" on="1"/>
        <pt x="519" y="777" on="0"/>
        <pt x="439" y="740" on="0"/>
        <pt x="355" y="708" on="0"/>
        <pt x="275" y="683" on="0"/>
        <pt x="245" y="676" on="1"/>
      </contour>
      <contour>
        <pt x="333" y="0" on="1"/>
        <pt x="223" y="355" on="1"/>
        <pt x="218" y="355" on="1"/>
        <pt x="154" y="0" on="1"/>
        <pt x="19" y="0" on="1"/>
        <pt x="140" y="618" on="1"/>
        <pt x="269" y="622" on="1"/>
        <pt x="369" y="265" on="1"/>
        <pt x="373" y="265" on="1"/>
        <pt x="438" y="620" on="1"/>
        <pt x="573" y="620" on="1"/>
        <pt x="452" y="0" on="1"/>
      </contour>
    </TTGlyph>
    <TTGlyph name="Ncaron" xMin="19" yMin="0" xMax="590" yMax="888">
      <contour>
        <pt x="367" y="669" on="1"/>
        <pt x="358" y="669" on="1"/>
        <pt x="198" y="817" on="1"/>
        <pt x="292" y="888" on="1"/>
        <pt x="387" y="793" on="1"/>
        <pt x="529" y="884" on="1"/>
        <pt x="590" y="815" on="1"/>
      </contour>
      <contour>
        <pt x="333" y="0" on="1"/>
        <pt x="223" y="355" on="1"/>
        <pt x="218" y="355" on="1"/>
        <pt x="154" y="0" on="1"/>
        <pt x="19" y="0" on="1"/>
        <pt x="140" y="618" on="1"/>
        <pt x="269" y="622" on="1"/>
        <pt x="369" y="265" on="1"/>
        <pt x="373" y="265" on="1"/>
        <pt x="438" y="620" on="1"/>
        <pt x="573" y="620" on="1"/>
        <pt x="452" y="0" on="1"/>
      </contour>
    </TTGlyph>
    <TTGlyph name="Ncommaaccent" xMin="19" yMin="-286" xMax="573" yMax="622">
      <contour>
        <pt x="333" y="0" on="1"/>
        <pt x="223" y="355" on="1"/>
        <pt x="218" y="355" on="1"/>
        <pt x="154" y="0" on="1"/>
        <pt x="19" y="0" on="1"/>
        <pt x="140" y="618" on="1"/>
        <pt x="269" y="622" on="1"/>
        <pt x="369" y="265" on="1"/>
        <pt x="373" y="265" on="1"/>
        <pt x="438" y="620" on="1"/>
        <pt x="573" y="620" on="1"/>
        <pt x="452" y="0" on="1"/>
      </contour>
      <contour>
        <pt x="106" y="-262" on="1"/>
        <pt x="122" y="-225" on="0"/>
        <pt x="138" y="-137" on="0"/>
        <pt x="138" y="-97" on="1"/>
        <pt x="138" y="-90" on="0"/>
        <pt x="138" y="-74" on="0"/>
        <pt x="137" y="-67" on="1"/>
        <pt x="309" y="-65" on="1"/>
        <pt x="298" y="-131" on="0"/>
        <pt x="219" y="-249" on="0"/>
        <pt x="163" y="-286" on="1"/>
      </contour>
    </TTGlyph>
    <TTGlyph name="Ntilde" xMin="19" yMin="0" xMax="608" yMax="869">
      <contour>
        <pt x="469" y="788" on="1"/>
        <pt x="481" y="788" on="0"/>
        <pt x="517" y="824" on="0"/>
        <pt x="542" y="861" on="1"/>
        <pt x="608" y="823" on="1"/>
        <pt x="572" y="764" on="0"/>
        <pt x="485" y="684" on="0"/>
        <pt x="443" y="684" on="1"/>
        <pt x="419" y="684" on="0"/>
        <pt x="377" y="709" on="0"/>
        <pt x="343" y="740" on="0"/>
        <pt x="315" y="765" on="0"/>
        <pt x="304" y="765" on="1"/>
        <pt x="292" y="765" on="0"/>
        <pt x="257" y="728" on="0"/>
        <pt x="232" y="692" on="1"/>
        <pt x="165" y="730" on="1"/>
        <pt x="201" y="789" on="0"/>
        <pt x="289" y="869" on="0"/>
        <pt x="331" y="869" on="1"/>
        <pt x="355" y="869" on="0"/>
        <pt x="396" y="844" on="0"/>
        <pt x="430" y="813" on="0"/>
        <pt x="458" y="788" on="0"/>
      </contour>
      <contour>
        <pt x="333" y="0" on="1"/>
        <pt x="223" y="355" on="1"/>
        <pt x="218" y="355" on="1"/>
        <pt x="154" y="0" on="1"/>
        <pt x="19" y="0" on="1"/>
        <pt x="140" y="618" on="1"/>
        <pt x="269" y="622" on="1"/>
        <pt x="369" y="265" on="1"/>
        <pt x="373" y="265" on="1"/>
        <pt x="438" y="620" on="1"/>
        <pt x="573" y="620" on="1"/>
        <pt x="452" y="0" on="1"/>
      </contour>
    </TTGlyph>
    <TTGlyph name="O" xMin="43" yMin="-13" xMax="544" yMax="632">
      <contour>
        <pt x="342" y="632" on="1"/>
        <pt x="385" y="632" on="0"/>
        <pt x="459" y="605" on="0"/>
        <pt x="513" y="548" on="0"/>
        <pt x="544" y="458" on="0"/>
        <pt x="544" y="395" on="1"/>
        <pt x="544" y="314" on="0"/>
        <pt x="500" y="166" on="0"/>
        <pt x="421" y="54" on="0"/>
        <pt x="311" y="-13" on="0"/>
        <pt x="245" y="-13" on="1"/>
        <pt x="202" y="-13" on="0"/>
        <pt x="128" y="14" on="0"/>
        <pt x="74" y="71" on="0"/>
        <pt x="43" y="161" on="0"/>
        <pt x="43" y="224" on="1"/>
        <pt x="43" y="305" on="0"/>
        <pt x="87" y="453" on="0"/>
        <pt x="166" y="565" on="0"/>
        <pt x="276" y="632" on="0"/>
      </contour>
      <contour>
        <pt x="260" y="110" on="1"/>
        <pt x="290" y="110" on="0"/>
        <pt x="340" y="160" on="0"/>
        <pt x="374" y="239" on="0"/>
        <pt x="393" y="340" on="0"/>
        <pt x="393" y="390" on="1"/>
        <pt x="393" y="453" on="0"/>
        <pt x="357" y="509" on="0"/>
        <pt x="327" y="509" on="1"/>
        <pt x="297" y="509" on="0"/>
        <pt x="247" y="459" on="0"/>
        <pt x="213" y="380" on="0"/>
        <pt x="194" y="279" on="0"/>
        <pt x="194" y="229" on="1"/>
        <pt x="194" y="166" on="0"/>
        <pt x="230" y="110" on="0"/>
      </contour>
    </TTGlyph>
    <TTGlyph name="OE" xMin="33" yMin="0" xMax="602" yMax="620">
      <contour>
        <pt x="177" y="221" on="1"/>
        <pt x="177" y="181" on="0"/>
        <pt x="201" y="116" on="0"/>
        <pt x="238" y="116" on="1"/>
        <pt x="312" y="504" on="1"/>
        <pt x="277" y="502" on="0"/>
        <pt x="226" y="438" on="0"/>
        <pt x="193" y="351" on="0"/>
        <pt x="177" y="255" on="0"/>
      </contour>
      <contour>
        <pt x="510" y="116" on="1"/>
        <pt x="480" y="0" on="1"/>
        <pt x="259" y="0" on="1"/>
        <pt x="155" y="0" on="0"/>
        <pt x="33" y="98" on="0"/>
        <pt x="33" y="217" on="1"/>
        <pt x="33" y="282" on="0"/>
        <pt x="69" y="425" on="0"/>
        <pt x="152" y="543" on="0"/>
        <pt x="291" y="620" on="0"/>
        <pt x="393" y="620" on="1"/>
        <pt x="602" y="620" on="1"/>
        <pt x="580" y="504" on="1"/>
        <pt x="433" y="504" on="1"/>
        <pt x="405" y="359" on="1"/>
        <pt x="520" y="359" on="1"/>
        <pt x="501" y="263" on="1"/>
        <pt x="387" y="263" on="1"/>
        <pt x="358" y="116" on="1"/>
      </contour>
    </TTGlyph>
    <TTGlyph name="Oacute" xMin="43" yMin="-13" xMax="548" yMax="914">
      <contour>
        <pt x="221" y="747" on="1"/>
        <pt x="245" y="760" on="0"/>
        <pt x="308" y="799" on="0"/>
        <pt x="373" y="844" on="0"/>
        <pt x="436" y="892" on="0"/>
        <pt x="461" y="914" on="1"/>
        <pt x="548" y="808" on="1"/>
        <pt x="519" y="789" on="0"/>
        <pt x="439" y="752" on="0"/>
        <pt x="355" y="720" on="0"/>
        <pt x="275" y="695" on="0"/>
        <pt x="245" y="688" on="1"/>
      </contour>
      <contour>
        <pt x="342" y="632" on="1"/>
        <pt x="385" y="632" on="0"/>
        <pt x="459" y="605" on="0"/>
        <pt x="513" y="548" on="0"/>
        <pt x="544" y="458" on="0"/>
        <pt x="544" y="395" on="1"/>
        <pt x="544" y="314" on="0"/>
        <pt x="500" y="166" on="0"/>
        <pt x="421" y="54" on="0"/>
        <pt x="311" y="-13" on="0"/>
        <pt x="245" y="-13" on="1"/>
        <pt x="202" y="-13" on="0"/>
        <pt x="128" y="14" on="0"/>
        <pt x="74" y="71" on="0"/>
        <pt x="43" y="161" on="0"/>
        <pt x="43" y="224" on="1"/>
        <pt x="43" y="305" on="0"/>
        <pt x="87" y="453" on="0"/>
        <pt x="166" y="565" on="0"/>
        <pt x="276" y="632" on="0"/>
      </contour>
      <contour>
        <pt x="260" y="110" on="1"/>
        <pt x="290" y="110" on="0"/>
        <pt x="340" y="160" on="0"/>
        <pt x="374" y="239" on="0"/>
        <pt x="393" y="340" on="0"/>
        <pt x="393" y="390" on="1"/>
        <pt x="393" y="453" on="0"/>
        <pt x="357" y="509" on="0"/>
        <pt x="327" y="509" on="1"/>
        <pt x="297" y="509" on="0"/>
        <pt x="247" y="459" on="0"/>
        <pt x="213" y="380" on="0"/>
        <pt x="194" y="279" on="0"/>
        <pt x="194" y="229" on="1"/>
        <pt x="194" y="166" on="0"/>
        <pt x="230" y="110" on="0"/>
      </contour>
    </TTGlyph>
    <TTGlyph name="Obreve" xMin="43" yMin="-13" xMax="604" yMax="894">
      <contour>
        <pt x="525" y="887" on="1"/>
        <pt x="604" y="840" on="1"/>
        <pt x="548" y="770" on="0"/>
        <pt x="425" y="691" on="0"/>
        <pt x="367" y="691" on="1"/>
        <pt x="310" y="691" on="0"/>
        <pt x="217" y="767" on="0"/>
        <pt x="189" y="839" on="1"/>
        <pt x="291" y="894" on="1"/>
        <pt x="313" y="845" on="0"/>
        <pt x="362" y="798" on="0"/>
        <pt x="396" y="798" on="1"/>
        <pt x="427" y="798" on="0"/>
        <pt x="488" y="845" on="0"/>
      </contour>
      <contour>
        <pt x="342" y="632" on="1"/>
        <pt x="385" y="632" on="0"/>
        <pt x="459" y="605" on="0"/>
        <pt x="513" y="548" on="0"/>
        <pt x="544" y="458" on="0"/>
        <pt x="544" y="395" on="1"/>
        <pt x="544" y="314" on="0"/>
        <pt x="500" y="166" on="0"/>
        <pt x="421" y="54" on="0"/>
        <pt x="311" y="-13" on="0"/>
        <pt x="245" y="-13" on="1"/>
        <pt x="202" y="-13" on="0"/>
        <pt x="128" y="14" on="0"/>
        <pt x="74" y="71" on="0"/>
        <pt x="43" y="161" on="0"/>
        <pt x="43" y="224" on="1"/>
        <pt x="43" y="305" on="0"/>
        <pt x="87" y="453" on="0"/>
        <pt x="166" y="565" on="0"/>
        <pt x="276" y="632" on="0"/>
      </contour>
      <contour>
        <pt x="260" y="110" on="1"/>
        <pt x="290" y="110" on="0"/>
        <pt x="340" y="160" on="0"/>
        <pt x="374" y="239" on="0"/>
        <pt x="393" y="340" on="0"/>
        <pt x="393" y="390" on="1"/>
        <pt x="393" y="453" on="0"/>
        <pt x="357" y="509" on="0"/>
        <pt x="327" y="509" on="1"/>
        <pt x="297" y="509" on="0"/>
        <pt x="247" y="459" on="0"/>
        <pt x="213" y="380" on="0"/>
        <pt x="194" y="279" on="0"/>
        <pt x="194" y="229" on="1"/>
        <pt x="194" y="166" on="0"/>
        <pt x="230" y="110" on="0"/>
      </contour>
    </TTGlyph>
    <TTGlyph name="Ocircumflex" xMin="43" yMin="-13" xMax="576" yMax="903">
      <contour>
        <pt x="482" y="684" on="1"/>
        <pt x="387" y="780" on="1"/>
        <pt x="245" y="688" on="1"/>
        <pt x="184" y="757" on="1"/>
        <pt x="407" y="903" on="1"/>
        <pt x="416" y="903" on="1"/>
        <pt x="576" y="755" on="1"/>
      </contour>
      <contour>
        <pt x="342" y="632" on="1"/>
        <pt x="385" y="632" on="0"/>
        <pt x="459" y="605" on="0"/>
        <pt x="513" y="548" on="0"/>
        <pt x="544" y="458" on="0"/>
        <pt x="544" y="395" on="1"/>
        <pt x="544" y="314" on="0"/>
        <pt x="500" y="166" on="0"/>
        <pt x="421" y="54" on="0"/>
        <pt x="311" y="-13" on="0"/>
        <pt x="245" y="-13" on="1"/>
        <pt x="202" y="-13" on="0"/>
        <pt x="128" y="14" on="0"/>
        <pt x="74" y="71" on="0"/>
        <pt x="43" y="161" on="0"/>
        <pt x="43" y="224" on="1"/>
        <pt x="43" y="305" on="0"/>
        <pt x="87" y="453" on="0"/>
        <pt x="166" y="565" on="0"/>
        <pt x="276" y="632" on="0"/>
      </contour>
      <contour>
        <pt x="260" y="110" on="1"/>
        <pt x="290" y="110" on="0"/>
        <pt x="340" y="160" on="0"/>
        <pt x="374" y="239" on="0"/>
        <pt x="393" y="340" on="0"/>
        <pt x="393" y="390" on="1"/>
        <pt x="393" y="453" on="0"/>
        <pt x="357" y="509" on="0"/>
        <pt x="327" y="509" on="1"/>
        <pt x="297" y="509" on="0"/>
        <pt x="247" y="459" on="0"/>
        <pt x="213" y="380" on="0"/>
        <pt x="194" y="279" on="0"/>
        <pt x="194" y="229" on="1"/>
        <pt x="194" y="166" on="0"/>
        <pt x="230" y="110" on="0"/>
      </contour>
    </TTGlyph>
    <TTGlyph name="Odieresis" xMin="43" yMin="-13" xMax="594" yMax="847">
      <contour>
        <pt x="549" y="708" on="1"/>
        <pt x="400" y="707" on="1"/>
        <pt x="434" y="844" on="1"/>
        <pt x="594" y="847" on="1"/>
      </contour>
      <contour>
        <pt x="324" y="707" on="1"/>
        <pt x="174" y="705" on="1"/>
        <pt x="209" y="843" on="1"/>
        <pt x="368" y="845" on="1"/>
      </contour>
      <contour>
        <pt x="342" y="632" on="1"/>
        <pt x="385" y="632" on="0"/>
        <pt x="459" y="605" on="0"/>
        <pt x="513" y="548" on="0"/>
        <pt x="544" y="458" on="0"/>
        <pt x="544" y="395" on="1"/>
        <pt x="544" y="314" on="0"/>
        <pt x="500" y="166" on="0"/>
        <pt x="421" y="54" on="0"/>
        <pt x="311" y="-13" on="0"/>
        <pt x="245" y="-13" on="1"/>
        <pt x="202" y="-13" on="0"/>
        <pt x="128" y="14" on="0"/>
        <pt x="74" y="71" on="0"/>
        <pt x="43" y="161" on="0"/>
        <pt x="43" y="224" on="1"/>
        <pt x="43" y="305" on="0"/>
        <pt x="87" y="453" on="0"/>
        <pt x="166" y="565" on="0"/>
        <pt x="276" y="632" on="0"/>
      </contour>
      <contour>
        <pt x="260" y="110" on="1"/>
        <pt x="290" y="110" on="0"/>
        <pt x="340" y="160" on="0"/>
        <pt x="374" y="239" on="0"/>
        <pt x="393" y="340" on="0"/>
        <pt x="393" y="390" on="1"/>
        <pt x="393" y="453" on="0"/>
        <pt x="357" y="509" on="0"/>
        <pt x="327" y="509" on="1"/>
        <pt x="297" y="509" on="0"/>
        <pt x="247" y="459" on="0"/>
        <pt x="213" y="380" on="0"/>
        <pt x="194" y="279" on="0"/>
        <pt x="194" y="229" on="1"/>
        <pt x="194" y="166" on="0"/>
        <pt x="230" y="110" on="0"/>
      </contour>
    </TTGlyph>
    <TTGlyph name="Ograve" xMin="43" yMin="-13" xMax="544" yMax="917">
      <contour>
        <pt x="540" y="742" on="1"/>
        <pt x="512" y="685" on="1"/>
        <pt x="483" y="693" on="0"/>
        <pt x="409" y="721" on="0"/>
        <pt x="332" y="755" on="0"/>
        <pt x="257" y="792" on="0"/>
        <pt x="228" y="808" on="1"/>
        <pt x="307" y="917" on="1"/>
        <pt x="332" y="895" on="0"/>
        <pt x="393" y="846" on="0"/>
        <pt x="455" y="799" on="0"/>
        <pt x="515" y="757" on="0"/>
      </contour>
      <contour>
        <pt x="342" y="632" on="1"/>
        <pt x="385" y="632" on="0"/>
        <pt x="459" y="605" on="0"/>
        <pt x="513" y="548" on="0"/>
        <pt x="544" y="458" on="0"/>
        <pt x="544" y="395" on="1"/>
        <pt x="544" y="314" on="0"/>
        <pt x="500" y="166" on="0"/>
        <pt x="421" y="54" on="0"/>
        <pt x="311" y="-13" on="0"/>
        <pt x="245" y="-13" on="1"/>
        <pt x="202" y="-13" on="0"/>
        <pt x="128" y="14" on="0"/>
        <pt x="74" y="71" on="0"/>
        <pt x="43" y="161" on="0"/>
        <pt x="43" y="224" on="1"/>
        <pt x="43" y="305" on="0"/>
        <pt x="87" y="453" on="0"/>
        <pt x="166" y="565" on="0"/>
        <pt x="276" y="632" on="0"/>
      </contour>
      <contour>
        <pt x="260" y="110" on="1"/>
        <pt x="290" y="110" on="0"/>
        <pt x="340" y="160" on="0"/>
        <pt x="374" y="239" on="0"/>
        <pt x="393" y="340" on="0"/>
        <pt x="393" y="390" on="1"/>
        <pt x="393" y="453" on="0"/>
        <pt x="357" y="509" on="0"/>
        <pt x="327" y="509" on="1"/>
        <pt x="297" y="509" on="0"/>
        <pt x="247" y="459" on="0"/>
        <pt x="213" y="380" on="0"/>
        <pt x="194" y="279" on="0"/>
        <pt x="194" y="229" on="1"/>
        <pt x="194" y="166" on="0"/>
        <pt x="230" y="110" on="0"/>
      </contour>
    </TTGlyph>
    <TTGlyph name="Ohungarumlaut" xMin="43" yMin="-13" xMax="666" yMax="938">
      <contour>
        <pt x="256" y="692" on="1"/>
        <pt x="196" y="738" on="1"/>
        <pt x="212" y="759" on="0"/>
        <pt x="248" y="811" on="0"/>
        <pt x="283" y="864" on="0"/>
        <pt x="315" y="916" on="0"/>
        <pt x="326" y="938" on="1"/>
        <pt x="452" y="871" on="1"/>
        <pt x="417" y="831" on="0"/>
        <pt x="306" y="728" on="0"/>
      </contour>
      <contour>
        <pt x="473" y="691" on="1"/>
        <pt x="412" y="737" on="1"/>
        <pt x="444" y="778" on="0"/>
        <pt x="514" y="885" on="0"/>
        <pt x="536" y="928" on="1"/>
        <pt x="666" y="869" on="1"/>
        <pt x="631" y="828" on="0"/>
        <pt x="523" y="727" on="0"/>
      </contour>
      <contour>
        <pt x="342" y="632" on="1"/>
        <pt x="385" y="632" on="0"/>
        <pt x="459" y="605" on="0"/>
        <pt x="513" y="548" on="0"/>
        <pt x="544" y="458" on="0"/>
        <pt x="544" y="395" on="1"/>
        <pt x="544" y="314" on="0"/>
        <pt x="500" y="166" on="0"/>
        <pt x="421" y="54" on="0"/>
        <pt x="311" y="-13" on="0"/>
        <pt x="245" y="-13" on="1"/>
        <pt x="202" y="-13" on="0"/>
        <pt x="128" y="14" on="0"/>
        <pt x="74" y="71" on="0"/>
        <pt x="43" y="161" on="0"/>
        <pt x="43" y="224" on="1"/>
        <pt x="43" y="305" on="0"/>
        <pt x="87" y="453" on="0"/>
        <pt x="166" y="565" on="0"/>
        <pt x="276" y="632" on="0"/>
      </contour>
      <contour>
        <pt x="260" y="110" on="1"/>
        <pt x="290" y="110" on="0"/>
        <pt x="340" y="160" on="0"/>
        <pt x="374" y="239" on="0"/>
        <pt x="393" y="340" on="0"/>
        <pt x="393" y="390" on="1"/>
        <pt x="393" y="453" on="0"/>
        <pt x="357" y="509" on="0"/>
        <pt x="327" y="509" on="1"/>
        <pt x="297" y="509" on="0"/>
        <pt x="247" y="459" on="0"/>
        <pt x="213" y="380" on="0"/>
        <pt x="194" y="279" on="0"/>
        <pt x="194" y="229" on="1"/>
        <pt x="194" y="166" on="0"/>
        <pt x="230" y="110" on="0"/>
      </contour>
    </TTGlyph>
    <TTGlyph name="Omacron" xMin="43" yMin="-13" xMax="576" yMax="834">
      <contour>
        <pt x="576" y="834" on="1"/>
        <pt x="554" y="719" on="1"/>
        <pt x="192" y="719" on="1"/>
        <pt x="215" y="834" on="1"/>
      </contour>
      <contour>
        <pt x="342" y="632" on="1"/>
        <pt x="385" y="632" on="0"/>
        <pt x="459" y="605" on="0"/>
        <pt x="513" y="548" on="0"/>
        <pt x="544" y="458" on="0"/>
        <pt x="544" y="395" on="1"/>
        <pt x="544" y="314" on="0"/>
        <pt x="500" y="166" on="0"/>
        <pt x="421" y="54" on="0"/>
        <pt x="311" y="-13" on="0"/>
        <pt x="245" y="-13" on="1"/>
        <pt x="202" y="-13" on="0"/>
        <pt x="128" y="14" on="0"/>
        <pt x="74" y="71" on="0"/>
        <pt x="43" y="161" on="0"/>
        <pt x="43" y="224" on="1"/>
        <pt x="43" y="305" on="0"/>
        <pt x="87" y="453" on="0"/>
        <pt x="166" y="565" on="0"/>
        <pt x="276" y="632" on="0"/>
      </contour>
      <contour>
        <pt x="260" y="110" on="1"/>
        <pt x="290" y="110" on="0"/>
        <pt x="340" y="160" on="0"/>
        <pt x="374" y="239" on="0"/>
        <pt x="393" y="340" on="0"/>
        <pt x="393" y="390" on="1"/>
        <pt x="393" y="453" on="0"/>
        <pt x="357" y="509" on="0"/>
        <pt x="327" y="509" on="1"/>
        <pt x="297" y="509" on="0"/>
        <pt x="247" y="459" on="0"/>
        <pt x="213" y="380" on="0"/>
        <pt x="194" y="279" on="0"/>
        <pt x="194" y="229" on="1"/>
        <pt x="194" y="166" on="0"/>
        <pt x="230" y="110" on="0"/>
      </contour>
    </TTGlyph>
    <TTGlyph name="Omega" xMin="0" yMin="0" xMax="529" yMax="635">
      <contour>
        <pt x="204" y="8" on="1"/>
        <pt x="200" y="0" on="1"/>
        <pt x="0" y="0" on="1"/>
        <pt x="22" y="113" on="1"/>
        <pt x="91" y="113" on="1"/>
        <pt x="84" y="150" on="0"/>
        <pt x="76" y="227" on="0"/>
        <pt x="76" y="273" on="1"/>
        <pt x="76" y="345" on="0"/>
        <pt x="106" y="477" on="0"/>
        <pt x="169" y="576" on="0"/>
        <pt x="270" y="635" on="0"/>
        <pt x="341" y="635" on="1"/>
        <pt x="432" y="635" on="0"/>
        <pt x="529" y="526" on="0"/>
        <pt x="529" y="433" on="1"/>
        <pt x="529" y="361" on="0"/>
        <pt x="473" y="206" on="0"/>
        <pt x="419" y="113" on="1"/>
        <pt x="485" y="113" on="1"/>
        <pt x="463" y="0" on="1"/>
        <pt x="263" y="0" on="1"/>
        <pt x="262" y="8" on="1"/>
        <pt x="327" y="154" on="0"/>
        <pt x="387" y="344" on="0"/>
        <pt x="387" y="413" on="1"/>
        <pt x="387" y="462" on="0"/>
        <pt x="351" y="513" on="0"/>
        <pt x="316" y="513" on="1"/>
        <pt x="284" y="513" on="0"/>
        <pt x="239" y="465" on="0"/>
        <pt x="211" y="387" on="0"/>
        <pt x="198" y="283" on="0"/>
        <pt x="198" y="228" on="1"/>
        <pt x="198" y="173" on="0"/>
        <pt x="199" y="102" on="0"/>
        <pt x="201" y="56" on="0"/>
        <pt x="203" y="24" on="0"/>
      </contour>
    </TTGlyph>
    <TTGlyph name="Oslash" xMin="13" yMin="-51" xMax="571" yMax="671">
      <contour>
        <pt x="322" y="514" on="1"/>
        <pt x="293" y="514" on="0"/>
        <pt x="245" y="466" on="0"/>
        <pt x="213" y="388" on="0"/>
        <pt x="195" y="287" on="0"/>
        <pt x="195" y="234" on="1"/>
        <pt x="373" y="485" on="1"/>
        <pt x="364" y="500" on="0"/>
        <pt x="338" y="514" on="0"/>
      </contour>
      <contour>
        <pt x="265" y="106" on="1"/>
        <pt x="294" y="106" on="0"/>
        <pt x="342" y="154" on="0"/>
        <pt x="374" y="233" on="0"/>
        <pt x="392" y="336" on="0"/>
        <pt x="392" y="390" on="1"/>
        <pt x="392" y="391" on="0"/>
        <pt x="392" y="392" on="0"/>
        <pt x="392" y="391" on="1"/>
        <pt x="212" y="138" on="1"/>
        <pt x="221" y="122" on="0"/>
        <pt x="248" y="106" on="0"/>
      </contour>
      <contour>
        <pt x="249" y="-14" on="1"/>
        <pt x="218" y="-14" on="0"/>
        <pt x="162" y="0" on="0"/>
        <pt x="140" y="14" on="1"/>
        <pt x="93" y="-51" on="1"/>
        <pt x="13" y="0" on="1"/>
        <pt x="75" y="87" on="1"/>
        <pt x="61" y="115" on="0"/>
        <pt x="46" y="188" on="0"/>
        <pt x="46" y="234" on="1"/>
        <pt x="46" y="316" on="0"/>
        <pt x="90" y="462" on="0"/>
        <pt x="167" y="570" on="0"/>
        <pt x="275" y="634" on="0"/>
        <pt x="338" y="634" on="1"/>
        <pt x="369" y="634" on="0"/>
        <pt x="423" y="620" on="0"/>
        <pt x="446" y="607" on="1"/>
        <pt x="490" y="671" on="1"/>
        <pt x="571" y="620" on="1"/>
        <pt x="511" y="535" on="1"/>
        <pt x="525" y="507" on="0"/>
        <pt x="541" y="432" on="0"/>
        <pt x="541" y="386" on="1"/>
        <pt x="541" y="304" on="0"/>
        <pt x="497" y="158" on="0"/>
        <pt x="420" y="50" on="0"/>
        <pt x="312" y="-14" on="0"/>
      </contour>
    </TTGlyph>
    <TTGlyph name="Oslashacute" xMin="13" yMin="-51" xMax="571" yMax="914">
      <contour>
        <pt x="221" y="747" on="1"/>
        <pt x="245" y="760" on="0"/>
        <pt x="308" y="799" on="0"/>
        <pt x="373" y="844" on="0"/>
        <pt x="436" y="892" on="0"/>
        <pt x="461" y="914" on="1"/>
        <pt x="548" y="808" on="1"/>
        <pt x="519" y="789" on="0"/>
        <pt x="439" y="752" on="0"/>
        <pt x="355" y="720" on="0"/>
        <pt x="275" y="695" on="0"/>
        <pt x="245" y="688" on="1"/>
      </contour>
      <contour>
        <pt x="322" y="514" on="1"/>
        <pt x="293" y="514" on="0"/>
        <pt x="245" y="466" on="0"/>
        <pt x="213" y="388" on="0"/>
        <pt x="195" y="287" on="0"/>
        <pt x="195" y="234" on="1"/>
        <pt x="373" y="485" on="1"/>
        <pt x="364" y="500" on="0"/>
        <pt x="338" y="514" on="0"/>
      </contour>
      <contour>
        <pt x="265" y="106" on="1"/>
        <pt x="294" y="106" on="0"/>
        <pt x="342" y="154" on="0"/>
        <pt x="374" y="233" on="0"/>
        <pt x="392" y="336" on="0"/>
        <pt x="392" y="390" on="1"/>
        <pt x="392" y="391" on="0"/>
        <pt x="392" y="392" on="0"/>
        <pt x="392" y="391" on="1"/>
        <pt x="212" y="138" on="1"/>
        <pt x="221" y="122" on="0"/>
        <pt x="248" y="106" on="0"/>
      </contour>
      <contour>
        <pt x="249" y="-14" on="1"/>
        <pt x="218" y="-14" on="0"/>
        <pt x="162" y="0" on="0"/>
        <pt x="140" y="14" on="1"/>
        <pt x="93" y="-51" on="1"/>
        <pt x="13" y="0" on="1"/>
        <pt x="75" y="87" on="1"/>
        <pt x="61" y="115" on="0"/>
        <pt x="46" y="188" on="0"/>
        <pt x="46" y="234" on="1"/>
        <pt x="46" y="316" on="0"/>
        <pt x="90" y="462" on="0"/>
        <pt x="167" y="570" on="0"/>
        <pt x="275" y="634" on="0"/>
        <pt x="338" y="634" on="1"/>
        <pt x="369" y="634" on="0"/>
        <pt x="423" y="620" on="0"/>
        <pt x="446" y="607" on="1"/>
        <pt x="490" y="671" on="1"/>
        <pt x="571" y="620" on="1"/>
        <pt x="511" y="535" on="1"/>
        <pt x="525" y="507" on="0"/>
        <pt x="541" y="432" on="0"/>
        <pt x="541" y="386" on="1"/>
        <pt x="541" y="304" on="0"/>
        <pt x="497" y="158" on="0"/>
        <pt x="420" y="50" on="0"/>
        <pt x="312" y="-14" on="0"/>
      </contour>
    </TTGlyph>
    <TTGlyph name="Otilde" xMin="43" yMin="-13" xMax="608" yMax="881">
      <contour>
        <pt x="469" y="800" on="1"/>
        <pt x="481" y="800" on="0"/>
        <pt x="517" y="836" on="0"/>
        <pt x="542" y="873" on="1"/>
        <pt x="608" y="835" on="1"/>
        <pt x="572" y="776" on="0"/>
        <pt x="485" y="696" on="0"/>
        <pt x="443" y="696" on="1"/>
        <pt x="419" y="696" on="0"/>
        <pt x="377" y="721" on="0"/>
        <pt x="343" y="752" on="0"/>
        <pt x="315" y="777" on="0"/>
        <pt x="304" y="777" on="1"/>
        <pt x="292" y="777" on="0"/>
        <pt x="257" y="740" on="0"/>
        <pt x="232" y="704" on="1"/>
        <pt x="165" y="742" on="1"/>
        <pt x="201" y="801" on="0"/>
        <pt x="289" y="881" on="0"/>
        <pt x="331" y="881" on="1"/>
        <pt x="355" y="881" on="0"/>
        <pt x="396" y="856" on="0"/>
        <pt x="430" y="825" on="0"/>
        <pt x="458" y="800" on="0"/>
      </contour>
      <contour>
        <pt x="342" y="632" on="1"/>
        <pt x="385" y="632" on="0"/>
        <pt x="459" y="605" on="0"/>
        <pt x="513" y="548" on="0"/>
        <pt x="544" y="458" on="0"/>
        <pt x="544" y="395" on="1"/>
        <pt x="544" y="314" on="0"/>
        <pt x="500" y="166" on="0"/>
        <pt x="421" y="54" on="0"/>
        <pt x="311" y="-13" on="0"/>
        <pt x="245" y="-13" on="1"/>
        <pt x="202" y="-13" on="0"/>
        <pt x="128" y="14" on="0"/>
        <pt x="74" y="71" on="0"/>
        <pt x="43" y="161" on="0"/>
        <pt x="43" y="224" on="1"/>
        <pt x="43" y="305" on="0"/>
        <pt x="87" y="453" on="0"/>
        <pt x="166" y="565" on="0"/>
        <pt x="276" y="632" on="0"/>
      </contour>
      <contour>
        <pt x="260" y="110" on="1"/>
        <pt x="290" y="110" on="0"/>
        <pt x="340" y="160" on="0"/>
        <pt x="374" y="239" on="0"/>
        <pt x="393" y="340" on="0"/>
        <pt x="393" y="390" on="1"/>
        <pt x="393" y="453" on="0"/>
        <pt x="357" y="509" on="0"/>
        <pt x="327" y="509" on="1"/>
        <pt x="297" y="509" on="0"/>
        <pt x="247" y="459" on="0"/>
        <pt x="213" y="380" on="0"/>
        <pt x="194" y="279" on="0"/>
        <pt x="194" y="229" on="1"/>
        <pt x="194" y="166" on="0"/>
        <pt x="230" y="110" on="0"/>
      </contour>
    </TTGlyph>
    <TTGlyph name="P" xMin="30" yMin="0" xMax="549" yMax="627">
      <contour>
        <pt x="173" y="0" on="1"/>
        <pt x="30" y="0" on="1"/>
        <pt x="149" y="616" on="1"/>
        <pt x="187" y="622" on="0"/>
        <pt x="256" y="627" on="0"/>
        <pt x="286" y="627" on="1"/>
        <pt x="425" y="627" on="0"/>
        <pt x="549" y="525" on="0"/>
        <pt x="549" y="447" on="1"/>
        <pt x="549" y="337" on="0"/>
        <pt x="365" y="190" on="0"/>
        <pt x="205" y="169" on="1"/>
      </contour>
      <contour>
        <pt x="263" y="292" on="1"/>
        <pt x="334" y="292" on="0"/>
        <pt x="409" y="368" on="0"/>
        <pt x="409" y="422" on="1"/>
        <pt x="409" y="463" on="0"/>
        <pt x="355" y="511" on="0"/>
        <pt x="306" y="511" on="1"/>
        <pt x="298" y="511" on="0"/>
        <pt x="280" y="509" on="0"/>
        <pt x="271" y="508" on="1"/>
        <pt x="230" y="294" on="1"/>
        <pt x="239" y="293" on="0"/>
        <pt x="256" y="292" on="0"/>
      </contour>
    </TTGlyph>
    <TTGlyph name="Q" xMin="57" yMin="-158" xMax="543" yMax="634">
      <contour>
        <pt x="403" y="-158" on="1"/>
        <pt x="91" y="-26" on="1"/>
        <pt x="126" y="79" on="1"/>
        <pt x="188" y="101" on="0"/>
        <pt x="288" y="175" on="0"/>
        <pt x="357" y="265" on="0"/>
        <pt x="394" y="367" on="0"/>
        <pt x="394" y="416" on="1"/>
        <pt x="394" y="468" on="0"/>
        <pt x="353" y="511" on="0"/>
        <pt x="320" y="511" on="1"/>
        <pt x="265" y="511" on="0"/>
        <pt x="201" y="393" on="0"/>
        <pt x="201" y="294" on="1"/>
        <pt x="201" y="270" on="0"/>
        <pt x="205" y="219" on="0"/>
        <pt x="209" y="192" on="1"/>
        <pt x="84" y="147" on="1"/>
        <pt x="71" y="184" on="0"/>
        <pt x="57" y="262" on="0"/>
        <pt x="57" y="299" on="1"/>
        <pt x="57" y="364" on="0"/>
        <pt x="95" y="486" on="0"/>
        <pt x="167" y="578" on="0"/>
        <pt x="271" y="634" on="0"/>
        <pt x="337" y="634" on="1"/>
        <pt x="441" y="634" on="0"/>
        <pt x="543" y="515" on="0"/>
        <pt x="543" y="420" on="1"/>
        <pt x="543" y="361" on="0"/>
        <pt x="501" y="247" on="0"/>
        <pt x="428" y="147" on="0"/>
        <pt x="329" y="63" on="0"/>
        <pt x="272" y="34" on="1"/>
        <pt x="460" y="-43" on="1"/>
      </contour>
    </TTGlyph>
    <TTGlyph name="R" xMin="25" yMin="-10" xMax="530" yMax="627">
      <contour>
        <pt x="340" y="-10" on="1"/>
        <pt x="239" y="280" on="1"/>
        <pt x="239" y="281" on="1"/>
        <pt x="323" y="321" on="0"/>
        <pt x="386" y="399" on="0"/>
        <pt x="386" y="439" on="1"/>
        <pt x="386" y="473" on="0"/>
        <pt x="340" y="508" on="0"/>
        <pt x="296" y="508" on="1"/>
        <pt x="289" y="508" on="0"/>
        <pt x="273" y="507" on="0"/>
        <pt x="264" y="506" on="1"/>
        <pt x="167" y="0" on="1"/>
        <pt x="25" y="0" on="1"/>
        <pt x="144" y="616" on="1"/>
        <pt x="184" y="622" on="0"/>
        <pt x="255" y="627" on="0"/>
        <pt x="286" y="627" on="1"/>
        <pt x="423" y="627" on="0"/>
        <pt x="530" y="534" on="0"/>
        <pt x="530" y="469" on="1"/>
        <pt x="530" y="405" on="0"/>
        <pt x="453" y="301" on="0"/>
        <pt x="393" y="262" on="1"/>
        <pt x="496" y="10" on="1"/>
      </contour>
    </TTGlyph>
    <TTGlyph name="R_p" xMin="-12" yMin="-174" xMax="583" yMax="626">
      <contour>
        <pt x="143" y="-6" on="1"/>
        <pt x="135" y="209" on="1"/>
        <pt x="131" y="209" on="1"/>
        <pt x="88" y="0" on="1"/>
        <pt x="-12" y="0" on="1"/>
        <pt x="109" y="621" on="1"/>
        <pt x="129" y="624" on="0"/>
        <pt x="165" y="626" on="0"/>
        <pt x="181" y="626" on="1"/>
        <pt x="260" y="626" on="0"/>
        <pt x="329" y="561" on="0"/>
        <pt x="329" y="503" on="1"/>
        <pt x="329" y="439" on="0"/>
        <pt x="270" y="316" on="0"/>
        <pt x="229" y="271" on="1"/>
        <pt x="249" y="7" on="1"/>
      </contour>
      <contour>
        <pt x="346" y="-164" on="1"/>
        <pt x="246" y="-174" on="1"/>
        <pt x="375" y="502" on="1"/>
        <pt x="467" y="509" on="1"/>
        <pt x="461" y="469" on="1"/>
        <pt x="477" y="490" on="0"/>
        <pt x="518" y="520" on="0"/>
        <pt x="537" y="520" on="1"/>
        <pt x="561" y="520" on="0"/>
        <pt x="583" y="464" on="0"/>
        <pt x="583" y="406" on="1"/>
        <pt x="583" y="346" on="0"/>
        <pt x="556" y="199" on="0"/>
        <pt x="507" y="73" on="0"/>
        <pt x="437" y="-12" on="0"/>
        <pt x="394" y="-12" on="1"/>
        <pt x="390" y="-12" on="0"/>
        <pt x="380" y="-11" on="0"/>
        <pt x="376" y="-10" on="1"/>
      </contour>
    </TTGlyph>
    <TTGlyph name="Racute" xMin="25" yMin="-10" xMax="530" yMax="907">
      <contour>
        <pt x="203" y="740" on="1"/>
        <pt x="227" y="753" on="0"/>
        <pt x="290" y="792" on="0"/>
        <pt x="355" y="837" on="0"/>
        <pt x="418" y="885" on="0"/>
        <pt x="443" y="907" on="1"/>
        <pt x="530" y="801" on="1"/>
        <pt x="501" y="782" on="0"/>
        <pt x="421" y="745" on="0"/>
        <pt x="337" y="713" on="0"/>
        <pt x="257" y="688" on="0"/>
        <pt x="227" y="681" on="1"/>
      </contour>
      <contour>
        <pt x="340" y="-10" on="1"/>
        <pt x="239" y="280" on="1"/>
        <pt x="239" y="281" on="1"/>
        <pt x="323" y="321" on="0"/>
        <pt x="386" y="399" on="0"/>
        <pt x="386" y="439" on="1"/>
        <pt x="386" y="473" on="0"/>
        <pt x="340" y="508" on="0"/>
        <pt x="296" y="508" on="1"/>
        <pt x="289" y="508" on="0"/>
        <pt x="273" y="507" on="0"/>
        <pt x="264" y="506" on="1"/>
        <pt x="167" y="0" on="1"/>
        <pt x="25" y="0" on="1"/>
        <pt x="144" y="616" on="1"/>
        <pt x="184" y="622" on="0"/>
        <pt x="255" y="627" on="0"/>
        <pt x="286" y="627" on="1"/>
        <pt x="423" y="627" on="0"/>
        <pt x="530" y="534" on="0"/>
        <pt x="530" y="469" on="1"/>
        <pt x="530" y="405" on="0"/>
        <pt x="453" y="301" on="0"/>
        <pt x="393" y="262" on="1"/>
        <pt x="496" y="10" on="1"/>
      </contour>
    </TTGlyph>
    <TTGlyph name="Rcaron" xMin="25" yMin="-10" xMax="572" yMax="893">
      <contour>
        <pt x="349" y="674" on="1"/>
        <pt x="340" y="674" on="1"/>
        <pt x="180" y="822" on="1"/>
        <pt x="274" y="893" on="1"/>
        <pt x="369" y="798" on="1"/>
        <pt x="511" y="889" on="1"/>
        <pt x="572" y="820" on="1"/>
      </contour>
      <contour>
        <pt x="340" y="-10" on="1"/>
        <pt x="239" y="280" on="1"/>
        <pt x="239" y="281" on="1"/>
        <pt x="323" y="321" on="0"/>
        <pt x="386" y="399" on="0"/>
        <pt x="386" y="439" on="1"/>
        <pt x="386" y="473" on="0"/>
        <pt x="340" y="508" on="0"/>
        <pt x="296" y="508" on="1"/>
        <pt x="289" y="508" on="0"/>
        <pt x="273" y="507" on="0"/>
        <pt x="264" y="506" on="1"/>
        <pt x="167" y="0" on="1"/>
        <pt x="25" y="0" on="1"/>
        <pt x="144" y="616" on="1"/>
        <pt x="184" y="622" on="0"/>
        <pt x="255" y="627" on="0"/>
        <pt x="286" y="627" on="1"/>
        <pt x="423" y="627" on="0"/>
        <pt x="530" y="534" on="0"/>
        <pt x="530" y="469" on="1"/>
        <pt x="530" y="405" on="0"/>
        <pt x="453" y="301" on="0"/>
        <pt x="393" y="262" on="1"/>
        <pt x="496" y="10" on="1"/>
      </contour>
    </TTGlyph>
    <TTGlyph name="Rcommaaccent" xMin="25" yMin="-296" xMax="530" yMax="627">
      <contour>
        <pt x="340" y="-10" on="1"/>
        <pt x="239" y="280" on="1"/>
        <pt x="239" y="281" on="1"/>
        <pt x="323" y="321" on="0"/>
        <pt x="386" y="399" on="0"/>
        <pt x="386" y="439" on="1"/>
        <pt x="386" y="473" on="0"/>
        <pt x="340" y="508" on="0"/>
        <pt x="296" y="508" on="1"/>
        <pt x="289" y="508" on="0"/>
        <pt x="273" y="507" on="0"/>
        <pt x="264" y="506" on="1"/>
        <pt x="167" y="0" on="1"/>
        <pt x="25" y="0" on="1"/>
        <pt x="144" y="616" on="1"/>
        <pt x="184" y="622" on="0"/>
        <pt x="255" y="627" on="0"/>
        <pt x="286" y="627" on="1"/>
        <pt x="423" y="627" on="0"/>
        <pt x="530" y="534" on="0"/>
        <pt x="530" y="469" on="1"/>
        <pt x="530" y="405" on="0"/>
        <pt x="453" y="301" on="0"/>
        <pt x="393" y="262" on="1"/>
        <pt x="496" y="10" on="1"/>
      </contour>
      <contour>
        <pt x="113" y="-272" on="1"/>
        <pt x="129" y="-235" on="0"/>
        <pt x="145" y="-147" on="0"/>
        <pt x="145" y="-107" on="1"/>
        <pt x="145" y="-100" on="0"/>
        <pt x="145" y="-84" on="0"/>
        <pt x="144" y="-77" on="1"/>
        <pt x="316" y="-75" on="1"/>
        <pt x="305" y="-141" on="0"/>
        <pt x="226" y="-259" on="0"/>
        <pt x="170" y="-296" on="1"/>
      </contour>
    </TTGlyph>
    <TTGlyph name="S" xMin="26" yMin="-10" xMax="532" yMax="632">
      <contour>
        <pt x="532" y="450" on="1"/>
        <pt x="409" y="425" on="1"/>
        <pt x="396" y="473" on="0"/>
        <pt x="349" y="512" on="0"/>
        <pt x="315" y="512" on="1"/>
        <pt x="284" y="512" on="0"/>
        <pt x="243" y="478" on="0"/>
        <pt x="243" y="453" on="1"/>
        <pt x="243" y="419" on="0"/>
        <pt x="317" y="357" on="0"/>
        <pt x="406" y="290" on="0"/>
        <pt x="480" y="210" on="0"/>
        <pt x="480" y="159" on="1"/>
        <pt x="480" y="128" on="0"/>
        <pt x="448" y="67" on="0"/>
        <pt x="381" y="20" on="0"/>
        <pt x="276" y="-10" on="0"/>
        <pt x="202" y="-10" on="1"/>
        <pt x="164" y="-10" on="0"/>
        <pt x="76" y="-1" on="0"/>
        <pt x="26" y="9" on="1"/>
        <pt x="54" y="148" on="1"/>
        <pt x="120" y="129" on="0"/>
        <pt x="216" y="113" on="0"/>
        <pt x="248" y="113" on="1"/>
        <pt x="291" y="113" on="0"/>
        <pt x="329" y="137" on="0"/>
        <pt x="329" y="154" on="1"/>
        <pt x="329" y="182" on="0"/>
        <pt x="256" y="237" on="0"/>
        <pt x="170" y="301" on="0"/>
        <pt x="97" y="382" on="0"/>
        <pt x="97" y="436" on="1"/>
        <pt x="97" y="475" on="0"/>
        <pt x="132" y="546" on="0"/>
        <pt x="196" y="600" on="0"/>
        <pt x="286" y="632" on="0"/>
        <pt x="341" y="632" on="1"/>
        <pt x="428" y="632" on="0"/>
        <pt x="516" y="537" on="0"/>
      </contour>
    </TTGlyph>
    <TTGlyph name="Sacute" xMin="26" yMin="-10" xMax="564" yMax="912">
      <contour>
        <pt x="237" y="745" on="1"/>
        <pt x="261" y="758" on="0"/>
        <pt x="324" y="797" on="0"/>
        <pt x="389" y="842" on="0"/>
        <pt x="452" y="890" on="0"/>
        <pt x="477" y="912" on="1"/>
        <pt x="564" y="806" on="1"/>
        <pt x="535" y="787" on="0"/>
        <pt x="455" y="750" on="0"/>
        <pt x="371" y="718" on="0"/>
        <pt x="291" y="693" on="0"/>
        <pt x="261" y="686" on="1"/>
      </contour>
      <contour>
        <pt x="532" y="450" on="1"/>
        <pt x="409" y="425" on="1"/>
        <pt x="396" y="473" on="0"/>
        <pt x="349" y="512" on="0"/>
        <pt x="315" y="512" on="1"/>
        <pt x="284" y="512" on="0"/>
        <pt x="243" y="478" on="0"/>
        <pt x="243" y="453" on="1"/>
        <pt x="243" y="419" on="0"/>
        <pt x="317" y="357" on="0"/>
        <pt x="406" y="290" on="0"/>
        <pt x="480" y="210" on="0"/>
        <pt x="480" y="159" on="1"/>
        <pt x="480" y="128" on="0"/>
        <pt x="448" y="67" on="0"/>
        <pt x="381" y="20" on="0"/>
        <pt x="276" y="-10" on="0"/>
        <pt x="202" y="-10" on="1"/>
        <pt x="164" y="-10" on="0"/>
        <pt x="76" y="-1" on="0"/>
        <pt x="26" y="9" on="1"/>
        <pt x="54" y="148" on="1"/>
        <pt x="120" y="129" on="0"/>
        <pt x="216" y="113" on="0"/>
        <pt x="248" y="113" on="1"/>
        <pt x="291" y="113" on="0"/>
        <pt x="329" y="137" on="0"/>
        <pt x="329" y="154" on="1"/>
        <pt x="329" y="182" on="0"/>
        <pt x="256" y="237" on="0"/>
        <pt x="170" y="301" on="0"/>
        <pt x="97" y="382" on="0"/>
        <pt x="97" y="436" on="1"/>
        <pt x="97" y="475" on="0"/>
        <pt x="132" y="546" on="0"/>
        <pt x="196" y="600" on="0"/>
        <pt x="286" y="632" on="0"/>
        <pt x="341" y="632" on="1"/>
        <pt x="428" y="632" on="0"/>
        <pt x="516" y="537" on="0"/>
      </contour>
    </TTGlyph>
    <TTGlyph name="Scaron" xMin="26" yMin="-10" xMax="606" yMax="898">
      <contour>
        <pt x="383" y="679" on="1"/>
        <pt x="374" y="679" on="1"/>
        <pt x="214" y="827" on="1"/>
        <pt x="308" y="898" on="1"/>
        <pt x="403" y="803" on="1"/>
        <pt x="545" y="894" on="1"/>
        <pt x="606" y="825" on="1"/>
      </contour>
      <contour>
        <pt x="532" y="450" on="1"/>
        <pt x="409" y="425" on="1"/>
        <pt x="396" y="473" on="0"/>
        <pt x="349" y="512" on="0"/>
        <pt x="315" y="512" on="1"/>
        <pt x="284" y="512" on="0"/>
        <pt x="243" y="478" on="0"/>
        <pt x="243" y="453" on="1"/>
        <pt x="243" y="419" on="0"/>
        <pt x="317" y="357" on="0"/>
        <pt x="406" y="290" on="0"/>
        <pt x="480" y="210" on="0"/>
        <pt x="480" y="159" on="1"/>
        <pt x="480" y="128" on="0"/>
        <pt x="448" y="67" on="0"/>
        <pt x="381" y="20" on="0"/>
        <pt x="276" y="-10" on="0"/>
        <pt x="202" y="-10" on="1"/>
        <pt x="164" y="-10" on="0"/>
        <pt x="76" y="-1" on="0"/>
        <pt x="26" y="9" on="1"/>
        <pt x="54" y="148" on="1"/>
        <pt x="120" y="129" on="0"/>
        <pt x="216" y="113" on="0"/>
        <pt x="248" y="113" on="1"/>
        <pt x="291" y="113" on="0"/>
        <pt x="329" y="137" on="0"/>
        <pt x="329" y="154" on="1"/>
        <pt x="329" y="182" on="0"/>
        <pt x="256" y="237" on="0"/>
        <pt x="170" y="301" on="0"/>
        <pt x="97" y="382" on="0"/>
        <pt x="97" y="436" on="1"/>
        <pt x="97" y="475" on="0"/>
        <pt x="132" y="546" on="0"/>
        <pt x="196" y="600" on="0"/>
        <pt x="286" y="632" on="0"/>
        <pt x="341" y="632" on="1"/>
        <pt x="428" y="632" on="0"/>
        <pt x="516" y="537" on="0"/>
      </contour>
    </TTGlyph>
    <TTGlyph name="Scedilla" xMin="26" yMin="-192" xMax="532" yMax="632">
      <contour>
        <pt x="234" y="-192" on="1"/>
        <pt x="235" y="-183" on="0"/>
        <pt x="235" y="-167" on="0"/>
        <pt x="235" y="-160" on="1"/>
        <pt x="235" y="-117" on="0"/>
        <pt x="220" y="-82" on="0"/>
        <pt x="206" y="-82" on="1"/>
        <pt x="188" y="-82" on="0"/>
        <pt x="149" y="-129" on="0"/>
        <pt x="128" y="-170" on="1"/>
        <pt x="59" y="-148" on="1"/>
        <pt x="81" y="-97" on="0"/>
        <pt x="128" y="-27" on="0"/>
        <pt x="154" y="-8" on="1"/>
        <pt x="125" y="-7" on="0"/>
        <pt x="61" y="2" on="0"/>
        <pt x="26" y="9" on="1"/>
        <pt x="54" y="148" on="1"/>
        <pt x="120" y="129" on="0"/>
        <pt x="216" y="113" on="0"/>
        <pt x="248" y="113" on="1"/>
        <pt x="291" y="113" on="0"/>
        <pt x="329" y="137" on="0"/>
        <pt x="329" y="154" on="1"/>
        <pt x="329" y="182" on="0"/>
        <pt x="256" y="237" on="0"/>
        <pt x="170" y="301" on="0"/>
        <pt x="97" y="382" on="0"/>
        <pt x="97" y="436" on="1"/>
        <pt x="97" y="475" on="0"/>
        <pt x="132" y="546" on="0"/>
        <pt x="196" y="600" on="0"/>
        <pt x="286" y="632" on="0"/>
        <pt x="341" y="632" on="1"/>
        <pt x="428" y="632" on="0"/>
        <pt x="516" y="537" on="0"/>
        <pt x="532" y="450" on="1"/>
        <pt x="409" y="425" on="1"/>
        <pt x="396" y="473" on="0"/>
        <pt x="349" y="512" on="0"/>
        <pt x="315" y="512" on="1"/>
        <pt x="284" y="512" on="0"/>
        <pt x="243" y="478" on="0"/>
        <pt x="243" y="453" on="1"/>
        <pt x="243" y="419" on="0"/>
        <pt x="317" y="357" on="0"/>
        <pt x="406" y="290" on="0"/>
        <pt x="480" y="210" on="0"/>
        <pt x="480" y="159" on="1"/>
        <pt x="480" y="107" on="0"/>
        <pt x="387" y="12" on="0"/>
        <pt x="285" y="-4" on="1"/>
        <pt x="316" y="-23" on="0"/>
        <pt x="353" y="-105" on="0"/>
        <pt x="353" y="-167" on="1"/>
        <pt x="353" y="-172" on="0"/>
        <pt x="352" y="-184" on="0"/>
        <pt x="352" y="-190" on="1"/>
      </contour>
    </TTGlyph>
    <TTGlyph name="Scommaaccent" xMin="26" yMin="-296" xMax="532" yMax="632">
      <contour>
        <pt x="532" y="450" on="1"/>
        <pt x="409" y="425" on="1"/>
        <pt x="396" y="473" on="0"/>
        <pt x="349" y="512" on="0"/>
        <pt x="315" y="512" on="1"/>
        <pt x="284" y="512" on="0"/>
        <pt x="243" y="478" on="0"/>
        <pt x="243" y="453" on="1"/>
        <pt x="243" y="419" on="0"/>
        <pt x="317" y="357" on="0"/>
        <pt x="406" y="290" on="0"/>
        <pt x="480" y="210" on="0"/>
        <pt x="480" y="159" on="1"/>
        <pt x="480" y="128" on="0"/>
        <pt x="448" y="67" on="0"/>
        <pt x="381" y="20" on="0"/>
        <pt x="276" y="-10" on="0"/>
        <pt x="202" y="-10" on="1"/>
        <pt x="164" y="-10" on="0"/>
        <pt x="76" y="-1" on="0"/>
        <pt x="26" y="9" on="1"/>
        <pt x="54" y="148" on="1"/>
        <pt x="120" y="129" on="0"/>
        <pt x="216" y="113" on="0"/>
        <pt x="248" y="113" on="1"/>
        <pt x="291" y="113" on="0"/>
        <pt x="329" y="137" on="0"/>
        <pt x="329" y="154" on="1"/>
        <pt x="329" y="182" on="0"/>
        <pt x="256" y="237" on="0"/>
        <pt x="170" y="301" on="0"/>
        <pt x="97" y="382" on="0"/>
        <pt x="97" y="436" on="1"/>
        <pt x="97" y="475" on="0"/>
        <pt x="132" y="546" on="0"/>
        <pt x="196" y="600" on="0"/>
        <pt x="286" y="632" on="0"/>
        <pt x="341" y="632" on="1"/>
        <pt x="428" y="632" on="0"/>
        <pt x="516" y="537" on="0"/>
      </contour>
      <contour>
        <pt x="102" y="-272" on="1"/>
        <pt x="118" y="-235" on="0"/>
        <pt x="134" y="-147" on="0"/>
        <pt x="134" y="-107" on="1"/>
        <pt x="134" y="-100" on="0"/>
        <pt x="134" y="-84" on="0"/>
        <pt x="133" y="-77" on="1"/>
        <pt x="305" y="-75" on="1"/>
        <pt x="294" y="-141" on="0"/>
        <pt x="215" y="-259" on="0"/>
        <pt x="159" y="-296" on="1"/>
      </contour>
    </TTGlyph>
    <TTGlyph name="T" xMin="86" yMin="0" xMax="583" yMax="620">
      <contour>
        <pt x="395" y="498" on="1"/>
        <pt x="299" y="0" on="1"/>
        <pt x="153" y="0" on="1"/>
        <pt x="249" y="498" on="1"/>
        <pt x="86" y="498" on="1"/>
        <pt x="110" y="620" on="1"/>
        <pt x="583" y="620" on="1"/>
        <pt x="559" y="498" on="1"/>
      </contour>
    </TTGlyph>
    <TTGlyph name="Tcaron" xMin="86" yMin="0" xMax="583" yMax="886">
      <contour>
        <pt x="357" y="667" on="1"/>
        <pt x="348" y="667" on="1"/>
        <pt x="188" y="815" on="1"/>
        <pt x="282" y="886" on="1"/>
        <pt x="377" y="791" on="1"/>
        <pt x="519" y="882" on="1"/>
        <pt x="580" y="813" on="1"/>
      </contour>
      <contour>
        <pt x="395" y="498" on="1"/>
        <pt x="299" y="0" on="1"/>
        <pt x="153" y="0" on="1"/>
        <pt x="249" y="498" on="1"/>
        <pt x="86" y="498" on="1"/>
        <pt x="110" y="620" on="1"/>
        <pt x="583" y="620" on="1"/>
        <pt x="559" y="498" on="1"/>
      </contour>
    </TTGlyph>
    <TTGlyph name="Tcommaaccent" xMin="86" yMin="-286" xMax="583" yMax="620">
      <contour>
        <pt x="395" y="498" on="1"/>
        <pt x="299" y="0" on="1"/>
        <pt x="153" y="0" on="1"/>
        <pt x="249" y="498" on="1"/>
        <pt x="86" y="498" on="1"/>
        <pt x="110" y="620" on="1"/>
        <pt x="583" y="620" on="1"/>
        <pt x="559" y="498" on="1"/>
      </contour>
      <contour>
        <pt x="96" y="-262" on="1"/>
        <pt x="112" y="-225" on="0"/>
        <pt x="128" y="-137" on="0"/>
        <pt x="128" y="-97" on="1"/>
        <pt x="128" y="-90" on="0"/>
        <pt x="128" y="-74" on="0"/>
        <pt x="127" y="-67" on="1"/>
        <pt x="299" y="-65" on="1"/>
        <pt x="288" y="-131" on="0"/>
        <pt x="209" y="-249" on="0"/>
        <pt x="153" y="-286" on="1"/>
      </contour>
    </TTGlyph>
    <TTGlyph name="Thorn" xMin="30" yMin="0" xMax="532" yMax="620">
      <contour>
        <pt x="173" y="0" on="1"/>
        <pt x="30" y="0" on="1"/>
        <pt x="151" y="620" on="1"/>
        <pt x="295" y="620" on="1"/>
        <pt x="280" y="542" on="1"/>
        <pt x="413" y="540" on="0"/>
        <pt x="532" y="438" on="0"/>
        <pt x="532" y="362" on="1"/>
        <pt x="532" y="252" on="0"/>
        <pt x="350" y="105" on="0"/>
        <pt x="190" y="84" on="1"/>
      </contour>
      <contour>
        <pt x="246" y="207" on="1"/>
        <pt x="317" y="207" on="0"/>
        <pt x="392" y="283" on="0"/>
        <pt x="392" y="337" on="1"/>
        <pt x="392" y="378" on="0"/>
        <pt x="338" y="426" on="0"/>
        <pt x="289" y="426" on="1"/>
        <pt x="282" y="426" on="0"/>
        <pt x="265" y="424" on="0"/>
        <pt x="256" y="423" on="1"/>
        <pt x="214" y="209" on="1"/>
        <pt x="222" y="208" on="0"/>
        <pt x="239" y="207" on="0"/>
      </contour>
    </TTGlyph>
    <TTGlyph name="U" xMin="55" yMin="-13" xMax="570" yMax="620">
      <contour>
        <pt x="206" y="240" on="1"/>
        <pt x="203" y="223" on="0"/>
        <pt x="200" y="194" on="0"/>
        <pt x="200" y="183" on="1"/>
        <pt x="200" y="139" on="0"/>
        <pt x="235" y="110" on="0"/>
        <pt x="259" y="110" on="1"/>
        <pt x="292" y="110" on="0"/>
        <pt x="337" y="156" on="0"/>
        <pt x="347" y="210" on="1"/>
        <pt x="426" y="620" on="1"/>
        <pt x="570" y="620" on="1"/>
        <pt x="491" y="213" on="1"/>
        <pt x="466" y="88" on="0"/>
        <pt x="337" y="-13" on="0"/>
        <pt x="241" y="-13" on="1"/>
        <pt x="158" y="-13" on="0"/>
        <pt x="55" y="67" on="0"/>
        <pt x="55" y="163" on="1"/>
        <pt x="55" y="182" on="0"/>
        <pt x="60" y="228" on="0"/>
        <pt x="65" y="253" on="1"/>
        <pt x="136" y="620" on="1"/>
        <pt x="279" y="620" on="1"/>
      </contour>
    </TTGlyph>
    <TTGlyph name="Uacute" xMin="55" yMin="-13" xMax="570" yMax="900">
      <contour>
        <pt x="218" y="733" on="1"/>
        <pt x="242" y="746" on="0"/>
        <pt x="305" y="785" on="0"/>
        <pt x="370" y="830" on="0"/>
        <pt x="433" y="878" on="0"/>
        <pt x="458" y="900" on="1"/>
        <pt x="545" y="794" on="1"/>
        <pt x="516" y="775" on="0"/>
        <pt x="436" y="738" on="0"/>
        <pt x="352" y="706" on="0"/>
        <pt x="272" y="681" on="0"/>
        <pt x="242" y="674" on="1"/>
      </contour>
      <contour>
        <pt x="206" y="240" on="1"/>
        <pt x="203" y="223" on="0"/>
        <pt x="200" y="194" on="0"/>
        <pt x="200" y="183" on="1"/>
        <pt x="200" y="139" on="0"/>
        <pt x="235" y="110" on="0"/>
        <pt x="259" y="110" on="1"/>
        <pt x="292" y="110" on="0"/>
        <pt x="337" y="156" on="0"/>
        <pt x="347" y="210" on="1"/>
        <pt x="426" y="620" on="1"/>
        <pt x="570" y="620" on="1"/>
        <pt x="491" y="213" on="1"/>
        <pt x="466" y="88" on="0"/>
        <pt x="337" y="-13" on="0"/>
        <pt x="241" y="-13" on="1"/>
        <pt x="158" y="-13" on="0"/>
        <pt x="55" y="67" on="0"/>
        <pt x="55" y="163" on="1"/>
        <pt x="55" y="182" on="0"/>
        <pt x="60" y="228" on="0"/>
        <pt x="65" y="253" on="1"/>
        <pt x="136" y="620" on="1"/>
        <pt x="279" y="620" on="1"/>
      </contour>
    </TTGlyph>
    <TTGlyph name="Ubreve" xMin="55" yMin="-13" xMax="601" yMax="880">
      <contour>
        <pt x="522" y="873" on="1"/>
        <pt x="601" y="826" on="1"/>
        <pt x="545" y="756" on="0"/>
        <pt x="422" y="677" on="0"/>
        <pt x="364" y="677" on="1"/>
        <pt x="307" y="677" on="0"/>
        <pt x="214" y="753" on="0"/>
        <pt x="186" y="825" on="1"/>
        <pt x="288" y="880" on="1"/>
        <pt x="310" y="831" on="0"/>
        <pt x="359" y="784" on="0"/>
        <pt x="393" y="784" on="1"/>
        <pt x="424" y="784" on="0"/>
        <pt x="485" y="831" on="0"/>
      </contour>
      <contour>
        <pt x="206" y="240" on="1"/>
        <pt x="203" y="223" on="0"/>
        <pt x="200" y="194" on="0"/>
        <pt x="200" y="183" on="1"/>
        <pt x="200" y="139" on="0"/>
        <pt x="235" y="110" on="0"/>
        <pt x="259" y="110" on="1"/>
        <pt x="292" y="110" on="0"/>
        <pt x="337" y="156" on="0"/>
        <pt x="347" y="210" on="1"/>
        <pt x="426" y="620" on="1"/>
        <pt x="570" y="620" on="1"/>
        <pt x="491" y="213" on="1"/>
        <pt x="466" y="88" on="0"/>
        <pt x="337" y="-13" on="0"/>
        <pt x="241" y="-13" on="1"/>
        <pt x="158" y="-13" on="0"/>
        <pt x="55" y="67" on="0"/>
        <pt x="55" y="163" on="1"/>
        <pt x="55" y="182" on="0"/>
        <pt x="60" y="228" on="0"/>
        <pt x="65" y="253" on="1"/>
        <pt x="136" y="620" on="1"/>
        <pt x="279" y="620" on="1"/>
      </contour>
    </TTGlyph>
    <TTGlyph name="Ucircumflex" xMin="55" yMin="-13" xMax="573" yMax="889">
      <contour>
        <pt x="479" y="670" on="1"/>
        <pt x="384" y="766" on="1"/>
        <pt x="242" y="674" on="1"/>
        <pt x="181" y="743" on="1"/>
        <pt x="404" y="889" on="1"/>
        <pt x="413" y="889" on="1"/>
        <pt x="573" y="741" on="1"/>
      </contour>
      <contour>
        <pt x="206" y="240" on="1"/>
        <pt x="203" y="223" on="0"/>
        <pt x="200" y="194" on="0"/>
        <pt x="200" y="183" on="1"/>
        <pt x="200" y="139" on="0"/>
        <pt x="235" y="110" on="0"/>
        <pt x="259" y="110" on="1"/>
        <pt x="292" y="110" on="0"/>
        <pt x="337" y="156" on="0"/>
        <pt x="347" y="210" on="1"/>
        <pt x="426" y="620" on="1"/>
        <pt x="570" y="620" on="1"/>
        <pt x="491" y="213" on="1"/>
        <pt x="466" y="88" on="0"/>
        <pt x="337" y="-13" on="0"/>
        <pt x="241" y="-13" on="1"/>
        <pt x="158" y="-13" on="0"/>
        <pt x="55" y="67" on="0"/>
        <pt x="55" y="163" on="1"/>
        <pt x="55" y="182" on="0"/>
        <pt x="60" y="228" on="0"/>
        <pt x="65" y="253" on="1"/>
        <pt x="136" y="620" on="1"/>
        <pt x="279" y="620" on="1"/>
      </contour>
    </TTGlyph>
    <TTGlyph name="Udieresis" xMin="55" yMin="-13" xMax="591" yMax="833">
      <contour>
        <pt x="546" y="694" on="1"/>
        <pt x="397" y="693" on="1"/>
        <pt x="431" y="830" on="1"/>
        <pt x="591" y="833" on="1"/>
      </contour>
      <contour>
        <pt x="321" y="693" on="1"/>
        <pt x="171" y="691" on="1"/>
        <pt x="206" y="829" on="1"/>
        <pt x="365" y="831" on="1"/>
      </contour>
      <contour>
        <pt x="206" y="240" on="1"/>
        <pt x="203" y="223" on="0"/>
        <pt x="200" y="194" on="0"/>
        <pt x="200" y="183" on="1"/>
        <pt x="200" y="139" on="0"/>
        <pt x="235" y="110" on="0"/>
        <pt x="259" y="110" on="1"/>
        <pt x="292" y="110" on="0"/>
        <pt x="337" y="156" on="0"/>
        <pt x="347" y="210" on="1"/>
        <pt x="426" y="620" on="1"/>
        <pt x="570" y="620" on="1"/>
        <pt x="491" y="213" on="1"/>
        <pt x="466" y="88" on="0"/>
        <pt x="337" y="-13" on="0"/>
        <pt x="241" y="-13" on="1"/>
        <pt x="158" y="-13" on="0"/>
        <pt x="55" y="67" on="0"/>
        <pt x="55" y="163" on="1"/>
        <pt x="55" y="182" on="0"/>
        <pt x="60" y="228" on="0"/>
        <pt x="65" y="253" on="1"/>
        <pt x="136" y="620" on="1"/>
        <pt x="279" y="620" on="1"/>
      </contour>
    </TTGlyph>
    <TTGlyph name="Ugrave" xMin="55" yMin="-13" xMax="570" yMax="903">
      <contour>
        <pt x="537" y="728" on="1"/>
        <pt x="509" y="671" on="1"/>
        <pt x="480" y="679" on="0"/>
        <pt x="406" y="707" on="0"/>
        <pt x="329" y="741" on="0"/>
        <pt x="254" y="778" on="0"/>
        <pt x="225" y="794" on="1"/>
        <pt x="304" y="903" on="1"/>
        <pt x="329" y="881" on="0"/>
        <pt x="390" y="832" on="0"/>
        <pt x="452" y="785" on="0"/>
        <pt x="512" y="743" on="0"/>
      </contour>
      <contour>
        <pt x="206" y="240" on="1"/>
        <pt x="203" y="223" on="0"/>
        <pt x="200" y="194" on="0"/>
        <pt x="200" y="183" on="1"/>
        <pt x="200" y="139" on="0"/>
        <pt x="235" y="110" on="0"/>
        <pt x="259" y="110" on="1"/>
        <pt x="292" y="110" on="0"/>
        <pt x="337" y="156" on="0"/>
        <pt x="347" y="210" on="1"/>
        <pt x="426" y="620" on="1"/>
        <pt x="570" y="620" on="1"/>
        <pt x="491" y="213" on="1"/>
        <pt x="466" y="88" on="0"/>
        <pt x="337" y="-13" on="0"/>
        <pt x="241" y="-13" on="1"/>
        <pt x="158" y="-13" on="0"/>
        <pt x="55" y="67" on="0"/>
        <pt x="55" y="163" on="1"/>
        <pt x="55" y="182" on="0"/>
        <pt x="60" y="228" on="0"/>
        <pt x="65" y="253" on="1"/>
        <pt x="136" y="620" on="1"/>
        <pt x="279" y="620" on="1"/>
      </contour>
    </TTGlyph>
    <TTGlyph name="Uhungarumlaut" xMin="55" yMin="-13" xMax="663" yMax="924">
      <contour>
        <pt x="253" y="678" on="1"/>
        <pt x="193" y="724" on="1"/>
        <pt x="209" y="745" on="0"/>
        <pt x="245" y="797" on="0"/>
        <pt x="280" y="850" on="0"/>
        <pt x="312" y="902" on="0"/>
        <pt x="323" y="924" on="1"/>
        <pt x="449" y="857" on="1"/>
        <pt x="414" y="817" on="0"/>
        <pt x="303" y="714" on="0"/>
      </contour>
      <contour>
        <pt x="470" y="677" on="1"/>
        <pt x="409" y="723" on="1"/>
        <pt x="441" y="764" on="0"/>
        <pt x="511" y="871" on="0"/>
        <pt x="533" y="914" on="1"/>
        <pt x="663" y="855" on="1"/>
        <pt x="628" y="814" on="0"/>
        <pt x="520" y="713" on="0"/>
      </contour>
      <contour>
        <pt x="206" y="240" on="1"/>
        <pt x="203" y="223" on="0"/>
        <pt x="200" y="194" on="0"/>
        <pt x="200" y="183" on="1"/>
        <pt x="200" y="139" on="0"/>
        <pt x="235" y="110" on="0"/>
        <pt x="259" y="110" on="1"/>
        <pt x="292" y="110" on="0"/>
        <pt x="337" y="156" on="0"/>
        <pt x="347" y="210" on="1"/>
        <pt x="426" y="620" on="1"/>
        <pt x="570" y="620" on="1"/>
        <pt x="491" y="213" on="1"/>
        <pt x="466" y="88" on="0"/>
        <pt x="337" y="-13" on="0"/>
        <pt x="241" y="-13" on="1"/>
        <pt x="158" y="-13" on="0"/>
        <pt x="55" y="67" on="0"/>
        <pt x="55" y="163" on="1"/>
        <pt x="55" y="182" on="0"/>
        <pt x="60" y="228" on="0"/>
        <pt x="65" y="253" on="1"/>
        <pt x="136" y="620" on="1"/>
        <pt x="279" y="620" on="1"/>
      </contour>
    </TTGlyph>
    <TTGlyph name="Umacron" xMin="55" yMin="-13" xMax="573" yMax="820">
      <contour>
        <pt x="573" y="820" on="1"/>
        <pt x="551" y="705" on="1"/>
        <pt x="189" y="705" on="1"/>
        <pt x="212" y="820" on="1"/>
      </contour>
      <contour>
        <pt x="206" y="240" on="1"/>
        <pt x="203" y="223" on="0"/>
        <pt x="200" y="194" on="0"/>
        <pt x="200" y="183" on="1"/>
        <pt x="200" y="139" on="0"/>
        <pt x="235" y="110" on="0"/>
        <pt x="259" y="110" on="1"/>
        <pt x="292" y="110" on="0"/>
        <pt x="337" y="156" on="0"/>
        <pt x="347" y="210" on="1"/>
        <pt x="426" y="620" on="1"/>
        <pt x="570" y="620" on="1"/>
        <pt x="491" y="213" on="1"/>
        <pt x="466" y="88" on="0"/>
        <pt x="337" y="-13" on="0"/>
        <pt x="241" y="-13" on="1"/>
        <pt x="158" y="-13" on="0"/>
        <pt x="55" y="67" on="0"/>
        <pt x="55" y="163" on="1"/>
        <pt x="55" y="182" on="0"/>
        <pt x="60" y="228" on="0"/>
        <pt x="65" y="253" on="1"/>
        <pt x="136" y="620" on="1"/>
        <pt x="279" y="620" on="1"/>
      </contour>
    </TTGlyph>
    <TTGlyph name="Uogonek" xMin="55" yMin="-213" xMax="570" yMax="620">
      <contour>
        <pt x="205" y="-213" on="1"/>
        <pt x="154" y="-213" on="0"/>
        <pt x="101" y="-166" on="0"/>
        <pt x="101" y="-132" on="1"/>
        <pt x="101" y="-103" on="0"/>
        <pt x="151" y="-41" on="0"/>
        <pt x="202" y="-11" on="1"/>
        <pt x="136" y="-3" on="0"/>
        <pt x="55" y="79" on="0"/>
        <pt x="55" y="163" on="1"/>
        <pt x="55" y="182" on="0"/>
        <pt x="60" y="228" on="0"/>
        <pt x="65" y="253" on="1"/>
        <pt x="136" y="620" on="1"/>
        <pt x="279" y="620" on="1"/>
        <pt x="206" y="240" on="1"/>
        <pt x="203" y="223" on="0"/>
        <pt x="200" y="194" on="0"/>
        <pt x="200" y="183" on="1"/>
        <pt x="200" y="139" on="0"/>
        <pt x="235" y="110" on="0"/>
        <pt x="259" y="110" on="1"/>
        <pt x="292" y="110" on="0"/>
        <pt x="337" y="156" on="0"/>
        <pt x="347" y="210" on="1"/>
        <pt x="426" y="620" on="1"/>
        <pt x="570" y="620" on="1"/>
        <pt x="491" y="213" on="1"/>
        <pt x="476" y="138" on="0"/>
        <pt x="418" y="43" on="0"/>
        <pt x="374" y="19" on="1"/>
        <pt x="290" y="-25" on="0"/>
        <pt x="226" y="-69" on="0"/>
        <pt x="226" y="-91" on="1"/>
        <pt x="226" y="-104" on="0"/>
        <pt x="248" y="-121" on="0"/>
        <pt x="273" y="-121" on="1"/>
        <pt x="288" y="-121" on="0"/>
        <pt x="329" y="-114" on="0"/>
        <pt x="354" y="-107" on="1"/>
        <pt x="367" y="-169" on="1"/>
        <pt x="318" y="-192" on="0"/>
        <pt x="236" y="-213" on="0"/>
      </contour>
    </TTGlyph>
    <TTGlyph name="Uring" xMin="55" yMin="-13" xMax="570" yMax="887">
      <contour>
        <pt x="395" y="887" on="1"/>
        <pt x="452" y="887" on="0"/>
        <pt x="520" y="827" on="0"/>
        <pt x="520" y="786" on="1"/>
        <pt x="520" y="739" on="0"/>
        <pt x="437" y="668" on="0"/>
        <pt x="372" y="668" on="1"/>
        <pt x="315" y="668" on="0"/>
        <pt x="248" y="728" on="0"/>
        <pt x="248" y="770" on="1"/>
        <pt x="248" y="817" on="0"/>
        <pt x="330" y="887" on="0"/>
      </contour>
      <contour>
        <pt x="206" y="240" on="1"/>
        <pt x="203" y="223" on="0"/>
        <pt x="200" y="194" on="0"/>
        <pt x="200" y="183" on="1"/>
        <pt x="200" y="139" on="0"/>
        <pt x="235" y="110" on="0"/>
        <pt x="259" y="110" on="1"/>
        <pt x="292" y="110" on="0"/>
        <pt x="337" y="156" on="0"/>
        <pt x="347" y="210" on="1"/>
        <pt x="426" y="620" on="1"/>
        <pt x="570" y="620" on="1"/>
        <pt x="491" y="213" on="1"/>
        <pt x="466" y="88" on="0"/>
        <pt x="337" y="-13" on="0"/>
        <pt x="241" y="-13" on="1"/>
        <pt x="158" y="-13" on="0"/>
        <pt x="55" y="67" on="0"/>
        <pt x="55" y="163" on="1"/>
        <pt x="55" y="182" on="0"/>
        <pt x="60" y="228" on="0"/>
        <pt x="65" y="253" on="1"/>
        <pt x="136" y="620" on="1"/>
        <pt x="279" y="620" on="1"/>
      </contour>
    </TTGlyph>
    <TTGlyph name="V" xMin="89" yMin="0" xMax="604" yMax="625">
      <contour>
        <pt x="325" y="0" on="1"/>
        <pt x="127" y="0" on="1"/>
        <pt x="113" y="154" on="0"/>
        <pt x="93" y="461" on="0"/>
        <pt x="89" y="615" on="1"/>
        <pt x="234" y="625" on="1"/>
        <pt x="235" y="504" on="0"/>
        <pt x="243" y="253" on="0"/>
        <pt x="247" y="131" on="1"/>
        <pt x="257" y="131" on="1"/>
        <pt x="308" y="252" on="0"/>
        <pt x="412" y="499" on="0"/>
        <pt x="458" y="620" on="1"/>
        <pt x="604" y="620" on="1"/>
        <pt x="539" y="466" on="0"/>
        <pt x="400" y="154" on="0"/>
      </contour>
    </TTGlyph>
    <TTGlyph name="W" xMin="42" yMin="0" xMax="604" yMax="620">
      <contour>
        <pt x="297" y="0" on="1"/>
        <pt x="288" y="265" on="1"/>
        <pt x="174" y="0" on="1"/>
        <pt x="42" y="0" on="1"/>
        <pt x="43" y="44" on="0"/>
        <pt x="53" y="176" on="0"/>
        <pt x="69" y="336" on="0"/>
        <pt x="92" y="521" on="0"/>
        <pt x="107" y="620" on="1"/>
        <pt x="250" y="620" on="1"/>
        <pt x="181" y="198" on="1"/>
        <pt x="186" y="198" on="1"/>
        <pt x="284" y="432" on="1"/>
        <pt x="361" y="432" on="1"/>
        <pt x="368" y="198" on="1"/>
        <pt x="372" y="198" on="1"/>
        <pt x="464" y="620" on="1"/>
        <pt x="604" y="620" on="1"/>
        <pt x="580" y="520" on="0"/>
        <pt x="531" y="334" on="0"/>
        <pt x="487" y="174" on="0"/>
        <pt x="449" y="44" on="0"/>
        <pt x="434" y="0" on="1"/>
      </contour>
    </TTGlyph>
    <TTGlyph name="Wacute" xMin="42" yMin="0" xMax="604" yMax="900">
      <contour>
        <pt x="220" y="733" on="1"/>
        <pt x="244" y="746" on="0"/>
        <pt x="307" y="785" on="0"/>
        <pt x="372" y="830" on="0"/>
        <pt x="435" y="878" on="0"/>
        <pt x="460" y="900" on="1"/>
        <pt x="547" y="794" on="1"/>
        <pt x="518" y="775" on="0"/>
        <pt x="438" y="738" on="0"/>
        <pt x="354" y="706" on="0"/>
        <pt x="274" y="681" on="0"/>
        <pt x="244" y="674" on="1"/>
      </contour>
      <contour>
        <pt x="297" y="0" on="1"/>
        <pt x="288" y="265" on="1"/>
        <pt x="174" y="0" on="1"/>
        <pt x="42" y="0" on="1"/>
        <pt x="43" y="44" on="0"/>
        <pt x="53" y="176" on="0"/>
        <pt x="69" y="336" on="0"/>
        <pt x="92" y="521" on="0"/>
        <pt x="107" y="620" on="1"/>
        <pt x="250" y="620" on="1"/>
        <pt x="181" y="198" on="1"/>
        <pt x="186" y="198" on="1"/>
        <pt x="284" y="432" on="1"/>
        <pt x="361" y="432" on="1"/>
        <pt x="368" y="198" on="1"/>
        <pt x="372" y="198" on="1"/>
        <pt x="464" y="620" on="1"/>
        <pt x="604" y="620" on="1"/>
        <pt x="580" y="520" on="0"/>
        <pt x="531" y="334" on="0"/>
        <pt x="487" y="174" on="0"/>
        <pt x="449" y="44" on="0"/>
        <pt x="434" y="0" on="1"/>
      </contour>
    </TTGlyph>
    <TTGlyph name="Wcircumflex" xMin="42" yMin="0" xMax="604" yMax="889">
      <contour>
        <pt x="481" y="670" on="1"/>
        <pt x="386" y="766" on="1"/>
        <pt x="244" y="674" on="1"/>
        <pt x="183" y="743" on="1"/>
        <pt x="406" y="889" on="1"/>
        <pt x="415" y="889" on="1"/>
        <pt x="575" y="741" on="1"/>
      </contour>
      <contour>
        <pt x="297" y="0" on="1"/>
        <pt x="288" y="265" on="1"/>
        <pt x="174" y="0" on="1"/>
        <pt x="42" y="0" on="1"/>
        <pt x="43" y="44" on="0"/>
        <pt x="53" y="176" on="0"/>
        <pt x="69" y="336" on="0"/>
        <pt x="92" y="521" on="0"/>
        <pt x="107" y="620" on="1"/>
        <pt x="250" y="620" on="1"/>
        <pt x="181" y="198" on="1"/>
        <pt x="186" y="198" on="1"/>
        <pt x="284" y="432" on="1"/>
        <pt x="361" y="432" on="1"/>
        <pt x="368" y="198" on="1"/>
        <pt x="372" y="198" on="1"/>
        <pt x="464" y="620" on="1"/>
        <pt x="604" y="620" on="1"/>
        <pt x="580" y="520" on="0"/>
        <pt x="531" y="334" on="0"/>
        <pt x="487" y="174" on="0"/>
        <pt x="449" y="44" on="0"/>
        <pt x="434" y="0" on="1"/>
      </contour>
    </TTGlyph>
    <TTGlyph name="Wdieresis" xMin="42" yMin="0" xMax="604" yMax="833">
      <contour>
        <pt x="548" y="694" on="1"/>
        <pt x="399" y="693" on="1"/>
        <pt x="433" y="830" on="1"/>
        <pt x="593" y="833" on="1"/>
      </contour>
      <contour>
        <pt x="323" y="693" on="1"/>
        <pt x="173" y="691" on="1"/>
        <pt x="208" y="829" on="1"/>
        <pt x="367" y="831" on="1"/>
      </contour>
      <contour>
        <pt x="297" y="0" on="1"/>
        <pt x="288" y="265" on="1"/>
        <pt x="174" y="0" on="1"/>
        <pt x="42" y="0" on="1"/>
        <pt x="43" y="44" on="0"/>
        <pt x="53" y="176" on="0"/>
        <pt x="69" y="336" on="0"/>
        <pt x="92" y="521" on="0"/>
        <pt x="107" y="620" on="1"/>
        <pt x="250" y="620" on="1"/>
        <pt x="181" y="198" on="1"/>
        <pt x="186" y="198" on="1"/>
        <pt x="284" y="432" on="1"/>
        <pt x="361" y="432" on="1"/>
        <pt x="368" y="198" on="1"/>
        <pt x="372" y="198" on="1"/>
        <pt x="464" y="620" on="1"/>
        <pt x="604" y="620" on="1"/>
        <pt x="580" y="520" on="0"/>
        <pt x="531" y="334" on="0"/>
        <pt x="487" y="174" on="0"/>
        <pt x="449" y="44" on="0"/>
        <pt x="434" y="0" on="1"/>
      </contour>
    </TTGlyph>
    <TTGlyph name="Wgrave" xMin="42" yMin="0" xMax="604" yMax="903">
      <contour>
        <pt x="539" y="728" on="1"/>
        <pt x="511" y="671" on="1"/>
        <pt x="482" y="679" on="0"/>
        <pt x="408" y="707" on="0"/>
        <pt x="331" y="741" on="0"/>
        <pt x="256" y="778" on="0"/>
        <pt x="227" y="794" on="1"/>
        <pt x="306" y="903" on="1"/>
        <pt x="331" y="881" on="0"/>
        <pt x="392" y="832" on="0"/>
        <pt x="454" y="785" on="0"/>
        <pt x="514" y="743" on="0"/>
      </contour>
      <contour>
        <pt x="297" y="0" on="1"/>
        <pt x="288" y="265" on="1"/>
        <pt x="174" y="0" on="1"/>
        <pt x="42" y="0" on="1"/>
        <pt x="43" y="44" on="0"/>
        <pt x="53" y="176" on="0"/>
        <pt x="69" y="336" on="0"/>
        <pt x="92" y="521" on="0"/>
        <pt x="107" y="620" on="1"/>
        <pt x="250" y="620" on="1"/>
        <pt x="181" y="198" on="1"/>
        <pt x="186" y="198" on="1"/>
        <pt x="284" y="432" on="1"/>
        <pt x="361" y="432" on="1"/>
        <pt x="368" y="198" on="1"/>
        <pt x="372" y="198" on="1"/>
        <pt x="464" y="620" on="1"/>
        <pt x="604" y="620" on="1"/>
        <pt x="580" y="520" on="0"/>
        <pt x="531" y="334" on="0"/>
        <pt x="487" y="174" on="0"/>
        <pt x="449" y="44" on="0"/>
        <pt x="434" y="0" on="1"/>
      </contour>
    </TTGlyph>
    <TTGlyph name="X" xMin="-25" yMin="-3" xMax="607" yMax="623">
      <contour>
        <pt x="336" y="-3" on="1"/>
        <pt x="264" y="208" on="1"/>
        <pt x="129" y="0" on="1"/>
        <pt x="-25" y="0" on="1"/>
        <pt x="206" y="319" on="1"/>
        <pt x="93" y="617" on="1"/>
        <pt x="243" y="623" on="1"/>
        <pt x="316" y="410" on="1"/>
        <pt x="452" y="620" on="1"/>
        <pt x="607" y="620" on="1"/>
        <pt x="374" y="300" on="1"/>
        <pt x="487" y="3" on="1"/>
      </contour>
    </TTGlyph>
    <TTGlyph name="Y" xMin="87" yMin="0" xMax="612" yMax="623">
      <contour>
        <pt x="303" y="0" on="1"/>
        <pt x="158" y="0" on="1"/>
        <pt x="198" y="207" on="1"/>
        <pt x="87" y="617" on="1"/>
        <pt x="236" y="623" on="1"/>
        <pt x="298" y="341" on="1"/>
        <pt x="458" y="620" on="1"/>
        <pt x="612" y="620" on="1"/>
        <pt x="341" y="199" on="1"/>
      </contour>
    </TTGlyph>
    <TTGlyph name="Yacute" xMin="87" yMin="0" xMax="612" yMax="903">
      <contour>
        <pt x="215" y="736" on="1"/>
        <pt x="239" y="749" on="0"/>
        <pt x="302" y="788" on="0"/>
        <pt x="367" y="833" on="0"/>
        <pt x="430" y="881" on="0"/>
        <pt x="455" y="903" on="1"/>
        <pt x="542" y="797" on="1"/>
        <pt x="513" y="778" on="0"/>
        <pt x="433" y="741" on="0"/>
        <pt x="349" y="709" on="0"/>
        <pt x="269" y="684" on="0"/>
        <pt x="239" y="677" on="1"/>
      </contour>
      <contour>
        <pt x="303" y="0" on="1"/>
        <pt x="158" y="0" on="1"/>
        <pt x="198" y="207" on="1"/>
        <pt x="87" y="617" on="1"/>
        <pt x="236" y="623" on="1"/>
        <pt x="298" y="341" on="1"/>
        <pt x="458" y="620" on="1"/>
        <pt x="612" y="620" on="1"/>
        <pt x="341" y="199" on="1"/>
      </contour>
    </TTGlyph>
    <TTGlyph name="Ycircumflex" xMin="87" yMin="0" xMax="612" yMax="892">
      <contour>
        <pt x="476" y="673" on="1"/>
        <pt x="381" y="769" on="1"/>
        <pt x="239" y="677" on="1"/>
        <pt x="178" y="746" on="1"/>
        <pt x="401" y="892" on="1"/>
        <pt x="410" y="892" on="1"/>
        <pt x="570" y="744" on="1"/>
      </contour>
      <contour>
        <pt x="303" y="0" on="1"/>
        <pt x="158" y="0" on="1"/>
        <pt x="198" y="207" on="1"/>
        <pt x="87" y="617" on="1"/>
        <pt x="236" y="623" on="1"/>
        <pt x="298" y="341" on="1"/>
        <pt x="458" y="620" on="1"/>
        <pt x="612" y="620" on="1"/>
        <pt x="341" y="199" on="1"/>
      </contour>
    </TTGlyph>
    <TTGlyph name="Ydieresis" xMin="87" yMin="0" xMax="612" yMax="836">
      <contour>
        <pt x="543" y="697" on="1"/>
        <pt x="394" y="696" on="1"/>
        <pt x="428" y="833" on="1"/>
        <pt x="588" y="836" on="1"/>
      </contour>
      <contour>
        <pt x="318" y="696" on="1"/>
        <pt x="168" y="694" on="1"/>
        <pt x="203" y="832" on="1"/>
        <pt x="362" y="834" on="1"/>
      </contour>
      <contour>
        <pt x="303" y="0" on="1"/>
        <pt x="158" y="0" on="1"/>
        <pt x="198" y="207" on="1"/>
        <pt x="87" y="617" on="1"/>
        <pt x="236" y="623" on="1"/>
        <pt x="298" y="341" on="1"/>
        <pt x="458" y="620" on="1"/>
        <pt x="612" y="620" on="1"/>
        <pt x="341" y="199" on="1"/>
      </contour>
    </TTGlyph>
    <TTGlyph name="Ygrave" xMin="87" yMin="0" xMax="612" yMax="906">
      <contour>
        <pt x="534" y="731" on="1"/>
        <pt x="506" y="674" on="1"/>
        <pt x="477" y="682" on="0"/>
        <pt x="403" y="710" on="0"/>
        <pt x="326" y="744" on="0"/>
        <pt x="251" y="781" on="0"/>
        <pt x="222" y="797" on="1"/>
        <pt x="301" y="906" on="1"/>
        <pt x="326" y="884" on="0"/>
        <pt x="387" y="835" on="0"/>
        <pt x="449" y="788" on="0"/>
        <pt x="509" y="746" on="0"/>
      </contour>
      <contour>
        <pt x="303" y="0" on="1"/>
        <pt x="158" y="0" on="1"/>
        <pt x="198" y="207" on="1"/>
        <pt x="87" y="617" on="1"/>
        <pt x="236" y="623" on="1"/>
        <pt x="298" y="341" on="1"/>
        <pt x="458" y="620" on="1"/>
        <pt x="612" y="620" on="1"/>
        <pt x="341" y="199" on="1"/>
      </contour>
    </TTGlyph>
    <TTGlyph name="Z" xMin="11" yMin="0" xMax="559" yMax="620">
      <contour>
        <pt x="447" y="0" on="1"/>
        <pt x="11" y="0" on="1"/>
        <pt x="33" y="121" on="1"/>
        <pt x="377" y="497" on="1"/>
        <pt x="108" y="494" on="1"/>
        <pt x="132" y="620" on="1"/>
        <pt x="559" y="620" on="1"/>
        <pt x="539" y="499" on="1"/>
        <pt x="200" y="123" on="1"/>
        <pt x="471" y="126" on="1"/>
      </contour>
    </TTGlyph>
    <TTGlyph name="Zacute" xMin="11" yMin="0" xMax="559" yMax="900">
      <contour>
        <pt x="213" y="733" on="1"/>
        <pt x="237" y="746" on="0"/>
        <pt x="300" y="785" on="0"/>
        <pt x="365" y="830" on="0"/>
        <pt x="428" y="878" on="0"/>
        <pt x="453" y="900" on="1"/>
        <pt x="540" y="794" on="1"/>
        <pt x="511" y="775" on="0"/>
        <pt x="431" y="738" on="0"/>
        <pt x="347" y="706" on="0"/>
        <pt x="267" y="681" on="0"/>
        <pt x="237" y="674" on="1"/>
      </contour>
      <contour>
        <pt x="447" y="0" on="1"/>
        <pt x="11" y="0" on="1"/>
        <pt x="33" y="121" on="1"/>
        <pt x="377" y="497" on="1"/>
        <pt x="108" y="494" on="1"/>
        <pt x="132" y="620" on="1"/>
        <pt x="559" y="620" on="1"/>
        <pt x="539" y="499" on="1"/>
        <pt x="200" y="123" on="1"/>
        <pt x="471" y="126" on="1"/>
      </contour>
    </TTGlyph>
    <TTGlyph name="Zcaron" xMin="11" yMin="0" xMax="582" yMax="886">
      <contour>
        <pt x="359" y="667" on="1"/>
        <pt x="350" y="667" on="1"/>
        <pt x="190" y="815" on="1"/>
        <pt x="284" y="886" on="1"/>
        <pt x="379" y="791" on="1"/>
        <pt x="521" y="882" on="1"/>
        <pt x="582" y="813" on="1"/>
      </contour>
      <contour>
        <pt x="447" y="0" on="1"/>
        <pt x="11" y="0" on="1"/>
        <pt x="33" y="121" on="1"/>
        <pt x="377" y="497" on="1"/>
        <pt x="108" y="494" on="1"/>
        <pt x="132" y="620" on="1"/>
        <pt x="559" y="620" on="1"/>
        <pt x="539" y="499" on="1"/>
        <pt x="200" y="123" on="1"/>
        <pt x="471" y="126" on="1"/>
      </contour>
    </TTGlyph>
    <TTGlyph name="Zdotaccent" xMin="11" yMin="0" xMax="559" yMax="831">
      <contour>
        <pt x="430" y="693" on="1"/>
        <pt x="277" y="692" on="1"/>
        <pt x="311" y="830" on="1"/>
        <pt x="475" y="831" on="1"/>
      </contour>
      <contour>
        <pt x="447" y="0" on="1"/>
        <pt x="11" y="0" on="1"/>
        <pt x="33" y="121" on="1"/>
        <pt x="377" y="497" on="1"/>
        <pt x="108" y="494" on="1"/>
        <pt x="132" y="620" on="1"/>
        <pt x="559" y="620" on="1"/>
        <pt x="539" y="499" on="1"/>
        <pt x="200" y="123" on="1"/>
        <pt x="471" y="126" on="1"/>
      </contour>
    </TTGlyph>
    <TTGlyph name="a" xMin="30" yMin="-13" xMax="519" yMax="518">
      <contour>
        <pt x="370" y="-13" on="1"/>
        <pt x="337" y="-13" on="0"/>
        <pt x="309" y="34" on="0"/>
        <pt x="309" y="74" on="1"/>
        <pt x="309" y="77" on="0"/>
        <pt x="309" y="83" on="0"/>
        <pt x="309" y="86" on="1"/>
        <pt x="266" y="45" on="0"/>
        <pt x="174" y="-13" on="0"/>
        <pt x="134" y="-13" on="1"/>
        <pt x="90" y="-13" on="0"/>
        <pt x="30" y="64" on="0"/>
        <pt x="30" y="143" on="1"/>
        <pt x="30" y="212" on="0"/>
        <pt x="73" y="348" on="0"/>
        <pt x="156" y="453" on="0"/>
        <pt x="277" y="518" on="0"/>
        <pt x="353" y="518" on="1"/>
        <pt x="389" y="518" on="0"/>
        <pt x="472" y="506" on="0"/>
        <pt x="512" y="494" on="1"/>
        <pt x="444" y="142" on="1"/>
        <pt x="443" y="135" on="0"/>
        <pt x="441" y="124" on="0"/>
        <pt x="441" y="120" on="1"/>
        <pt x="441" y="113" on="0"/>
        <pt x="448" y="107" on="0"/>
        <pt x="457" y="107" on="1"/>
        <pt x="465" y="107" on="0"/>
        <pt x="490" y="110" on="0"/>
        <pt x="508" y="114" on="1"/>
        <pt x="519" y="46" on="1"/>
        <pt x="468" y="15" on="0"/>
        <pt x="395" y="-13" on="0"/>
      </contour>
      <contour>
        <pt x="212" y="118" on="1"/>
        <pt x="231" y="118" on="0"/>
        <pt x="287" y="147" on="0"/>
        <pt x="315" y="171" on="1"/>
        <pt x="318" y="188" on="0"/>
        <pt x="328" y="239" on="0"/>
        <pt x="340" y="298" on="0"/>
        <pt x="352" y="359" on="0"/>
        <pt x="357" y="386" on="1"/>
        <pt x="334" y="394" on="0"/>
        <pt x="294" y="402" on="0"/>
        <pt x="281" y="402" on="1"/>
        <pt x="259" y="402" on="0"/>
        <pt x="219" y="360" on="0"/>
        <pt x="188" y="294" on="0"/>
        <pt x="170" y="214" on="0"/>
        <pt x="170" y="177" on="1"/>
        <pt x="170" y="144" on="0"/>
        <pt x="195" y="118" on="0"/>
      </contour>
    </TTGlyph>
    <TTGlyph name="aacute" xMin="30" yMin="-13" xMax="544" yMax="798">
      <contour>
        <pt x="217" y="631" on="1"/>
        <pt x="241" y="644" on="0"/>
        <pt x="304" y="683" on="0"/>
        <pt x="369" y="728" on="0"/>
        <pt x="432" y="776" on="0"/>
        <pt x="457" y="798" on="1"/>
        <pt x="544" y="692" on="1"/>
        <pt x="515" y="673" on="0"/>
        <pt x="435" y="636" on="0"/>
        <pt x="351" y="604" on="0"/>
        <pt x="271" y="579" on="0"/>
        <pt x="241" y="572" on="1"/>
      </contour>
      <contour>
        <pt x="370" y="-13" on="1"/>
        <pt x="337" y="-13" on="0"/>
        <pt x="309" y="34" on="0"/>
        <pt x="309" y="74" on="1"/>
        <pt x="309" y="77" on="0"/>
        <pt x="309" y="83" on="0"/>
        <pt x="309" y="86" on="1"/>
        <pt x="266" y="45" on="0"/>
        <pt x="174" y="-13" on="0"/>
        <pt x="134" y="-13" on="1"/>
        <pt x="90" y="-13" on="0"/>
        <pt x="30" y="64" on="0"/>
        <pt x="30" y="143" on="1"/>
        <pt x="30" y="212" on="0"/>
        <pt x="73" y="348" on="0"/>
        <pt x="156" y="453" on="0"/>
        <pt x="277" y="518" on="0"/>
        <pt x="353" y="518" on="1"/>
        <pt x="389" y="518" on="0"/>
        <pt x="472" y="506" on="0"/>
        <pt x="512" y="494" on="1"/>
        <pt x="444" y="142" on="1"/>
        <pt x="443" y="135" on="0"/>
        <pt x="441" y="124" on="0"/>
        <pt x="441" y="120" on="1"/>
        <pt x="441" y="113" on="0"/>
        <pt x="448" y="107" on="0"/>
        <pt x="457" y="107" on="1"/>
        <pt x="465" y="107" on="0"/>
        <pt x="490" y="110" on="0"/>
        <pt x="508" y="114" on="1"/>
        <pt x="519" y="46" on="1"/>
        <pt x="468" y="15" on="0"/>
        <pt x="395" y="-13" on="0"/>
      </contour>
      <contour>
        <pt x="212" y="118" on="1"/>
        <pt x="231" y="118" on="0"/>
        <pt x="287" y="147" on="0"/>
        <pt x="315" y="171" on="1"/>
        <pt x="318" y="188" on="0"/>
        <pt x="328" y="239" on="0"/>
        <pt x="340" y="298" on="0"/>
        <pt x="352" y="359" on="0"/>
        <pt x="357" y="386" on="1"/>
        <pt x="334" y="394" on="0"/>
        <pt x="294" y="402" on="0"/>
        <pt x="281" y="402" on="1"/>
        <pt x="259" y="402" on="0"/>
        <pt x="219" y="360" on="0"/>
        <pt x="188" y="294" on="0"/>
        <pt x="170" y="214" on="0"/>
        <pt x="170" y="177" on="1"/>
        <pt x="170" y="144" on="0"/>
        <pt x="195" y="118" on="0"/>
      </contour>
    </TTGlyph>
    <TTGlyph name="abreve" xMin="30" yMin="-13" xMax="600" yMax="778">
      <contour>
        <pt x="521" y="771" on="1"/>
        <pt x="600" y="724" on="1"/>
        <pt x="544" y="654" on="0"/>
        <pt x="421" y="575" on="0"/>
        <pt x="363" y="575" on="1"/>
        <pt x="306" y="575" on="0"/>
        <pt x="213" y="651" on="0"/>
        <pt x="185" y="723" on="1"/>
        <pt x="287" y="778" on="1"/>
        <pt x="309" y="729" on="0"/>
        <pt x="358" y="682" on="0"/>
        <pt x="392" y="682" on="1"/>
        <pt x="423" y="682" on="0"/>
        <pt x="484" y="729" on="0"/>
      </contour>
      <contour>
        <pt x="370" y="-13" on="1"/>
        <pt x="337" y="-13" on="0"/>
        <pt x="309" y="34" on="0"/>
        <pt x="309" y="74" on="1"/>
        <pt x="309" y="77" on="0"/>
        <pt x="309" y="83" on="0"/>
        <pt x="309" y="86" on="1"/>
        <pt x="266" y="45" on="0"/>
        <pt x="174" y="-13" on="0"/>
        <pt x="134" y="-13" on="1"/>
        <pt x="90" y="-13" on="0"/>
        <pt x="30" y="64" on="0"/>
        <pt x="30" y="143" on="1"/>
        <pt x="30" y="212" on="0"/>
        <pt x="73" y="348" on="0"/>
        <pt x="156" y="453" on="0"/>
        <pt x="277" y="518" on="0"/>
        <pt x="353" y="518" on="1"/>
        <pt x="389" y="518" on="0"/>
        <pt x="472" y="506" on="0"/>
        <pt x="512" y="494" on="1"/>
        <pt x="444" y="142" on="1"/>
        <pt x="443" y="135" on="0"/>
        <pt x="441" y="124" on="0"/>
        <pt x="441" y="120" on="1"/>
        <pt x="441" y="113" on="0"/>
        <pt x="448" y="107" on="0"/>
        <pt x="457" y="107" on="1"/>
        <pt x="465" y="107" on="0"/>
        <pt x="490" y="110" on="0"/>
        <pt x="508" y="114" on="1"/>
        <pt x="519" y="46" on="1"/>
        <pt x="468" y="15" on="0"/>
        <pt x="395" y="-13" on="0"/>
      </contour>
      <contour>
        <pt x="212" y="118" on="1"/>
        <pt x="231" y="118" on="0"/>
        <pt x="287" y="147" on="0"/>
        <pt x="315" y="171" on="1"/>
        <pt x="318" y="188" on="0"/>
        <pt x="328" y="239" on="0"/>
        <pt x="340" y="298" on="0"/>
        <pt x="352" y="359" on="0"/>
        <pt x="357" y="386" on="1"/>
        <pt x="334" y="394" on="0"/>
        <pt x="294" y="402" on="0"/>
        <pt x="281" y="402" on="1"/>
        <pt x="259" y="402" on="0"/>
        <pt x="219" y="360" on="0"/>
        <pt x="188" y="294" on="0"/>
        <pt x="170" y="214" on="0"/>
        <pt x="170" y="177" on="1"/>
        <pt x="170" y="144" on="0"/>
        <pt x="195" y="118" on="0"/>
      </contour>
    </TTGlyph>
    <TTGlyph name="acircumflex" xMin="30" yMin="-13" xMax="572" yMax="787">
      <contour>
        <pt x="478" y="568" on="1"/>
        <pt x="383" y="664" on="1"/>
        <pt x="241" y="572" on="1"/>
        <pt x="180" y="641" on="1"/>
        <pt x="403" y="787" on="1"/>
        <pt x="412" y="787" on="1"/>
        <pt x="572" y="639" on="1"/>
      </contour>
      <contour>
        <pt x="370" y="-13" on="1"/>
        <pt x="337" y="-13" on="0"/>
        <pt x="309" y="34" on="0"/>
        <pt x="309" y="74" on="1"/>
        <pt x="309" y="77" on="0"/>
        <pt x="309" y="83" on="0"/>
        <pt x="309" y="86" on="1"/>
        <pt x="266" y="45" on="0"/>
        <pt x="174" y="-13" on="0"/>
        <pt x="134" y="-13" on="1"/>
        <pt x="90" y="-13" on="0"/>
        <pt x="30" y="64" on="0"/>
        <pt x="30" y="143" on="1"/>
        <pt x="30" y="212" on="0"/>
        <pt x="73" y="348" on="0"/>
        <pt x="156" y="453" on="0"/>
        <pt x="277" y="518" on="0"/>
        <pt x="353" y="518" on="1"/>
        <pt x="389" y="518" on="0"/>
        <pt x="472" y="506" on="0"/>
        <pt x="512" y="494" on="1"/>
        <pt x="444" y="142" on="1"/>
        <pt x="443" y="135" on="0"/>
        <pt x="441" y="124" on="0"/>
        <pt x="441" y="120" on="1"/>
        <pt x="441" y="113" on="0"/>
        <pt x="448" y="107" on="0"/>
        <pt x="457" y="107" on="1"/>
        <pt x="465" y="107" on="0"/>
        <pt x="490" y="110" on="0"/>
        <pt x="508" y="114" on="1"/>
        <pt x="519" y="46" on="1"/>
        <pt x="468" y="15" on="0"/>
        <pt x="395" y="-13" on="0"/>
      </contour>
      <contour>
        <pt x="212" y="118" on="1"/>
        <pt x="231" y="118" on="0"/>
        <pt x="287" y="147" on="0"/>
        <pt x="315" y="171" on="1"/>
        <pt x="318" y="188" on="0"/>
        <pt x="328" y="239" on="0"/>
        <pt x="340" y="298" on="0"/>
        <pt x="352" y="359" on="0"/>
        <pt x="357" y="386" on="1"/>
        <pt x="334" y="394" on="0"/>
        <pt x="294" y="402" on="0"/>
        <pt x="281" y="402" on="1"/>
        <pt x="259" y="402" on="0"/>
        <pt x="219" y="360" on="0"/>
        <pt x="188" y="294" on="0"/>
        <pt x="170" y="214" on="0"/>
        <pt x="170" y="177" on="1"/>
        <pt x="170" y="144" on="0"/>
        <pt x="195" y="118" on="0"/>
      </contour>
    </TTGlyph>
    <TTGlyph name="acute" xMin="133" yMin="561" xMax="460" yMax="787">
      <contour>
        <pt x="133" y="620" on="1"/>
        <pt x="157" y="633" on="0"/>
        <pt x="220" y="672" on="0"/>
        <pt x="285" y="717" on="0"/>
        <pt x="348" y="765" on="0"/>
        <pt x="373" y="787" on="1"/>
        <pt x="460" y="681" on="1"/>
        <pt x="431" y="662" on="0"/>
        <pt x="351" y="625" on="0"/>
        <pt x="267" y="593" on="0"/>
        <pt x="187" y="568" on="0"/>
        <pt x="157" y="561" on="1"/>
      </contour>
    </TTGlyph>
    <TTGlyph name="adieresis" xMin="30" yMin="-13" xMax="590" yMax="731">
      <contour>
        <pt x="545" y="592" on="1"/>
        <pt x="396" y="591" on="1"/>
        <pt x="430" y="728" on="1"/>
        <pt x="590" y="731" on="1"/>
      </contour>
      <contour>
        <pt x="320" y="591" on="1"/>
        <pt x="170" y="589" on="1"/>
        <pt x="205" y="727" on="1"/>
        <pt x="364" y="729" on="1"/>
      </contour>
      <contour>
        <pt x="370" y="-13" on="1"/>
        <pt x="337" y="-13" on="0"/>
        <pt x="309" y="34" on="0"/>
        <pt x="309" y="74" on="1"/>
        <pt x="309" y="77" on="0"/>
        <pt x="309" y="83" on="0"/>
        <pt x="309" y="86" on="1"/>
        <pt x="266" y="45" on="0"/>
        <pt x="174" y="-13" on="0"/>
        <pt x="134" y="-13" on="1"/>
        <pt x="90" y="-13" on="0"/>
        <pt x="30" y="64" on="0"/>
        <pt x="30" y="143" on="1"/>
        <pt x="30" y="212" on="0"/>
        <pt x="73" y="348" on="0"/>
        <pt x="156" y="453" on="0"/>
        <pt x="277" y="518" on="0"/>
        <pt x="353" y="518" on="1"/>
        <pt x="389" y="518" on="0"/>
        <pt x="472" y="506" on="0"/>
        <pt x="512" y="494" on="1"/>
        <pt x="444" y="142" on="1"/>
        <pt x="443" y="135" on="0"/>
        <pt x="441" y="124" on="0"/>
        <pt x="441" y="120" on="1"/>
        <pt x="441" y="113" on="0"/>
        <pt x="448" y="107" on="0"/>
        <pt x="457" y="107" on="1"/>
        <pt x="465" y="107" on="0"/>
        <pt x="490" y="110" on="0"/>
        <pt x="508" y="114" on="1"/>
        <pt x="519" y="46" on="1"/>
        <pt x="468" y="15" on="0"/>
        <pt x="395" y="-13" on="0"/>
      </contour>
      <contour>
        <pt x="212" y="118" on="1"/>
        <pt x="231" y="118" on="0"/>
        <pt x="287" y="147" on="0"/>
        <pt x="315" y="171" on="1"/>
        <pt x="318" y="188" on="0"/>
        <pt x="328" y="239" on="0"/>
        <pt x="340" y="298" on="0"/>
        <pt x="352" y="359" on="0"/>
        <pt x="357" y="386" on="1"/>
        <pt x="334" y="394" on="0"/>
        <pt x="294" y="402" on="0"/>
        <pt x="281" y="402" on="1"/>
        <pt x="259" y="402" on="0"/>
        <pt x="219" y="360" on="0"/>
        <pt x="188" y="294" on="0"/>
        <pt x="170" y="214" on="0"/>
        <pt x="170" y="177" on="1"/>
        <pt x="170" y="144" on="0"/>
        <pt x="195" y="118" on="0"/>
      </contour>
    </TTGlyph>
    <TTGlyph name="ae" xMin="8" yMin="-6" xMax="578" yMax="517">
      <contour>
        <pt x="343" y="-6" on="1"/>
        <pt x="300" y="-6" on="0"/>
        <pt x="246" y="34" on="0"/>
        <pt x="233" y="68" on="1"/>
        <pt x="201" y="35" on="0"/>
        <pt x="132" y="-6" on="0"/>
        <pt x="95" y="-6" on="1"/>
        <pt x="53" y="-6" on="0"/>
        <pt x="8" y="59" on="0"/>
        <pt x="8" y="129" on="1"/>
        <pt x="8" y="199" on="0"/>
        <pt x="45" y="337" on="0"/>
        <pt x="111" y="446" on="0"/>
        <pt x="202" y="513" on="0"/>
        <pt x="256" y="513" on="1"/>
        <pt x="284" y="513" on="0"/>
        <pt x="343" y="500" on="0"/>
        <pt x="369" y="487" on="1"/>
        <pt x="391" y="501" on="0"/>
        <pt x="441" y="517" on="0"/>
        <pt x="466" y="517" on="1"/>
        <pt x="519" y="517" on="0"/>
        <pt x="578" y="451" on="0"/>
        <pt x="578" y="401" on="1"/>
        <pt x="578" y="367" on="0"/>
        <pt x="554" y="301" on="0"/>
        <pt x="499" y="245" on="0"/>
        <pt x="412" y="203" on="0"/>
        <pt x="349" y="193" on="1"/>
        <pt x="349" y="189" on="0"/>
        <pt x="349" y="180" on="0"/>
        <pt x="349" y="176" on="1"/>
        <pt x="349" y="142" on="0"/>
        <pt x="375" y="108" on="0"/>
        <pt x="409" y="108" on="1"/>
        <pt x="428" y="108" on="0"/>
        <pt x="482" y="119" on="0"/>
        <pt x="519" y="129" on="1"/>
        <pt x="531" y="63" on="1"/>
        <pt x="473" y="26" on="0"/>
        <pt x="379" y="-6" on="0"/>
      </contour>
      <contour>
        <pt x="430" y="407" on="1"/>
        <pt x="407" y="407" on="0"/>
        <pt x="367" y="323" on="0"/>
        <pt x="357" y="266" on="1"/>
        <pt x="386" y="275" on="0"/>
        <pt x="423" y="305" on="0"/>
        <pt x="444" y="337" on="0"/>
        <pt x="451" y="368" on="0"/>
        <pt x="451" y="377" on="1"/>
        <pt x="451" y="390" on="0"/>
        <pt x="442" y="407" on="0"/>
      </contour>
      <contour>
        <pt x="178" y="116" on="1"/>
        <pt x="189" y="116" on="0"/>
        <pt x="209" y="129" on="0"/>
        <pt x="219" y="141" on="1"/>
        <pt x="219" y="142" on="0"/>
        <pt x="219" y="147" on="0"/>
        <pt x="219" y="149" on="1"/>
        <pt x="219" y="220" on="0"/>
        <pt x="253" y="345" on="0"/>
        <pt x="281" y="393" on="1"/>
        <pt x="268" y="401" on="0"/>
        <pt x="247" y="406" on="0"/>
        <pt x="238" y="406" on="1"/>
        <pt x="220" y="406" on="0"/>
        <pt x="188" y="364" on="0"/>
        <pt x="164" y="299" on="0"/>
        <pt x="150" y="218" on="0"/>
        <pt x="150" y="180" on="1"/>
        <pt x="150" y="149" on="0"/>
        <pt x="163" y="116" on="0"/>
      </contour>
    </TTGlyph>
    <TTGlyph name="aeacute" xMin="8" yMin="-6" xMax="578" yMax="797">
      <contour>
        <pt x="209" y="630" on="1"/>
        <pt x="233" y="643" on="0"/>
        <pt x="296" y="682" on="0"/>
        <pt x="361" y="727" on="0"/>
        <pt x="424" y="775" on="0"/>
        <pt x="449" y="797" on="1"/>
        <pt x="536" y="691" on="1"/>
        <pt x="507" y="672" on="0"/>
        <pt x="427" y="635" on="0"/>
        <pt x="343" y="603" on="0"/>
        <pt x="263" y="578" on="0"/>
        <pt x="233" y="571" on="1"/>
      </contour>
      <contour>
        <pt x="343" y="-6" on="1"/>
        <pt x="300" y="-6" on="0"/>
        <pt x="246" y="34" on="0"/>
        <pt x="233" y="68" on="1"/>
        <pt x="201" y="35" on="0"/>
        <pt x="132" y="-6" on="0"/>
        <pt x="95" y="-6" on="1"/>
        <pt x="53" y="-6" on="0"/>
        <pt x="8" y="59" on="0"/>
        <pt x="8" y="129" on="1"/>
        <pt x="8" y="199" on="0"/>
        <pt x="45" y="337" on="0"/>
        <pt x="111" y="446" on="0"/>
        <pt x="202" y="513" on="0"/>
        <pt x="256" y="513" on="1"/>
        <pt x="284" y="513" on="0"/>
        <pt x="343" y="500" on="0"/>
        <pt x="369" y="487" on="1"/>
        <pt x="391" y="501" on="0"/>
        <pt x="441" y="517" on="0"/>
        <pt x="466" y="517" on="1"/>
        <pt x="519" y="517" on="0"/>
        <pt x="578" y="451" on="0"/>
        <pt x="578" y="401" on="1"/>
        <pt x="578" y="367" on="0"/>
        <pt x="554" y="301" on="0"/>
        <pt x="499" y="245" on="0"/>
        <pt x="412" y="203" on="0"/>
        <pt x="349" y="193" on="1"/>
        <pt x="349" y="189" on="0"/>
        <pt x="349" y="180" on="0"/>
        <pt x="349" y="176" on="1"/>
        <pt x="349" y="142" on="0"/>
        <pt x="375" y="108" on="0"/>
        <pt x="409" y="108" on="1"/>
        <pt x="428" y="108" on="0"/>
        <pt x="482" y="119" on="0"/>
        <pt x="519" y="129" on="1"/>
        <pt x="531" y="63" on="1"/>
        <pt x="473" y="26" on="0"/>
        <pt x="379" y="-6" on="0"/>
      </contour>
      <contour>
        <pt x="430" y="407" on="1"/>
        <pt x="407" y="407" on="0"/>
        <pt x="367" y="323" on="0"/>
        <pt x="357" y="266" on="1"/>
        <pt x="386" y="275" on="0"/>
        <pt x="423" y="305" on="0"/>
        <pt x="444" y="337" on="0"/>
        <pt x="451" y="368" on="0"/>
        <pt x="451" y="377" on="1"/>
        <pt x="451" y="390" on="0"/>
        <pt x="442" y="407" on="0"/>
      </contour>
      <contour>
        <pt x="178" y="116" on="1"/>
        <pt x="189" y="116" on="0"/>
        <pt x="209" y="129" on="0"/>
        <pt x="219" y="141" on="1"/>
        <pt x="219" y="142" on="0"/>
        <pt x="219" y="147" on="0"/>
        <pt x="219" y="149" on="1"/>
        <pt x="219" y="220" on="0"/>
        <pt x="253" y="345" on="0"/>
        <pt x="281" y="393" on="1"/>
        <pt x="268" y="401" on="0"/>
        <pt x="247" y="406" on="0"/>
        <pt x="238" y="406" on="1"/>
        <pt x="220" y="406" on="0"/>
        <pt x="188" y="364" on="0"/>
        <pt x="164" y="299" on="0"/>
        <pt x="150" y="218" on="0"/>
        <pt x="150" y="180" on="1"/>
        <pt x="150" y="149" on="0"/>
        <pt x="163" y="116" on="0"/>
      </contour>
    </TTGlyph>
    <TTGlyph name="agrave" xMin="30" yMin="-13" xMax="536" yMax="801">
      <contour>
        <pt x="536" y="626" on="1"/>
        <pt x="508" y="569" on="1"/>
        <pt x="479" y="577" on="0"/>
        <pt x="405" y="605" on="0"/>
        <pt x="328" y="639" on="0"/>
        <pt x="253" y="676" on="0"/>
        <pt x="224" y="692" on="1"/>
        <pt x="303" y="801" on="1"/>
        <pt x="328" y="779" on="0"/>
        <pt x="389" y="730" on="0"/>
        <pt x="451" y="683" on="0"/>
        <pt x="511" y="641" on="0"/>
      </contour>
      <contour>
        <pt x="370" y="-13" on="1"/>
        <pt x="337" y="-13" on="0"/>
        <pt x="309" y="34" on="0"/>
        <pt x="309" y="74" on="1"/>
        <pt x="309" y="77" on="0"/>
        <pt x="309" y="83" on="0"/>
        <pt x="309" y="86" on="1"/>
        <pt x="266" y="45" on="0"/>
        <pt x="174" y="-13" on="0"/>
        <pt x="134" y="-13" on="1"/>
        <pt x="90" y="-13" on="0"/>
        <pt x="30" y="64" on="0"/>
        <pt x="30" y="143" on="1"/>
        <pt x="30" y="212" on="0"/>
        <pt x="73" y="348" on="0"/>
        <pt x="156" y="453" on="0"/>
        <pt x="277" y="518" on="0"/>
        <pt x="353" y="518" on="1"/>
        <pt x="389" y="518" on="0"/>
        <pt x="472" y="506" on="0"/>
        <pt x="512" y="494" on="1"/>
        <pt x="444" y="142" on="1"/>
        <pt x="443" y="135" on="0"/>
        <pt x="441" y="124" on="0"/>
        <pt x="441" y="120" on="1"/>
        <pt x="441" y="113" on="0"/>
        <pt x="448" y="107" on="0"/>
        <pt x="457" y="107" on="1"/>
        <pt x="465" y="107" on="0"/>
        <pt x="490" y="110" on="0"/>
        <pt x="508" y="114" on="1"/>
        <pt x="519" y="46" on="1"/>
        <pt x="468" y="15" on="0"/>
        <pt x="395" y="-13" on="0"/>
      </contour>
      <contour>
        <pt x="212" y="118" on="1"/>
        <pt x="231" y="118" on="0"/>
        <pt x="287" y="147" on="0"/>
        <pt x="315" y="171" on="1"/>
        <pt x="318" y="188" on="0"/>
        <pt x="328" y="239" on="0"/>
        <pt x="340" y="298" on="0"/>
        <pt x="352" y="359" on="0"/>
        <pt x="357" y="386" on="1"/>
        <pt x="334" y="394" on="0"/>
        <pt x="294" y="402" on="0"/>
        <pt x="281" y="402" on="1"/>
        <pt x="259" y="402" on="0"/>
        <pt x="219" y="360" on="0"/>
        <pt x="188" y="294" on="0"/>
        <pt x="170" y="214" on="0"/>
        <pt x="170" y="177" on="1"/>
        <pt x="170" y="144" on="0"/>
        <pt x="195" y="118" on="0"/>
      </contour>
    </TTGlyph>
    <TTGlyph name="amacron" xMin="30" yMin="-13" xMax="572" yMax="718">
      <contour>
        <pt x="572" y="718" on="1"/>
        <pt x="550" y="603" on="1"/>
        <pt x="188" y="603" on="1"/>
        <pt x="211" y="718" on="1"/>
      </contour>
      <contour>
        <pt x="370" y="-13" on="1"/>
        <pt x="337" y="-13" on="0"/>
        <pt x="309" y="34" on="0"/>
        <pt x="309" y="74" on="1"/>
        <pt x="309" y="77" on="0"/>
        <pt x="309" y="83" on="0"/>
        <pt x="309" y="86" on="1"/>
        <pt x="266" y="45" on="0"/>
        <pt x="174" y="-13" on="0"/>
        <pt x="134" y="-13" on="1"/>
        <pt x="90" y="-13" on="0"/>
        <pt x="30" y="64" on="0"/>
        <pt x="30" y="143" on="1"/>
        <pt x="30" y="212" on="0"/>
        <pt x="73" y="348" on="0"/>
        <pt x="156" y="453" on="0"/>
        <pt x="277" y="518" on="0"/>
        <pt x="353" y="518" on="1"/>
        <pt x="389" y="518" on="0"/>
        <pt x="472" y="506" on="0"/>
        <pt x="512" y="494" on="1"/>
        <pt x="444" y="142" on="1"/>
        <pt x="443" y="135" on="0"/>
        <pt x="441" y="124" on="0"/>
        <pt x="441" y="120" on="1"/>
        <pt x="441" y="113" on="0"/>
        <pt x="448" y="107" on="0"/>
        <pt x="457" y="107" on="1"/>
        <pt x="465" y="107" on="0"/>
        <pt x="490" y="110" on="0"/>
        <pt x="508" y="114" on="1"/>
        <pt x="519" y="46" on="1"/>
        <pt x="468" y="15" on="0"/>
        <pt x="395" y="-13" on="0"/>
      </contour>
      <contour>
        <pt x="212" y="118" on="1"/>
        <pt x="231" y="118" on="0"/>
        <pt x="287" y="147" on="0"/>
        <pt x="315" y="171" on="1"/>
        <pt x="318" y="188" on="0"/>
        <pt x="328" y="239" on="0"/>
        <pt x="340" y="298" on="0"/>
        <pt x="352" y="359" on="0"/>
        <pt x="357" y="386" on="1"/>
        <pt x="334" y="394" on="0"/>
        <pt x="294" y="402" on="0"/>
        <pt x="281" y="402" on="1"/>
        <pt x="259" y="402" on="0"/>
        <pt x="219" y="360" on="0"/>
        <pt x="188" y="294" on="0"/>
        <pt x="170" y="214" on="0"/>
        <pt x="170" y="177" on="1"/>
        <pt x="170" y="144" on="0"/>
        <pt x="195" y="118" on="0"/>
      </contour>
    </TTGlyph>
    <TTGlyph name="ampersand" xMin="9" yMin="-21" xMax="552" yMax="640">
      <contour>
        <pt x="412" y="-21" on="1"/>
        <pt x="392" y="4" on="0"/>
        <pt x="354" y="53" on="0"/>
        <pt x="338" y="78" on="1"/>
        <pt x="287" y="34" on="0"/>
        <pt x="188" y="-9" on="0"/>
        <pt x="141" y="-9" on="1"/>
        <pt x="76" y="-9" on="0"/>
        <pt x="9" y="67" on="0"/>
        <pt x="9" y="128" on="1"/>
        <pt x="9" y="190" on="0"/>
        <pt x="87" y="335" on="0"/>
        <pt x="190" y="415" on="1"/>
        <pt x="188" y="427" on="0"/>
        <pt x="186" y="452" on="0"/>
        <pt x="186" y="463" on="1"/>
        <pt x="186" y="508" on="0"/>
        <pt x="212" y="575" on="0"/>
        <pt x="255" y="619" on="0"/>
        <pt x="309" y="640" on="0"/>
        <pt x="337" y="640" on="1"/>
        <pt x="379" y="640" on="0"/>
        <pt x="432" y="598" on="0"/>
        <pt x="432" y="563" on="1"/>
        <pt x="432" y="529" on="0"/>
        <pt x="380" y="439" on="0"/>
        <pt x="331" y="394" on="1"/>
        <pt x="339" y="367" on="0"/>
        <pt x="362" y="310" on="0"/>
        <pt x="378" y="281" on="1"/>
        <pt x="393" y="304" on="0"/>
        <pt x="425" y="360" on="0"/>
        <pt x="441" y="392" on="1"/>
        <pt x="552" y="352" on="1"/>
        <pt x="522" y="303" on="0"/>
        <pt x="464" y="218" on="0"/>
        <pt x="436" y="183" on="1"/>
        <pt x="456" y="154" on="0"/>
        <pt x="503" y="92" on="0"/>
        <pt x="530" y="60" on="1"/>
      </contour>
      <contour>
        <pt x="185" y="114" on="1"/>
        <pt x="204" y="114" on="0"/>
        <pt x="254" y="136" on="0"/>
        <pt x="284" y="164" on="1"/>
        <pt x="264" y="199" on="0"/>
        <pt x="231" y="269" on="0"/>
        <pt x="219" y="301" on="1"/>
        <pt x="179" y="261" on="0"/>
        <pt x="143" y="191" on="0"/>
        <pt x="143" y="163" on="1"/>
        <pt x="143" y="138" on="0"/>
        <pt x="166" y="114" on="0"/>
      </contour>
    </TTGlyph>
    <TTGlyph name="aogonek" xMin="30" yMin="-213" xMax="519" yMax="518">
      <contour>
        <pt x="299" y="-213" on="1"/>
        <pt x="247" y="-213" on="0"/>
        <pt x="193" y="-167" on="0"/>
        <pt x="193" y="-135" on="1"/>
        <pt x="193" y="-99" on="0"/>
        <pt x="254" y="-22" on="0"/>
        <pt x="329" y="18" on="1"/>
        <pt x="319" y="26" on="0"/>
        <pt x="309" y="57" on="0"/>
        <pt x="309" y="79" on="1"/>
        <pt x="309" y="80" on="0"/>
        <pt x="309" y="85" on="0"/>
        <pt x="309" y="86" on="1"/>
        <pt x="266" y="44" on="0"/>
        <pt x="174" y="-13" on="0"/>
        <pt x="134" y="-13" on="1"/>
        <pt x="90" y="-13" on="0"/>
        <pt x="30" y="64" on="0"/>
        <pt x="30" y="143" on="1"/>
        <pt x="30" y="212" on="0"/>
        <pt x="73" y="348" on="0"/>
        <pt x="156" y="453" on="0"/>
        <pt x="277" y="518" on="0"/>
        <pt x="353" y="518" on="1"/>
        <pt x="389" y="518" on="0"/>
        <pt x="472" y="506" on="0"/>
        <pt x="512" y="494" on="1"/>
        <pt x="444" y="142" on="1"/>
        <pt x="443" y="135" on="0"/>
        <pt x="441" y="124" on="0"/>
        <pt x="441" y="120" on="1"/>
        <pt x="441" y="113" on="0"/>
        <pt x="448" y="107" on="0"/>
        <pt x="457" y="107" on="1"/>
        <pt x="465" y="107" on="0"/>
        <pt x="490" y="110" on="0"/>
        <pt x="508" y="114" on="1"/>
        <pt x="519" y="46" on="1"/>
        <pt x="516" y="45" on="0"/>
        <pt x="510" y="43" on="0"/>
        <pt x="507" y="42" on="1"/>
        <pt x="400" y="1" on="0"/>
        <pt x="318" y="-67" on="0"/>
        <pt x="318" y="-90" on="1"/>
        <pt x="318" y="-104" on="0"/>
        <pt x="340" y="-121" on="0"/>
        <pt x="364" y="-121" on="1"/>
        <pt x="379" y="-121" on="0"/>
        <pt x="420" y="-113" on="0"/>
        <pt x="447" y="-106" on="1"/>
        <pt x="457" y="-171" on="1"/>
        <pt x="409" y="-193" on="0"/>
        <pt x="330" y="-213" on="0"/>
      </contour>
      <contour>
        <pt x="212" y="118" on="1"/>
        <pt x="231" y="118" on="0"/>
        <pt x="287" y="147" on="0"/>
        <pt x="315" y="171" on="1"/>
        <pt x="318" y="188" on="0"/>
        <pt x="328" y="239" on="0"/>
        <pt x="340" y="298" on="0"/>
        <pt x="352" y="359" on="0"/>
        <pt x="357" y="386" on="1"/>
        <pt x="334" y="394" on="0"/>
        <pt x="294" y="402" on="0"/>
        <pt x="281" y="402" on="1"/>
        <pt x="259" y="402" on="0"/>
        <pt x="219" y="360" on="0"/>
        <pt x="188" y="294" on="0"/>
        <pt x="170" y="214" on="0"/>
        <pt x="170" y="177" on="1"/>
        <pt x="170" y="144" on="0"/>
        <pt x="195" y="118" on="0"/>
      </contour>
    </TTGlyph>
    <TTGlyph name="approxequal" xMin="17" yMin="86" xMax="544" yMax="522">
      <contour>
        <pt x="372" y="318" on="1"/>
        <pt x="343" y="318" on="0"/>
        <pt x="297" y="344" on="0"/>
        <pt x="262" y="375" on="0"/>
        <pt x="232" y="401" on="0"/>
        <pt x="217" y="401" on="1"/>
        <pt x="201" y="401" on="0"/>
        <pt x="162" y="353" on="0"/>
        <pt x="136" y="313" on="1"/>
        <pt x="62" y="353" on="1"/>
        <pt x="107" y="436" on="0"/>
        <pt x="195" y="522" on="0"/>
        <pt x="248" y="522" on="1"/>
        <pt x="277" y="522" on="0"/>
        <pt x="320" y="496" on="0"/>
        <pt x="354" y="464" on="0"/>
        <pt x="382" y="438" on="0"/>
        <pt x="395" y="438" on="1"/>
        <pt x="409" y="438" on="0"/>
        <pt x="443" y="481" on="0"/>
        <pt x="468" y="518" on="1"/>
        <pt x="544" y="478" on="1"/>
        <pt x="499" y="397" on="0"/>
        <pt x="423" y="318" on="0"/>
      </contour>
      <contour>
        <pt x="327" y="89" on="1"/>
        <pt x="298" y="89" on="0"/>
        <pt x="253" y="115" on="0"/>
        <pt x="217" y="147" on="0"/>
        <pt x="188" y="173" on="0"/>
        <pt x="174" y="173" on="1"/>
        <pt x="158" y="173" on="0"/>
        <pt x="120" y="126" on="0"/>
        <pt x="94" y="86" on="1"/>
        <pt x="17" y="125" on="1"/>
        <pt x="63" y="207" on="0"/>
        <pt x="151" y="293" on="0"/>
        <pt x="205" y="293" on="1"/>
        <pt x="234" y="293" on="0"/>
        <pt x="277" y="267" on="0"/>
        <pt x="310" y="236" on="0"/>
        <pt x="338" y="210" on="0"/>
        <pt x="351" y="210" on="1"/>
        <pt x="366" y="210" on="0"/>
        <pt x="400" y="253" on="0"/>
        <pt x="425" y="290" on="1"/>
        <pt x="500" y="250" on="1"/>
        <pt x="454" y="169" on="0"/>
        <pt x="378" y="89" on="0"/>
      </contour>
    </TTGlyph>
    <TTGlyph name="aring" xMin="30" yMin="-13" xMax="519" yMax="785">
      <contour>
        <pt x="394" y="785" on="1"/>
        <pt x="451" y="785" on="0"/>
        <pt x="519" y="725" on="0"/>
        <pt x="519" y="684" on="1"/>
        <pt x="519" y="637" on="0"/>
        <pt x="436" y="566" on="0"/>
        <pt x="371" y="566" on="1"/>
        <pt x="314" y="566" on="0"/>
        <pt x="247" y="626" on="0"/>
        <pt x="247" y="668" on="1"/>
        <pt x="247" y="715" on="0"/>
        <pt x="329" y="785" on="0"/>
      </contour>
      <contour>
        <pt x="370" y="-13" on="1"/>
        <pt x="337" y="-13" on="0"/>
        <pt x="309" y="34" on="0"/>
        <pt x="309" y="74" on="1"/>
        <pt x="309" y="77" on="0"/>
        <pt x="309" y="83" on="0"/>
        <pt x="309" y="86" on="1"/>
        <pt x="266" y="45" on="0"/>
        <pt x="174" y="-13" on="0"/>
        <pt x="134" y="-13" on="1"/>
        <pt x="90" y="-13" on="0"/>
        <pt x="30" y="64" on="0"/>
        <pt x="30" y="143" on="1"/>
        <pt x="30" y="212" on="0"/>
        <pt x="73" y="348" on="0"/>
        <pt x="156" y="453" on="0"/>
        <pt x="277" y="518" on="0"/>
        <pt x="353" y="518" on="1"/>
        <pt x="389" y="518" on="0"/>
        <pt x="472" y="506" on="0"/>
        <pt x="512" y="494" on="1"/>
        <pt x="444" y="142" on="1"/>
        <pt x="443" y="135" on="0"/>
        <pt x="441" y="124" on="0"/>
        <pt x="441" y="120" on="1"/>
        <pt x="441" y="113" on="0"/>
        <pt x="448" y="107" on="0"/>
        <pt x="457" y="107" on="1"/>
        <pt x="465" y="107" on="0"/>
        <pt x="490" y="110" on="0"/>
        <pt x="508" y="114" on="1"/>
        <pt x="519" y="46" on="1"/>
        <pt x="468" y="15" on="0"/>
        <pt x="395" y="-13" on="0"/>
      </contour>
      <contour>
        <pt x="212" y="118" on="1"/>
        <pt x="231" y="118" on="0"/>
        <pt x="287" y="147" on="0"/>
        <pt x="315" y="171" on="1"/>
        <pt x="318" y="188" on="0"/>
        <pt x="328" y="239" on="0"/>
        <pt x="340" y="298" on="0"/>
        <pt x="352" y="359" on="0"/>
        <pt x="357" y="386" on="1"/>
        <pt x="334" y="394" on="0"/>
        <pt x="294" y="402" on="0"/>
        <pt x="281" y="402" on="1"/>
        <pt x="259" y="402" on="0"/>
        <pt x="219" y="360" on="0"/>
        <pt x="188" y="294" on="0"/>
        <pt x="170" y="214" on="0"/>
        <pt x="170" y="177" on="1"/>
        <pt x="170" y="144" on="0"/>
        <pt x="195" y="118" on="0"/>
      </contour>
    </TTGlyph>
    <TTGlyph name="aringacute" xMin="30" yMin="-13" xMax="592" yMax="1043">
      <contour>
        <pt x="265" y="876" on="1"/>
        <pt x="289" y="889" on="0"/>
        <pt x="352" y="928" on="0"/>
        <pt x="417" y="973" on="0"/>
        <pt x="480" y="1021" on="0"/>
        <pt x="505" y="1043" on="1"/>
        <pt x="592" y="937" on="1"/>
        <pt x="563" y="918" on="0"/>
        <pt x="483" y="881" on="0"/>
        <pt x="399" y="849" on="0"/>
        <pt x="319" y="824" on="0"/>
        <pt x="289" y="817" on="1"/>
      </contour>
      <contour>
        <pt x="394" y="785" on="1"/>
        <pt x="451" y="785" on="0"/>
        <pt x="519" y="725" on="0"/>
        <pt x="519" y="684" on="1"/>
        <pt x="519" y="637" on="0"/>
        <pt x="436" y="566" on="0"/>
        <pt x="371" y="566" on="1"/>
        <pt x="314" y="566" on="0"/>
        <pt x="247" y="626" on="0"/>
        <pt x="247" y="668" on="1"/>
        <pt x="247" y="715" on="0"/>
        <pt x="329" y="785" on="0"/>
      </contour>
      <contour>
        <pt x="370" y="-13" on="1"/>
        <pt x="337" y="-13" on="0"/>
        <pt x="309" y="34" on="0"/>
        <pt x="309" y="74" on="1"/>
        <pt x="309" y="77" on="0"/>
        <pt x="309" y="83" on="0"/>
        <pt x="309" y="86" on="1"/>
        <pt x="266" y="45" on="0"/>
        <pt x="174" y="-13" on="0"/>
        <pt x="134" y="-13" on="1"/>
        <pt x="90" y="-13" on="0"/>
        <pt x="30" y="64" on="0"/>
        <pt x="30" y="143" on="1"/>
        <pt x="30" y="212" on="0"/>
        <pt x="73" y="348" on="0"/>
        <pt x="156" y="453" on="0"/>
        <pt x="277" y="518" on="0"/>
        <pt x="353" y="518" on="1"/>
        <pt x="389" y="518" on="0"/>
        <pt x="472" y="506" on="0"/>
        <pt x="512" y="494" on="1"/>
        <pt x="444" y="142" on="1"/>
        <pt x="443" y="135" on="0"/>
        <pt x="441" y="124" on="0"/>
        <pt x="441" y="120" on="1"/>
        <pt x="441" y="113" on="0"/>
        <pt x="448" y="107" on="0"/>
        <pt x="457" y="107" on="1"/>
        <pt x="465" y="107" on="0"/>
        <pt x="490" y="110" on="0"/>
        <pt x="508" y="114" on="1"/>
        <pt x="519" y="46" on="1"/>
        <pt x="468" y="15" on="0"/>
        <pt x="395" y="-13" on="0"/>
      </contour>
      <contour>
        <pt x="212" y="118" on="1"/>
        <pt x="231" y="118" on="0"/>
        <pt x="287" y="147" on="0"/>
        <pt x="315" y="171" on="1"/>
        <pt x="318" y="188" on="0"/>
        <pt x="328" y="239" on="0"/>
        <pt x="340" y="298" on="0"/>
        <pt x="352" y="359" on="0"/>
        <pt x="357" y="386" on="1"/>
        <pt x="334" y="394" on="0"/>
        <pt x="294" y="402" on="0"/>
        <pt x="281" y="402" on="1"/>
        <pt x="259" y="402" on="0"/>
        <pt x="219" y="360" on="0"/>
        <pt x="188" y="294" on="0"/>
        <pt x="170" y="214" on="0"/>
        <pt x="170" y="177" on="1"/>
        <pt x="170" y="144" on="0"/>
        <pt x="195" y="118" on="0"/>
      </contour>
    </TTGlyph>
    <TTGlyph name="asciicircum" xMin="40" yMin="137" xMax="520" yMax="511">
      <contour>
        <pt x="410" y="137" on="1"/>
        <pt x="285" y="330" on="1"/>
        <pt x="126" y="137" on="1"/>
        <pt x="40" y="210" on="1"/>
        <pt x="295" y="508" on="1"/>
        <pt x="319" y="511" on="1"/>
        <pt x="520" y="207" on="1"/>
      </contour>
    </TTGlyph>
    <TTGlyph name="asciitilde" xMin="22" yMin="184" xMax="553" yMax="426">
      <contour>
        <pt x="374" y="184" on="1"/>
        <pt x="343" y="184" on="0"/>
        <pt x="287" y="219" on="0"/>
        <pt x="238" y="262" on="0"/>
        <pt x="198" y="297" on="0"/>
        <pt x="185" y="297" on="1"/>
        <pt x="169" y="297" on="0"/>
        <pt x="129" y="237" on="0"/>
        <pt x="106" y="186" on="1"/>
        <pt x="22" y="223" on="1"/>
        <pt x="62" y="315" on="0"/>
        <pt x="155" y="426" on="0"/>
        <pt x="208" y="426" on="1"/>
        <pt x="237" y="426" on="0"/>
        <pt x="292" y="391" on="0"/>
        <pt x="338" y="348" on="0"/>
        <pt x="377" y="313" on="0"/>
        <pt x="390" y="313" on="1"/>
        <pt x="405" y="313" on="0"/>
        <pt x="445" y="373" on="0"/>
        <pt x="470" y="424" on="1"/>
        <pt x="553" y="386" on="1"/>
        <pt x="511" y="290" on="0"/>
        <pt x="425" y="184" on="0"/>
      </contour>
    </TTGlyph>
    <TTGlyph name="asterisk" xMin="77" yMin="199" xMax="562" yMax="702">
      <contour>
        <pt x="353" y="199" on="1"/>
        <pt x="278" y="330" on="1"/>
        <pt x="144" y="260" on="1"/>
        <pt x="87" y="332" on="1"/>
        <pt x="187" y="442" on="1"/>
        <pt x="77" y="550" on="1"/>
        <pt x="129" y="627" on="1"/>
        <pt x="265" y="564" on="1"/>
        <pt x="332" y="702" on="1"/>
        <pt x="422" y="677" on="1"/>
        <pt x="408" y="525" on="1"/>
        <pt x="557" y="505" on="1"/>
        <pt x="562" y="415" on="1"/>
        <pt x="412" y="380" on="1"/>
        <pt x="438" y="232" on="1"/>
      </contour>
    </TTGlyph>
    <TTGlyph name="asterisk.alt" xMin="60" yMin="193" xMax="567" yMax="706">
      <contour>
        <pt x="370" y="527" on="1"/>
        <pt x="302" y="543" on="1"/>
        <pt x="313" y="706" on="1"/>
        <pt x="433" y="675" on="1"/>
      </contour>
      <contour>
        <pt x="276" y="538" on="1"/>
        <pt x="228" y="486" on="1"/>
        <pt x="92" y="577" on="1"/>
        <pt x="179" y="665" on="1"/>
      </contour>
      <contour>
        <pt x="408" y="438" on="1"/>
        <pt x="387" y="507" on="1"/>
        <pt x="535" y="579" on="1"/>
        <pt x="567" y="460" on="1"/>
      </contour>
      <contour>
        <pt x="219" y="462" on="1"/>
        <pt x="240" y="393" on="1"/>
        <pt x="93" y="321" on="1"/>
        <pt x="60" y="440" on="1"/>
      </contour>
      <contour>
        <pt x="352" y="362" on="1"/>
        <pt x="401" y="414" on="1"/>
        <pt x="537" y="323" on="1"/>
        <pt x="450" y="235" on="1"/>
      </contour>
      <contour>
        <pt x="258" y="373" on="1"/>
        <pt x="325" y="357" on="1"/>
        <pt x="316" y="193" on="1"/>
        <pt x="195" y="225" on="1"/>
      </contour>
    </TTGlyph>
    <TTGlyph name="at" xMin="25" yMin="-158" xMax="573" yMax="687">
      <contour>
        <pt x="315" y="-158" on="1"/>
        <pt x="161" y="-158" on="0"/>
        <pt x="25" y="5" on="0"/>
        <pt x="25" y="144" on="1"/>
        <pt x="25" y="247" on="0"/>
        <pt x="84" y="443" on="0"/>
        <pt x="187" y="595" on="0"/>
        <pt x="327" y="687" on="0"/>
        <pt x="407" y="687" on="1"/>
        <pt x="488" y="687" on="0"/>
        <pt x="573" y="596" on="0"/>
        <pt x="573" y="509" on="1"/>
        <pt x="573" y="489" on="0"/>
        <pt x="568" y="442" on="0"/>
        <pt x="563" y="417" on="1"/>
        <pt x="529" y="244" on="1"/>
        <pt x="522" y="206" on="0"/>
        <pt x="505" y="116" on="0"/>
        <pt x="498" y="65" on="1"/>
        <pt x="383" y="66" on="1"/>
        <pt x="389" y="117" on="1"/>
        <pt x="361" y="90" on="0"/>
        <pt x="304" y="56" on="0"/>
        <pt x="278" y="56" on="1"/>
        <pt x="245" y="56" on="0"/>
        <pt x="204" y="117" on="0"/>
        <pt x="204" y="180" on="1"/>
        <pt x="204" y="233" on="0"/>
        <pt x="233" y="342" on="0"/>
        <pt x="288" y="429" on="0"/>
        <pt x="369" y="485" on="0"/>
        <pt x="422" y="485" on="1"/>
        <pt x="429" y="485" on="0"/>
        <pt x="445" y="485" on="0"/>
        <pt x="452" y="484" on="1"/>
        <pt x="453" y="490" on="0"/>
        <pt x="454" y="502" on="0"/>
        <pt x="454" y="508" on="1"/>
        <pt x="454" y="544" on="0"/>
        <pt x="423" y="584" on="0"/>
        <pt x="389" y="584" on="1"/>
        <pt x="345" y="584" on="0"/>
        <pt x="255" y="513" on="0"/>
        <pt x="183" y="395" on="0"/>
        <pt x="137" y="238" on="0"/>
        <pt x="137" y="153" on="1"/>
        <pt x="137" y="49" on="0"/>
        <pt x="231" y="-52" on="0"/>
        <pt x="340" y="-52" on="1"/>
        <pt x="362" y="-52" on="0"/>
        <pt x="412" y="-48" on="0"/>
        <pt x="440" y="-44" on="1"/>
        <pt x="424" y="-149" on="1"/>
        <pt x="394" y="-153" on="0"/>
        <pt x="340" y="-158" on="0"/>
      </contour>
      <contour>
        <pt x="343" y="170" on="1"/>
        <pt x="352" y="170" on="0"/>
        <pt x="382" y="180" on="0"/>
        <pt x="398" y="192" on="1"/>
        <pt x="432" y="373" on="1"/>
        <pt x="419" y="378" on="0"/>
        <pt x="391" y="384" on="0"/>
        <pt x="384" y="384" on="1"/>
        <pt x="374" y="384" on="0"/>
        <pt x="351" y="349" on="0"/>
        <pt x="332" y="297" on="0"/>
        <pt x="320" y="239" on="0"/>
        <pt x="320" y="215" on="1"/>
        <pt x="320" y="191" on="0"/>
        <pt x="333" y="170" on="0"/>
      </contour>
    </TTGlyph>
    <TTGlyph name="atilde" xMin="30" yMin="-13" xMax="604" yMax="765">
      <contour>
        <pt x="465" y="684" on="1"/>
        <pt x="477" y="684" on="0"/>
        <pt x="513" y="720" on="0"/>
        <pt x="538" y="757" on="1"/>
        <pt x="604" y="719" on="1"/>
        <pt x="568" y="660" on="0"/>
        <pt x="481" y="580" on="0"/>
        <pt x="439" y="580" on="1"/>
        <pt x="415" y="580" on="0"/>
        <pt x="373" y="605" on="0"/>
        <pt x="339" y="636" on="0"/>
        <pt x="311" y="661" on="0"/>
        <pt x="300" y="661" on="1"/>
        <pt x="288" y="661" on="0"/>
        <pt x="253" y="624" on="0"/>
        <pt x="228" y="588" on="1"/>
        <pt x="161" y="626" on="1"/>
        <pt x="197" y="685" on="0"/>
        <pt x="285" y="765" on="0"/>
        <pt x="327" y="765" on="1"/>
        <pt x="351" y="765" on="0"/>
        <pt x="392" y="740" on="0"/>
        <pt x="426" y="709" on="0"/>
        <pt x="454" y="684" on="0"/>
      </contour>
      <contour>
        <pt x="370" y="-13" on="1"/>
        <pt x="337" y="-13" on="0"/>
        <pt x="309" y="34" on="0"/>
        <pt x="309" y="74" on="1"/>
        <pt x="309" y="77" on="0"/>
        <pt x="309" y="83" on="0"/>
        <pt x="309" y="86" on="1"/>
        <pt x="266" y="45" on="0"/>
        <pt x="174" y="-13" on="0"/>
        <pt x="134" y="-13" on="1"/>
        <pt x="90" y="-13" on="0"/>
        <pt x="30" y="64" on="0"/>
        <pt x="30" y="143" on="1"/>
        <pt x="30" y="212" on="0"/>
        <pt x="73" y="348" on="0"/>
        <pt x="156" y="453" on="0"/>
        <pt x="277" y="518" on="0"/>
        <pt x="353" y="518" on="1"/>
        <pt x="389" y="518" on="0"/>
        <pt x="472" y="506" on="0"/>
        <pt x="512" y="494" on="1"/>
        <pt x="444" y="142" on="1"/>
        <pt x="443" y="135" on="0"/>
        <pt x="441" y="124" on="0"/>
        <pt x="441" y="120" on="1"/>
        <pt x="441" y="113" on="0"/>
        <pt x="448" y="107" on="0"/>
        <pt x="457" y="107" on="1"/>
        <pt x="465" y="107" on="0"/>
        <pt x="490" y="110" on="0"/>
        <pt x="508" y="114" on="1"/>
        <pt x="519" y="46" on="1"/>
        <pt x="468" y="15" on="0"/>
        <pt x="395" y="-13" on="0"/>
      </contour>
      <contour>
        <pt x="212" y="118" on="1"/>
        <pt x="231" y="118" on="0"/>
        <pt x="287" y="147" on="0"/>
        <pt x="315" y="171" on="1"/>
        <pt x="318" y="188" on="0"/>
        <pt x="328" y="239" on="0"/>
        <pt x="340" y="298" on="0"/>
        <pt x="352" y="359" on="0"/>
        <pt x="357" y="386" on="1"/>
        <pt x="334" y="394" on="0"/>
        <pt x="294" y="402" on="0"/>
        <pt x="281" y="402" on="1"/>
        <pt x="259" y="402" on="0"/>
        <pt x="219" y="360" on="0"/>
        <pt x="188" y="294" on="0"/>
        <pt x="170" y="214" on="0"/>
        <pt x="170" y="177" on="1"/>
        <pt x="170" y="144" on="0"/>
        <pt x="195" y="118" on="0"/>
      </contour>
    </TTGlyph>
    <TTGlyph name="b" xMin="31" yMin="-13" xMax="520" yMax="706">
      <contour>
        <pt x="198" y="-13" on="1"/>
        <pt x="158" y="-13" on="0"/>
        <pt x="65" y="6" on="0"/>
        <pt x="31" y="18" on="1"/>
        <pt x="163" y="696" on="1"/>
        <pt x="301" y="706" on="1"/>
        <pt x="249" y="438" on="1"/>
        <pt x="289" y="474" on="0"/>
        <pt x="373" y="522" on="0"/>
        <pt x="410" y="522" on="1"/>
        <pt x="458" y="522" on="0"/>
        <pt x="520" y="437" on="0"/>
        <pt x="520" y="351" on="1"/>
        <pt x="520" y="284" on="0"/>
        <pt x="476" y="153" on="0"/>
        <pt x="394" y="50" on="0"/>
        <pt x="273" y="-13" on="0"/>
      </contour>
      <contour>
        <pt x="267" y="104" on="1"/>
        <pt x="289" y="104" on="0"/>
        <pt x="331" y="143" on="0"/>
        <pt x="363" y="204" on="0"/>
        <pt x="382" y="280" on="0"/>
        <pt x="382" y="315" on="1"/>
        <pt x="382" y="358" on="0"/>
        <pt x="353" y="394" on="0"/>
        <pt x="334" y="394" on="1"/>
        <pt x="312" y="394" on="0"/>
        <pt x="257" y="362" on="0"/>
        <pt x="229" y="337" on="1"/>
        <pt x="187" y="119" on="1"/>
        <pt x="211" y="112" on="0"/>
        <pt x="254" y="104" on="0"/>
      </contour>
    </TTGlyph>
    <TTGlyph name="backslash" xMin="82" yMin="-201" xMax="462" yMax="738">
      <contour>
        <pt x="198" y="738" on="1"/>
        <pt x="462" y="-163" on="1"/>
        <pt x="346" y="-201" on="1"/>
        <pt x="82" y="701" on="1"/>
      </contour>
    </TTGlyph>
    <TTGlyph name="bar" xMin="120" yMin="-183" xMax="428" yMax="719">
      <contour>
        <pt x="295" y="716" on="1"/>
        <pt x="428" y="719" on="1"/>
        <pt x="252" y="-183" on="1"/>
        <pt x="120" y="-183" on="1"/>
      </contour>
    </TTGlyph>
</ttFont>
